{
DisplayStrings = (
/knDA/knDA/knDI/knDA/knDA,
/knDA/knDA/knLLI/knDA/knDA
);
copyright = "Copyright \U00A9 2015 by James Puckett. All rights reserved. Copyright \U00A9 2015 by Aoife Mooney. All rights reserved. Copyright \U00A9 2015 by Indian Type Foundry. All rights reserved.";
customParameters = (
{
name = glyphOrder;
value = (
    knA,
    knAA,
    knI,
    knII,
    knU,
    knUU,
    knvR,
    knvRR,
    knvL,
    knvLL,
    knE,
    knEE,
    knAI,
    knO,
    knOO,
    knAU,
    knmAA,
    knmI,
    knmII,
    knmU,
    knmUU,
    knmvR,
    knmvRR,
    knmvL,
    knmvLL,
    knmE,
    knmEE,
    knmAI,
    knmO,
    knmOO,
    knmAU,
    knLengthmark,
    knAIlengthmark,
    knKA,
    knKHA,
    knGA,
    knGHA,
    knNGA,
    knCA,
    knCHA,
    knJA,
    knJHA,
    knNYA,
    knTTA,
    knTTHA,
    knDDA,
    knDDHA,
    knNNA,
    knTA,
    knTHA,
    knDA,
    knDHA,
    knNA,
    knPA,
    knPHA,
    knBA,
    knBHA,
    knMA,
    knYA,
    knRA,
    knLA,
    knVA,
    knSHA,
    knSSA,
    knSA,
    knHA,
    knRRA,
    knLLA,
    knLLLA,
    knAnusvara,
    knCandrabindu,
    knVisarga,
    knVirama,
    knNukta,
    knAvagraha,
    knZero,
    knOne,
    knTwo,
    knThree,
    knFour,
    knFive,
    knSix,
    knSeven,
    knEight,
    knNine,
    ".notdef",
    NULL,
    CR,
    space,
    indianrupee,
    zerowidthnonjoiner,
    zerowidthjoiner,
    dottedcircle,
    ITF,
    knReph,
    knKAc2,
    knKHAc2,
    knGAc2,
    knGHAc2,
    knNGAc2,
    knCAc2,
    knCHAc2,
    knJAc2,
    knJHAc2,
    knNYAc2,
    knTTAc2,
    knTTHAc2,
    knDDAc2,
    knDDHAc2,
    knNNAc2,
    knTAc2,
    knTHAc2,
    knDAc2,
    knDHAc2,
    knNAc2,
    knPAc2,
    knPHAc2,
    knBAc2,
    knBHAc2,
    knMAc2,
    knYAc2,
    knRAc2,
    knLAc2,
    knVAc2,
    knSHAc2,
    knSSAc2,
    knSAc2,
    knHAc2,
    knRRAc2,
    knLLAc2,
    knLLLAc2,
    knKSSAc2,
    "knTAc2_RAc2",
    knKAA,
    knKHAA,
    knGAA,
    knGHAA,
    knNGAA,
    knCAA,

glyphs = (
{
glyphname = knA;
lastChange = "2015-10-15 22:03:08 +0000";
layers = (
{
background = {
paths = (
{
closed = 1;
nodes = (
"804 -21 OFFCURVE",
"1006 60 OFFCURVE",
"1006 220 CURVE SMOOTH",
"1006 328 OFFCURVE",
"930 417 OFFCURVE",
"795 417 CURVE SMOOTH",
"718 417 OFFCURVE",
"657 386 OFFCURVE",
"657 323 CURVE SMOOTH",
"657 259 OFFCURVE",
"718 233 OFFCURVE",
"811 233 CURVE",
"811 251 LINE",
"741 251 OFFCURVE",
"681 268 OFFCURVE",
"681 323 CURVE SMOOTH",
"681 371 OFFCURVE",
"727 393 OFFCURVE",
"793 393 CURVE SMOOTH",
"932 393 OFFCURVE",
"982 304 OFFCURVE",
"982 222 CURVE SMOOTH",
"982 81 OFFCURVE",
"799 4 OFFCURVE",
"542 4 CURVE SMOOTH",
"287 4 OFFCURVE",
"102 81 OFFCURVE",
"102 222 CURVE SMOOTH",
"102 304 OFFCURVE",
"163 393 OFFCURVE",
"312 393 CURVE SMOOTH",
"385 393 OFFCURVE",
"434 371 OFFCURVE",
"434 323 CURVE SMOOTH",
"434 268 OFFCURVE",
"373 251 OFFCURVE",
"304 251 CURVE SMOOTH",
"240 251 OFFCURVE",
"165 266 OFFCURVE",
"114 302 CURVE",
"102 286 LINE",
"165 242 OFFCURVE",
"241 227 OFFCURVE",
"302 227 CURVE SMOOTH",
"394 227 OFFCURVE",
"458 261 OFFCURVE",
"458 323 CURVE SMOOTH",
"458 386 OFFCURVE",
"394 417 OFFCURVE",
"310 417 CURVE SMOOTH",
"168 417 OFFCURVE",
"78 328 OFFCURVE",
"78 220 CURVE SMOOTH",
"78 60 OFFCURVE",
"282 -21 OFFCURVE",
"542 -21 CURVE SMOOTH"
);
},
{
closed = 1;
nodes = (
"811 227 LINE",
"811 251 LINE",
"506 251 LINE",
"506 227 LINE"
);
}
);
};
guideLines = (
{
angle = 90;
position = "{996, 220}";
},
{
angle = 90;
position = "{492, 220}";
}
);
layerId = "034236B8-3FA8-43DA-9EDA-EFF269A687EC";
name = Light;
paths = (
{
closed = 1;
nodes = (
"803 -21 OFFCURVE",
"1006 58 OFFCURVE",
"1006 224 CURVE SMOOTH",
"1006 326 OFFCURVE",
"930 417 OFFCURVE",
"796 417 CURVE SMOOTH",
"717 417 OFFCURVE",
"657 386 OFFCURVE",
"657 322 CURVE SMOOTH",
"657 257 OFFCURVE",
"718 231 OFFCURVE",
"823 231 CURVE",
"823 249 LINE",
"741 249 OFFCURVE",
"681 266 OFFCURVE",
"681 322 CURVE SMOOTH",
"681 371 OFFCURVE",
"726 393 OFFCURVE",
"794 393 CURVE SMOOTH",
"932 393 OFFCURVE",
"982 302 OFFCURVE",
"982 226 CURVE SMOOTH",
"982 80 OFFCURVE",
"800 4 OFFCURVE",
"544 4 CURVE SMOOTH",
"286 4 OFFCURVE",
"102 81 OFFCURVE",
"102 222 CURVE SMOOTH",
"102 304 OFFCURVE",
"163 393 OFFCURVE",
"312 393 CURVE SMOOTH",
"385 393 OFFCURVE",
"434 371 OFFCURVE",
"434 323 CURVE SMOOTH",
"434 268 OFFCURVE",
"373 251 OFFCURVE",
"304 251 CURVE SMOOTH",
"240 251 OFFCURVE",
"165 266 OFFCURVE",
"114 302 CURVE",
"102 286 LINE",
"165 242 OFFCURVE",
"241 227 OFFCURVE",
"302 227 CURVE SMOOTH",
"394 227 OFFCURVE",
"458 261 OFFCURVE",
"458 323 CURVE SMOOTH",
"458 386 OFFCURVE",
"394 417 OFFCURVE",
"310 417 CURVE SMOOTH",
"168 417 OFFCURVE",
"78 328 OFFCURVE",
"78 221 CURVE SMOOTH",
"78 60 OFFCURVE",
"280 -21 OFFCURVE",
"543 -21 CURVE SMOOTH"
);
},
{
closed = 1;
nodes = (
"823 227 LINE",
"823 249 LINE",
"506 249 LINE",
"506 227 LINE"
);
}
);
width = 1084;
}
);
unicode = 0C85;
},
{
glyphname = knAA;
lastChange = "2015-10-19 16:34:03 +0000";
layers = (
{
background = {
guideLines = (
{
angle = 90;
position = "{78, 220}";
},
{
position = "{865, -9}";
},
{
angle = 90;
position = "{825, -9}";
},
{
angle = 180;
position = "{865, 129}";
},
{
angle = 180;
position = "{865, 267}";
},
{
angle = 90;
position = "{965, 265}";
},
{
angle = 45;
position = "{762, 129}";
},
{
position = "{880, 235}";
}
);
paths = (
{
closed = 1;
nodes = (
"805 229 LINE SMOOTH",
"909 229 OFFCURVE",
"965 262 OFFCURVE",
"965 325 CURVE SMOOTH",
"965 383 OFFCURVE",
"917 416 OFFCURVE",
"826 416 CURVE SMOOTH",
"738 416 OFFCURVE",
"686 385 OFFCURVE",
"686 326 CURVE SMOOTH",
"686 271 OFFCURVE",
"730 249 OFFCURVE",
"779 233 CURVE",
"835 215 OFFCURVE",
"865 190 OFFCURVE",
"865 135 CURVE SMOOTH",
"865 44 OFFCURVE",
"785 4 OFFCURVE",
"565 4 CURVE SMOOTH",
"249 4 OFFCURVE",
"100 86 OFFCURVE",
"100 227 CURVE SMOOTH",
"100 328 OFFCURVE",
"177 393 OFFCURVE",
"305 393 CURVE SMOOTH",
"383 393 OFFCURVE",
"424 369 OFFCURVE",
"424 323 CURVE SMOOTH",
"424 275 OFFCURVE",
"380 251 OFFCURVE",
"297 251 CURVE SMOOTH",
"224 251 OFFCURVE",
"158 270 OFFCURVE",
"114 303 CURVE",
"100 285 LINE",
"147 251 OFFCURVE",
"217 227 OFFCURVE",
"297 227 CURVE SMOOTH",
"393 227 OFFCURVE",
"446 261 OFFCURVE",
"446 323 CURVE SMOOTH",
"446 384 OFFCURVE",
"395 417 OFFCURVE",
"304 417 CURVE SMOOTH",
"165 417 OFFCURVE",
"78 340 OFFCURVE",
"78 225 CURVE SMOOTH",
"78 68 OFFCURVE",
"241 -21 OFFCURVE",
"560 -21 CURVE SMOOTH",
"794 -21 OFFCURVE",
"887 27 OFFCURVE",
"887 134 CURVE SMOOTH",
"887 209 OFFCURVE",
"841 233 OFFCURVE",
"787 248 CURVE",
"743 267 OFFCURVE",
"708 284 OFFCURVE",
"708 326 CURVE SMOOTH",
"708 371 OFFCURVE",
"748 391 OFFCURVE",
"826 391 CURVE SMOOTH",
"903 391 OFFCURVE",
"943 371 OFFCURVE",
"943 325 CURVE SMOOTH",
"943 276 OFFCURVE",
"897 251 OFFCURVE",
"805 251 CURVE SMOOTH",
"504 251 LINE",
"504 229 LINE"
);
}
);
};
guideLines = (
{
angle = 90;
position = "{965, 224}";
},
{
position = "{523, -9}";
},
{
angle = 90;
position = "{887, 224}";
},
{
angle = 90;
position = "{831, 314}";
}
);
layerId = "034236B8-3FA8-43DA-9EDA-EFF269A687EC";
name = Light;
paths = (
{
closed = 1;
nodes = (
"807 229 LINE SMOOTH",
"916 229 OFFCURVE",
"977 262 OFFCURVE",
"977 325 CURVE SMOOTH",
"977 383 OFFCURVE",
"923 417 OFFCURVE",
"824 417 CURVE SMOOTH",
"719 417 OFFCURVE",
"670 383 OFFCURVE",
"670 326 CURVE SMOOTH",
"670 269 OFFCURVE",
"722 249 OFFCURVE",
"773 236 CURVE",
"774 231 LINE",
"841 213 OFFCURVE",
"873 188 OFFCURVE",
"873 129 CURVE SMOOTH",
"873 44 OFFCURVE",
"788 4 OFFCURVE",
"553 4 CURVE SMOOTH",
"244 4 OFFCURVE",
"98 86 OFFCURVE",
"98 227 CURVE SMOOTH",
"98 328 OFFCURVE",
"175 393 OFFCURVE",
"303 393 CURVE SMOOTH",
"381 393 OFFCURVE",
"422 369 OFFCURVE",
"422 323 CURVE SMOOTH",
"422 275 OFFCURVE",
"378 251 OFFCURVE",
"295 251 CURVE SMOOTH",
"222 251 OFFCURVE",
"156 270 OFFCURVE",
"112 303 CURVE",
"98 285 LINE",
"145 251 OFFCURVE",
"215 227 OFFCURVE",
"295 227 CURVE SMOOTH",
"391 227 OFFCURVE",
"444 261 OFFCURVE",
"444 323 CURVE SMOOTH",
"444 384 OFFCURVE",
"393 417 OFFCURVE",
"302 417 CURVE SMOOTH",
"163 417 OFFCURVE",
"76 340 OFFCURVE",
"76 225 CURVE SMOOTH",
"76 68 OFFCURVE",
"236 -21 OFFCURVE",
"548 -21 CURVE SMOOTH",
"796 -21 OFFCURVE",
"895 27 OFFCURVE",
"895 128 CURVE SMOOTH",
"895 203 OFFCURVE",
"848 230 OFFCURVE",
"785 246 CURVE",
"784 249 LINE",
"735 263 OFFCURVE",
"692 282 OFFCURVE",
"692 324 CURVE SMOOTH",
"692 369 OFFCURVE",
"728 392 OFFCURVE",
"824 393 CURVE SMOOTH",
"909 394 OFFCURVE",
"955 371 OFFCURVE",
"955 325 CURVE SMOOTH",
"955 276 OFFCURVE",
"906 251 OFFCURVE",
"807 251 CURVE SMOOTH",
"502 251 LINE",
"502 229 LINE"
);
}
);
width = 1039;
}
);
rightMetricsKey = _part.knmAA;
unicode = 0C86;
},
{
glyphname = knI;
lastChange = "2015-10-15 22:03:08 +0000";
layers = (
{
anchors = (
{
name = headline;
position = "{1055, 381}";
}
);
background = {
paths = (
{
closed = 1;
nodes = (
"854 392 OFFCURVE",
"932 344 OFFCURVE",
"932 241 CURVE SMOOTH",
"932 57 OFFCURVE",
"692 -5 OFFCURVE",
"490 -5 CURVE SMOOTH",
"404 -5 OFFCURVE",
"336 8 OFFCURVE",
"336 65 CURVE SMOOTH",
"336 113 OFFCURVE",
"388 130 OFFCURVE",
"479 130 CURVE SMOOTH",
"647 130 OFFCURVE",
"738 74 OFFCURVE",
"738 -100 CURVE",
"762 -98 LINE",
"762 86 OFFCURVE",
"651 152 OFFCURVE",
"483 152 CURVE SMOOTH",
"380 152 OFFCURVE",
"314 129 OFFCURVE",
"314 64 CURVE SMOOTH",
"314 -3 OFFCURVE",
"379 -29 OFFCURVE",
"495 -29 CURVE SMOOTH",
"695 -29 OFFCURVE",
"954 40 OFFCURVE",
"954 247 CURVE SMOOTH",
"954 368 OFFCURVE",
"862 417 OFFCURVE",
"751 417 CURVE SMOOTH",
"640 417 OFFCURVE",
"559 377 OFFCURVE",
"512 283 CURVE",
"465 377 OFFCURVE",
"384 417 OFFCURVE",
"272 417 CURVE SMOOTH",
"161 417 OFFCURVE",
"70 370 OFFCURVE",
"70 246 CURVE SMOOTH",
"70 209 OFFCURVE",
"78 175 OFFCURVE",
"94 144 CURVE",
"115 151 LINE",
"100 182 OFFCURVE",
"92 212 OFFCURVE",
"92 242 CURVE SMOOTH",
"92 346 OFFCURVE",
"172 392 OFFCURVE",
"276 392 CURVE SMOOTH",
"393 392 OFFCURVE",
"459 343 OFFCURVE",
"500 256 CURVE",
"524 256 LINE",
"565 343 OFFCURVE",
"631 392 OFFCURVE",
"748 392 CURVE SMOOTH"
);
}
);
};
guideLines = (
{
angle = 90;
position = "{511, 283}";
},
{
angle = 90;
position = "{705, 332}";
},
{
angle = 90;
position = "{954, 247}";
},
{
angle = 90;
position = "{931, 242}";
},
{
angle = 90;
position = "{316, 332}";
}
);
layerId = "034236B8-3FA8-43DA-9EDA-EFF269A687EC";
name = Light;
paths = (
{
closed = 1;
nodes = (
"866 392 OFFCURVE",
"932 336 OFFCURVE",
"932 236 CURVE SMOOTH",
"932 57 OFFCURVE",
"714 -9 OFFCURVE",
"528 -9 CURVE SMOOTH",
"429 -9 OFFCURVE",
"352 8 OFFCURVE",
"352 68 CURVE SMOOTH",
"352 119 OFFCURVE",
"407 141 OFFCURVE",
"501 141 CURVE SMOOTH",
"656 141 OFFCURVE",
"738 80 OFFCURVE",
"738 -90 CURVE SMOOTH",
"738 -100 LINE",
"762 -98 LINE",
"762 -88 LINE SMOOTH",
"762 92 OFFCURVE",
"661 163 OFFCURVE",
"505 163 CURVE SMOOTH",
"400 163 OFFCURVE",
"330 135 OFFCURVE",
"330 67 CURVE SMOOTH",
"330 -2 OFFCURVE",
"402 -33 OFFCURVE",
"533 -33 CURVE SMOOTH",
"717 -33 OFFCURVE",
"954 40 OFFCURVE",
"954 237 CURVE SMOOTH",
"954 360 OFFCURVE",
"863 417 OFFCURVE",
"749 417 CURVE SMOOTH",
"642 417 OFFCURVE",
"563 376 OFFCURVE",
"512 283 CURVE",
"462 375 OFFCURVE",
"383 417 OFFCURVE",
"276 417 CURVE SMOOTH",
"169 417 OFFCURVE",
"70 370 OFFCURVE",
"70 246 CURVE SMOOTH",
"70 209 OFFCURVE",
"78 175 OFFCURVE",
"94 144 CURVE",
"115 151 LINE",
"100 182 OFFCURVE",
"92 212 OFFCURVE",
"92 242 CURVE SMOOTH",
"92 348 OFFCURVE",
"169 392 OFFCURVE",
"278 392 CURVE SMOOTH",
"392 392 OFFCURVE",
"458 342 OFFCURVE",
"500 256 CURVE",
"524 256 LINE",
"567 344 OFFCURVE",
"633 392 OFFCURVE",
"748 392 CURVE SMOOTH"
);
}
);
width = 1026;
},
{
associatedMasterId = "034236B8-3FA8-43DA-9EDA-EFF269A687EC";
background = {
paths = (
{
closed = 1;
nodes = (
"864 392 OFFCURVE",
"932 343 OFFCURVE",
"932 241 CURVE SMOOTH",
"932 57 OFFCURVE",
"714 -9 OFFCURVE",
"528 -9 CURVE SMOOTH",
"429 -9 OFFCURVE",
"352 8 OFFCURVE",
"352 68 CURVE SMOOTH",
"352 119 OFFCURVE",
"407 141 OFFCURVE",
"501 141 CURVE SMOOTH",
"656 141 OFFCURVE",
"738 80 OFFCURVE",
"738 -90 CURVE SMOOTH",
"738 -100 LINE",
"762 -98 LINE",
"762 -88 LINE SMOOTH",
"762 92 OFFCURVE",
"661 163 OFFCURVE",
"505 163 CURVE SMOOTH",
"400 163 OFFCURVE",
"330 135 OFFCURVE",
"330 67 CURVE SMOOTH",
"330 -2 OFFCURVE",
"402 -33 OFFCURVE",
"533 -33 CURVE SMOOTH",
"717 -33 OFFCURVE",
"954 40 OFFCURVE",
"954 247 CURVE SMOOTH",
"954 365 OFFCURVE",
"861 417 OFFCURVE",
"749 417 CURVE SMOOTH",
"644 417 OFFCURVE",
"563 376 OFFCURVE",
"512 283 CURVE",
"462 375 OFFCURVE",
"381 417 OFFCURVE",
"276 417 CURVE SMOOTH",
"169 417 OFFCURVE",
"70 370 OFFCURVE",
"70 246 CURVE SMOOTH",
"70 209 OFFCURVE",
"78 175 OFFCURVE",
"94 144 CURVE",
"115 151 LINE",
"100 182 OFFCURVE",
"92 212 OFFCURVE",
"92 242 CURVE SMOOTH",
"92 350 OFFCURVE",
"169 392 OFFCURVE",
"278 392 CURVE SMOOTH",
"392 392 OFFCURVE",
"458 342 OFFCURVE",
"500 256 CURVE",
"524 256 LINE",
"567 344 OFFCURVE",
"633 392 OFFCURVE",
"748 392 CURVE SMOOTH"
);
}
);
};
layerId = "818B7BC9-8B8C-4399-9281-BCAFC3146788";
name = "Light Oct 15 15, 12:06";
paths = (
{
closed = 1;
nodes = (
"854 392 OFFCURVE",
"932 344 OFFCURVE",
"932 241 CURVE SMOOTH",
"932 57 OFFCURVE",
"692 -5 OFFCURVE",
"490 -5 CURVE SMOOTH",
"404 -5 OFFCURVE",
"336 8 OFFCURVE",
"336 65 CURVE SMOOTH",
"336 113 OFFCURVE",
"388 130 OFFCURVE",
"479 130 CURVE SMOOTH",
"647 130 OFFCURVE",
"738 74 OFFCURVE",
"738 -100 CURVE",
"762 -98 LINE",
"762 86 OFFCURVE",
"651 152 OFFCURVE",
"483 152 CURVE SMOOTH",
"380 152 OFFCURVE",
"314 129 OFFCURVE",
"314 64 CURVE SMOOTH",
"314 -3 OFFCURVE",
"379 -29 OFFCURVE",
"495 -29 CURVE SMOOTH",
"695 -29 OFFCURVE",
"954 40 OFFCURVE",
"954 247 CURVE SMOOTH",
"954 368 OFFCURVE",
"862 417 OFFCURVE",
"751 417 CURVE SMOOTH",
"640 417 OFFCURVE",
"559 377 OFFCURVE",
"512 283 CURVE",
"465 377 OFFCURVE",
"384 417 OFFCURVE",
"272 417 CURVE SMOOTH",
"161 417 OFFCURVE",
"70 370 OFFCURVE",
"70 246 CURVE SMOOTH",
"70 209 OFFCURVE",
"78 175 OFFCURVE",
"94 144 CURVE",
"115 151 LINE",
"100 182 OFFCURVE",
"92 212 OFFCURVE",
"92 242 CURVE SMOOTH",
"92 346 OFFCURVE",
"172 392 OFFCURVE",
"276 392 CURVE SMOOTH",
"393 392 OFFCURVE",
"459 343 OFFCURVE",
"500 256 CURVE",
"524 256 LINE",
"565 343 OFFCURVE",
"631 392 OFFCURVE",
"748 392 CURVE SMOOTH"
);
}
);
width = 1026;
}
);
unicode = 0C87;
},
{
glyphname = knII;
lastChange = "2015-10-15 22:03:08 +0000";
layers = (
{
background = {
guideLines = (
{
angle = 90;
position = "{921, 182}";
showMeasurement = 1;
}
);
paths = (
{
closed = 1;
nodes = (
"1055 184 OFFCURVE",
"1095 224 OFFCURVE",
"1095 296 CURVE SMOOTH",
"1095 359 OFFCURVE",
"1037 393 OFFCURVE",
"969 393 CURVE SMOOTH",
"902 393 OFFCURVE",
"839 365 OFFCURVE",
"839 294 CURVE SMOOTH",
"839 261 OFFCURVE",
"854 230 OFFCURVE",
"879 211 CURVE SMOOTH",
"907 189 OFFCURVE",
"942 175 OFFCURVE",
"983 162 CURVE SMOOTH",
"1014 152 OFFCURVE",
"1062 136 OFFCURVE",
"1062 81 CURVE SMOOTH",
"1062 37 OFFCURVE",
"1034 15 OFFCURVE",
"945 15 CURVE",
"951 -9 LINE",
"1050 -5 OFFCURVE",
"1084 22 OFFCURVE",
"1084 82 CURVE SMOOTH",
"1084 146 OFFCURVE",
"1031 168 OFFCURVE",
"993 180 CURVE SMOOTH",
"951 193 OFFCURVE",
"919 205 OFFCURVE",
"896 223 CURVE SMOOTH",
"874 240 OFFCURVE",
"861 266 OFFCURVE",
"861 294 CURVE SMOOTH",
"861 347 OFFCURVE",
"910 369 OFFCURVE",
"969 369 CURVE SMOOTH",
"1026 369 OFFCURVE",
"1073 341 OFFCURVE",
"1073 294 CURVE SMOOTH",
"1073 236 OFFCURVE",
"1040 208 OFFCURVE",
"920 208 CURVE SMOOTH",
"18 208 LINE",
"18 184 LINE",
"914 184 LINE SMOOTH"
);
}
);
};
components = (
{
name = knRA;
transform = "{1, 0, 0, 1, 53, 0}";
}
);
guideLines = (
{
angle = 90;
position = "{783, 184}";
}
);
layerId = "034236B8-3FA8-43DA-9EDA-EFF269A687EC";
name = Light;
paths = (
{
closed = 1;
nodes = (
"1079 185 OFFCURVE",
"1119 224 OFFCURVE",
"1119 296 CURVE SMOOTH",
"1119 359 OFFCURVE",
"1061 393 OFFCURVE",
"993 393 CURVE SMOOTH",
"926 393 OFFCURVE",
"863 365 OFFCURVE",
"863 294 CURVE SMOOTH",
"863 261 OFFCURVE",
"878 230 OFFCURVE",
"903 211 CURVE SMOOTH",
"931 189 OFFCURVE",
"966 175 OFFCURVE",
"1007 162 CURVE SMOOTH",
"1038 152 OFFCURVE",
"1086 136 OFFCURVE",
"1086 81 CURVE SMOOTH",
"1086 37 OFFCURVE",
"1058 15 OFFCURVE",
"969 15 CURVE SMOOTH",
"975 -9 LINE SMOOTH",
"1074 -5 OFFCURVE",
"1108 22 OFFCURVE",
"1108 82 CURVE SMOOTH",
"1108 146 OFFCURVE",
"1055 168 OFFCURVE",
"1017 180 CURVE SMOOTH",
"975 193 OFFCURVE",
"943 205 OFFCURVE",
"920 223 CURVE SMOOTH",
"898 240 OFFCURVE",
"885 266 OFFCURVE",
"885 294 CURVE SMOOTH",
"885 347 OFFCURVE",
"934 369 OFFCURVE",
"993 369 CURVE SMOOTH",
"1050 369 OFFCURVE",
"1097 341 OFFCURVE",
"1097 294 CURVE SMOOTH",
"1097 236 OFFCURVE",
"1064 207 OFFCURVE",
"944 207 CURVE SMOOTH",
"15 207 LINE",
"15 185 LINE",
"938 185 LINE SMOOTH"
);
}
);
width = 1174;
}
);
unicode = 0C88;
},
{
glyphname = knU;
lastChange = "2015-10-19 16:34:03 +0000";
layers = (
{
background = {
paths = (
{
closed = 1;
nodes = (
"80 61 OFFCURVE",
"189 -21 OFFCURVE",
"343 -21 CURVE SMOOTH",
"456 -21 OFFCURVE",
"541 19 OFFCURVE",
"541 101 CURVE SMOOTH",
"541 164 OFFCURVE",
"521 201 OFFCURVE",
"521 268 CURVE SMOOTH",
"521 350 OFFCURVE",
"566 392 OFFCURVE",
"641 392 CURVE SMOOTH",
"715 392 OFFCURVE",
"761 350 OFFCURVE",
"761 268 CURVE SMOOTH",
"761 201 OFFCURVE",
"741 164 OFFCURVE",
"741 101 CURVE SMOOTH",
"741 19 OFFCURVE",
"801 -21 OFFCURVE",
"886 -21 CURVE SMOOTH",
"988 -21 OFFCURVE",
"1035 47 OFFCURVE",
"1035 169 CURVE SMOOTH",
"1035 263 OFFCURVE",
"1000 351 OFFCURVE",
"944 403 CURVE",
"927 386 LINE",
"979 338 OFFCURVE",
"1013 262 OFFCURVE",
"1013 171 CURVE SMOOTH",
"1013 62 OFFCURVE",
"975 4 OFFCURVE",
"886 4 CURVE SMOOTH",
"808 4 OFFCURVE",
"763 40 OFFCURVE",
"763 103 CURVE SMOOTH",
"763 159 OFFCURVE",
"783 199 OFFCURVE",
"783 269 CURVE SMOOTH",
"783 364 OFFCURVE",
"729 417 OFFCURVE",
"641 417 CURVE SMOOTH",
"552 417 OFFCURVE",
"499 364 OFFCURVE",
"499 269 CURVE SMOOTH",
"499 199 OFFCURVE",
"519 159 OFFCURVE",
"519 103 CURVE SMOOTH",
"519 40 OFFCURVE",
"451 4 OFFCURVE",
"343 4 CURVE SMOOTH",
"201 4 OFFCURVE",
"102 76 OFFCURVE",
"102 211 CURVE SMOOTH",
"102 301 OFFCURVE",
"153 393 OFFCURVE",
"281 393 CURVE SMOOTH",
"343 393 OFFCURVE",
"382 371 OFFCURVE",
"382 323 CURVE SMOOTH",
"382 268 OFFCURVE",
"332 252 OFFCURVE",
"274 252 CURVE SMOOTH",
"220 252 OFFCURVE",
"156 266 OFFCURVE",
"112 302 CURVE",
"102 286 LINE",
"156 242 OFFCURVE",
"220 227 OFFCURVE",
"273 227 CURVE SMOOTH",
"350 227 OFFCURVE",
"404 261 OFFCURVE",
"404 323 CURVE SMOOTH",
"404 386 OFFCURVE",
"350 417 OFFCURVE",
"279 417 CURVE SMOOTH",
"157 417 OFFCURVE",
"80 328 OFFCURVE",
"80 209 CURVE SMOOTH"
);
}
);
};
guideLines = (
{
angle = 90;
position = "{141, -37}";
},
{
position = "{131, 184}";
}
);
layerId = "034236B8-3FA8-43DA-9EDA-EFF269A687EC";
leftMetricsKey = "=80";
rightMetricsKey = "=80";
name = Light;
paths = (
{
closed = 1;
nodes = (
"80 61 OFFCURVE",
"188 -21 OFFCURVE",
"348 -21 CURVE SMOOTH",
"455 -21 OFFCURVE",
"541 16 OFFCURVE",
"541 109 CURVE SMOOTH",
"541 154 OFFCURVE",
"521 208 OFFCURVE",
"521 265 CURVE SMOOTH",
"521 351 OFFCURVE",
"566 392 OFFCURVE",
"641 392 CURVE SMOOTH",
"715 392 OFFCURVE",
"761 352 OFFCURVE",
"761 265 CURVE SMOOTH",
"761 207 OFFCURVE",
"741 157 OFFCURVE",
"741 106 CURVE SMOOTH",
"741 18 OFFCURVE",
"801 -21 OFFCURVE",
"882 -21 CURVE SMOOTH",
"988 -21 OFFCURVE",
"1035 46 OFFCURVE",
"1035 164 CURVE SMOOTH",
"1035 265 OFFCURVE",
"1001 349 OFFCURVE",
"944 403 CURVE",
"927 386 LINE",
"976 340 OFFCURVE",
"1013 270 OFFCURVE",
"1013 166 CURVE SMOOTH",
"1013 61 OFFCURVE",
"975 4 OFFCURVE",
"882 4 CURVE SMOOTH",
"808 4 OFFCURVE",
"763 40 OFFCURVE",
"763 107 CURVE SMOOTH",
"763 152 OFFCURVE",
"783 205 OFFCURVE",
"783 266 CURVE SMOOTH",
"783 366 OFFCURVE",
"729 417 OFFCURVE",
"641 417 CURVE SMOOTH",
"552 417 OFFCURVE",
"499 365 OFFCURVE",
"499 267 CURVE SMOOTH",
"499 206 OFFCURVE",
"519 149 OFFCURVE",
"519 110 CURVE SMOOTH",
"519 38 OFFCURVE",
"451 4 OFFCURVE",
"349 4 CURVE SMOOTH",
"200 4 OFFCURVE",
"102 76 OFFCURVE",
"102 207 CURVE SMOOTH",
"102 302 OFFCURVE",
"153 393 OFFCURVE",
"281 393 CURVE SMOOTH",
"343 393 OFFCURVE",
"382 371 OFFCURVE",
"382 323 CURVE SMOOTH",
"382 268 OFFCURVE",
"332 252 OFFCURVE",
"274 252 CURVE SMOOTH",
"220 252 OFFCURVE",
"156 266 OFFCURVE",
"112 302 CURVE",
"102 286 LINE",
"156 242 OFFCURVE",
"220 227 OFFCURVE",
"272 227 CURVE SMOOTH",
"351 227 OFFCURVE",
"404 261 OFFCURVE",
"404 323 CURVE SMOOTH",
"404 386 OFFCURVE",
"350 417 OFFCURVE",
"278 417 CURVE SMOOTH",
"157 417 OFFCURVE",
"80 329 OFFCURVE",
"80 206 CURVE SMOOTH"
);
}
);
width = 1115;
},
{
associatedMasterId = "034236B8-3FA8-43DA-9EDA-EFF269A687EC";
background = {
paths = (
{
closed = 1;
nodes = (
"615 17 OFFCURVE",
"711 -21 OFFCURVE",
"816 -21 CURVE SMOOTH",
"968 -21 OFFCURVE",
"1072 59 OFFCURVE",
"1072 200 CURVE SMOOTH",
"1072 328 OFFCURVE",
"986 417 OFFCURVE",
"851 417 CURVE SMOOTH",
"772 417 OFFCURVE",
"712 386 OFFCURVE",
"712 323 CURVE SMOOTH",
"712 261 OFFCURVE",
"772 227 OFFCURVE",
"858 227 CURVE SMOOTH",
"916 227 OFFCURVE",
"988 242 OFFCURVE",
"1048 286 CURVE",
"1036 302 LINE",
"988 266 OFFCURVE",
"916 252 OFFCURVE",
"856 252 CURVE SMOOTH",
"792 252 OFFCURVE",
"734 268 OFFCURVE",
"734 323 CURVE SMOOTH",
"734 371 OFFCURVE",
"780 393 OFFCURVE",
"849 393 CURVE SMOOTH",
"991 393 OFFCURVE",
"1050 301 OFFCURVE",
"1050 202 CURVE SMOOTH",
"1050 85 OFFCURVE",
"967 4 OFFCURVE",
"814 4 CURVE SMOOTH",
"684 4 OFFCURVE",
"618 64 OFFCURVE",
"588 140 CURVE",
"564 140 LINE",
"534 64 OFFCURVE",
"468 4 OFFCURVE",
"338 4 CURVE SMOOTH",
"186 4 OFFCURVE",
"102 84 OFFCURVE",
"102 202 CURVE SMOOTH",
"102 301 OFFCURVE",
"161 393 OFFCURVE",
"303 393 CURVE SMOOTH",
"372 393 OFFCURVE",
"418 371 OFFCURVE",
"418 323 CURVE SMOOTH",
"418 268 OFFCURVE",
"360 252 OFFCURVE",
"296 252 CURVE SMOOTH",
"236 252 OFFCURVE",
"164 266 OFFCURVE",
"116 302 CURVE",
"104 286 LINE",
"164 242 OFFCURVE",
"236 227 OFFCURVE",
"294 227 CURVE SMOOTH",
"380 227 OFFCURVE",
"440 261 OFFCURVE",
"440 323 CURVE SMOOTH",
"440 386 OFFCURVE",
"380 417 OFFCURVE",
"301 417 CURVE SMOOTH",
"166 417 OFFCURVE",
"80 328 OFFCURVE",
"80 200 CURVE SMOOTH",
"80 59 OFFCURVE",
"184 -21 OFFCURVE",
"336 -21 CURVE SMOOTH",
"441 -21 OFFCURVE",
"537 17 OFFCURVE",
"576 113 CURVE"
);
}
);
};
layerId = "3879D685-2849-43C3-A048-4A52CFB37C0C";
name = "Light Sep 25 15, 12:14";
paths = (
{
closed = 1;
nodes = (
"758 485 LINE",
"849 485 OFFCURVE",
"901 393 OFFCURVE",
"901 272 CURVE SMOOTH",
"901 127 OFFCURVE",
"859 43 OFFCURVE",
"782 43 CURVE SMOOTH",
"709 43 OFFCURVE",
"686 94 OFFCURVE",
"686 165 CURVE SMOOTH",
"686 250 OFFCURVE",
"712 314 OFFCURVE",
"712 403 CURVE SMOOTH",
"712 489 OFFCURVE",
"664 556 OFFCURVE",
"563 556 CURVE SMOOTH",
"467 556 OFFCURVE",
"411 490 OFFCURVE",
"411 403 CURVE SMOOTH",
"411 315 OFFCURVE",
"430 272 OFFCURVE",
"430 189 CURVE SMOOTH",
"430 99 OFFCURVE",
"373 43 OFFCURVE",
"293 43 CURVE SMOOTH",
"171 43 OFFCURVE",
"101 150 OFFCURVE",
"101 286 CURVE SMOOTH",
"101 323 OFFCURVE",
"111 372 OFFCURVE",
"119 414 CURVE",
"100 415 LINE",
"100 333 OFFCURVE",
"152 277 OFFCURVE",
"230 277 CURVE SMOOTH",
"310 277 OFFCURVE",
"368 341 OFFCURVE",
"368 418 CURVE SMOOTH",
"368 492 OFFCURVE",
"311 556 OFFCURVE",
"230 556 CURVE SMOOTH",
"102 556 OFFCURVE",
"47 427 OFFCURVE",
"47 286 CURVE SMOOTH",
"47 126 OFFCURVE",
"130 -9 OFFCURVE",
"293 -9 CURVE SMOOTH",
"408 -9 OFFCURVE",
"492 69 OFFCURVE",
"492 182 CURVE SMOOTH",
"492 264 OFFCURVE",
"472 327 OFFCURVE",
"472 401 CURVE SMOOTH",
"472 466 OFFCURVE",
"510 503 OFFCURVE",
"564 503 CURVE SMOOTH",
"619 503 OFFCURVE",
"651 465 OFFCURVE",
"651 401 CURVE SMOOTH",
"651 325 OFFCURVE",
"624 242 OFFCURVE",
"624 159 CURVE SMOOTH",
"624 63 OFFCURVE",
"672 -9 OFFCURVE",
"784 -9 CURVE SMOOTH",
"898 -9 OFFCURVE",
"963 101 OFFCURVE",
"963 271 CURVE SMOOTH",
"963 427 OFFCURVE",
"889 546 OFFCURVE",
"758 546 CURVE"
);
},
{
closed = 1;
nodes = (
"227 329 CURVE SMOOTH",
"172 329 OFFCURVE",
"139 368 OFFCURVE",
"139 413 CURVE SMOOTH",
"139 462 OFFCURVE",
"177 503 OFFCURVE",
"224 503 CURVE SMOOTH",
"274 503 OFFCURVE",
"305 465 OFFCURVE",
"305 417 CURVE SMOOTH",
"305 370 OFFCURVE",
"276 329 OFFCURVE"
);
}
);
width = 1010;
}
);
rightMetricsKey = _part.knmU;
unicode = 0C89;
},
{
glyphname = knUU;
lastChange = "2015-10-19 16:34:03 +0000";
layers = (
{
background = {
paths = (
{
closed = 0;
nodes = (
"882 -21 LINE",
"965 -21 OFFCURVE",
"1009 21 OFFCURVE",
"1009 92 CURVE SMOOTH",
"1009 143 OFFCURVE",
"987 189 OFFCURVE",
"987 242 CURVE SMOOTH",
"987 343 OFFCURVE",
"1065 393 OFFCURVE",
"1178 393 CURVE SMOOTH",
"1333 393 OFFCURVE",
"1426 298 OFFCURVE",
"1426 172 CURVE SMOOTH",
"1426 93 OFFCURVE",
"1389 4 OFFCURVE",
"1259 4 CURVE SMOOTH",
"1178 4 OFFCURVE",
"1128 38 OFFCURVE",
"1128 99 CURVE SMOOTH",
"1128 147 OFFCURVE",
"1159 186 OFFCURVE",
"1209 194 CURVE",
"1206 189 OFFCURVE",
"1205 185 OFFCURVE",
"1205 180 CURVE SMOOTH",
"1205 163 OFFCURVE",
"1221 150 OFFCURVE",
"1253 150 CURVE SMOOTH",
"1283 150 OFFCURVE",
"1299 162 OFFCURVE",
"1299 183 CURVE SMOOTH",
"1299 202 OFFCURVE",
"1287 217 OFFCURVE",
"1240 217 CURVE SMOOTH",
"1157 217 OFFCURVE",
"1106 171 OFFCURVE",
"1106 100 CURVE SMOOTH",
"1106 25 OFFCURVE",
"1164 -21 OFFCURVE",
"1258 -21 CURVE SMOOTH",
"1386 -21 OFFCURVE",
"1448 63 OFFCURVE",
"1448 170 CURVE SMOOTH",
"1448 307 OFFCURVE",
"1345 417 OFFCURVE",
"1179 417 CURVE SMOOTH",
"1054 417 OFFCURVE",
"965 354 OFFCURVE",
"965 248 CURVE SMOOTH",
"965 195 OFFCURVE",
"987 136 OFFCURVE",
"987 90 CURVE SMOOTH",
"987 30 OFFCURVE",
"950 4 OFFCURVE",
"882 4 CURVE"
);
}
);
};
layerId = "034236B8-3FA8-43DA-9EDA-EFF269A687EC";
leftMetricsKey = "=80";
rightMetricsKey = "=80";
name = Light;
paths = (
{
closed = 1;
nodes = (
"1054 417 OFFCURVE",
"965 354 OFFCURVE",
"965 248 CURVE SMOOTH",
"965 195 OFFCURVE",
"987 136 OFFCURVE",
"987 90 CURVE SMOOTH",
"987 30 OFFCURVE",
"950 4 OFFCURVE",
"882 4 CURVE SMOOTH",
"808 4 OFFCURVE",
"763 40 OFFCURVE",
"763 107 CURVE SMOOTH",
"763 152 OFFCURVE",
"783 205 OFFCURVE",
"783 266 CURVE SMOOTH",
"783 366 OFFCURVE",
"729 417 OFFCURVE",
"641 417 CURVE SMOOTH",
"552 417 OFFCURVE",
"499 365 OFFCURVE",
"499 267 CURVE SMOOTH",
"499 206 OFFCURVE",
"519 149 OFFCURVE",
"519 110 CURVE SMOOTH",
"519 38 OFFCURVE",
"451 4 OFFCURVE",
"349 4 CURVE SMOOTH",
"200 4 OFFCURVE",
"102 76 OFFCURVE",
"102 207 CURVE SMOOTH",
"102 302 OFFCURVE",
"153 393 OFFCURVE",
"281 393 CURVE SMOOTH",
"343 393 OFFCURVE",
"382 371 OFFCURVE",
"382 323 CURVE SMOOTH",
"382 268 OFFCURVE",
"332 252 OFFCURVE",
"274 252 CURVE SMOOTH",
"220 252 OFFCURVE",
"156 266 OFFCURVE",
"112 302 CURVE",
"102 286 LINE",
"156 242 OFFCURVE",
"220 227 OFFCURVE",
"272 227 CURVE SMOOTH",
"351 227 OFFCURVE",
"404 261 OFFCURVE",
"404 323 CURVE SMOOTH",
"404 386 OFFCURVE",
"350 417 OFFCURVE",
"278 417 CURVE SMOOTH",
"157 417 OFFCURVE",
"80 329 OFFCURVE",
"80 206 CURVE SMOOTH",
"80 61 OFFCURVE",
"188 -21 OFFCURVE",
"348 -21 CURVE SMOOTH",
"455 -21 OFFCURVE",
"541 16 OFFCURVE",
"541 109 CURVE SMOOTH",
"541 154 OFFCURVE",
"521 208 OFFCURVE",
"521 265 CURVE SMOOTH",
"521 351 OFFCURVE",
"566 392 OFFCURVE",
"641 392 CURVE SMOOTH",
"715 392 OFFCURVE",
"761 352 OFFCURVE",
"761 265 CURVE SMOOTH",
"761 207 OFFCURVE",
"741 157 OFFCURVE",
"741 106 CURVE SMOOTH",
"741 18 OFFCURVE",
"801 -21 OFFCURVE",
"882 -21 CURVE SMOOTH",
"965 -21 OFFCURVE",
"1009 21 OFFCURVE",
"1009 92 CURVE SMOOTH",
"1009 143 OFFCURVE",
"987 189 OFFCURVE",
"987 242 CURVE SMOOTH",
"987 343 OFFCURVE",
"1065 393 OFFCURVE",
"1178 393 CURVE SMOOTH",
"1333 393 OFFCURVE",
"1426 298 OFFCURVE",
"1426 172 CURVE SMOOTH",
"1426 93 OFFCURVE",
"1389 4 OFFCURVE",
"1259 4 CURVE SMOOTH",
"1178 4 OFFCURVE",
"1128 38 OFFCURVE",
"1128 99 CURVE SMOOTH",
"1128 147 OFFCURVE",
"1159 186 OFFCURVE",
"1209 194 CURVE",
"1206 189 OFFCURVE",
"1205 185 OFFCURVE",
"1205 180 CURVE SMOOTH",
"1205 163 OFFCURVE",
"1221 150 OFFCURVE",
"1253 150 CURVE SMOOTH",
"1283 150 OFFCURVE",
"1299 162 OFFCURVE",
"1299 183 CURVE SMOOTH",
"1299 202 OFFCURVE",
"1287 217 OFFCURVE",
"1240 217 CURVE SMOOTH",
"1157 217 OFFCURVE",
"1106 171 OFFCURVE",
"1106 100 CURVE SMOOTH",
"1106 25 OFFCURVE",
"1164 -21 OFFCURVE",
"1258 -21 CURVE SMOOTH",
"1386 -21 OFFCURVE",
"1448 63 OFFCURVE",
"1448 170 CURVE SMOOTH",
"1448 307 OFFCURVE",
"1345 417 OFFCURVE",
"1179 417 CURVE SMOOTH"
);
}
);
width = 1528;
}
);
unicode = 0C8A;
},
{
glyphname = knvL;
lastChange = "2015-10-15 22:03:08 +0000";
layers = (
{
background = {
guideLines = (
{
position = "{970, 159}";
}
);
paths = (
{
closed = 1;
nodes = (
"950 365 OFFCURVE",
"859 417 OFFCURVE",
"751 417 CURVE SMOOTH",
"640 417 OFFCURVE",
"555 378 OFFCURVE",
"508 283 CURVE",
"461 377 OFFCURVE",
"380 417 OFFCURVE",
"268 417 CURVE SMOOTH",
"157 417 OFFCURVE",
"66 370 OFFCURVE",
"66 246 CURVE SMOOTH",
"66 209 OFFCURVE",
"74 175 OFFCURVE",
"90 144 CURVE",
"111 151 LINE",
"96 182 OFFCURVE",
"88 212 OFFCURVE",
"88 242 CURVE SMOOTH",
"88 346 OFFCURVE",
"168 392 OFFCURVE",
"272 392 CURVE SMOOTH",
"389 392 OFFCURVE",
"455 343 OFFCURVE",
"496 256 CURVE",
"520 256 LINE",
"561 344 OFFCURVE",
"631 392 OFFCURVE",
"748 392 CURVE SMOOTH",
"859 392 OFFCURVE",
"928 333 OFFCURVE",
"928 259 CURVE SMOOTH",
"928 209 OFFCURVE",
"910 193 OFFCURVE",
"889 169 CURVE SMOOTH",
"861 136 OFFCURVE",
"848 113 OFFCURVE",
"848 77 CURVE SMOOTH",
"848 20 OFFCURVE",
"889 -21 OFFCURVE",
"966 -21 CURVE SMOOTH",
"1038 -21 OFFCURVE",
"1076 20 OFFCURVE",
"1076 88 CURVE SMOOTH",
"1076 105 OFFCURVE",
"1074 121 OFFCURVE",
"1071 133 CURVE",
"1049 135 LINE",
"1052 120 OFFCURVE",
"1054 105 OFFCURVE",
"1054 88 CURVE SMOOTH",
"1054 34 OFFCURVE",
"1030 3 OFFCURVE",
"966 3 CURVE SMOOTH",
"898 3 OFFCURVE",
"870 34 OFFCURVE",
"870 77 CURVE SMOOTH",
"870 115 OFFCURVE",
"890 137 OFFCURVE",
"907 157 CURVE SMOOTH",
"929 183 OFFCURVE",
"950 203 OFFCURVE",
"950 261 CURVE SMOOTH"
);
}
);
};
guideLines = (
{
angle = 90;
position = "{1060, 2}";
},
{
angle = 90;
position = "{853, 1}";
},
{
angle = 90;
position = "{1129, 2}";
},
{
angle = 90;
position = "{950, 249}";
},
{
position = "{970, 159}";
}
);
layerId = "034236B8-3FA8-43DA-9EDA-EFF269A687EC";
name = Light;
paths = (
{
closed = 1;
nodes = (
"946 365 OFFCURVE",
"855 417 OFFCURVE",
"747 417 CURVE SMOOTH",
"636 417 OFFCURVE",
"555 378 OFFCURVE",
"508 283 CURVE",
"461 377 OFFCURVE",
"384 417 OFFCURVE",
"272 417 CURVE SMOOTH",
"161 417 OFFCURVE",
"70 370 OFFCURVE",
"70 246 CURVE SMOOTH",
"70 209 OFFCURVE",
"78 175 OFFCURVE",
"94 144 CURVE",
"115 151 LINE",
"100 182 OFFCURVE",
"92 212 OFFCURVE",
"92 242 CURVE SMOOTH",
"92 346 OFFCURVE",
"172 392 OFFCURVE",
"276 392 CURVE SMOOTH",
"393 392 OFFCURVE",
"455 343 OFFCURVE",
"496 256 CURVE",
"520 256 LINE",
"561 344 OFFCURVE",
"627 392 OFFCURVE",
"744 392 CURVE SMOOTH",
"855 392 OFFCURVE",
"924 333 OFFCURVE",
"924 259 CURVE SMOOTH",
"924 209 OFFCURVE",
"906 193 OFFCURVE",
"885 169 CURVE SMOOTH",
"857 136 OFFCURVE",
"844 109 OFFCURVE",
"844 77 CURVE SMOOTH",
"844 20 OFFCURVE",
"885 -21 OFFCURVE",
"962 -21 CURVE SMOOTH",
"1034 -21 OFFCURVE",
"1072 20 OFFCURVE",
"1072 88 CURVE SMOOTH",
"1072 105 OFFCURVE",
"1070 121 OFFCURVE",
"1067 133 CURVE",
"1045 135 LINE",
"1048 120 OFFCURVE",
"1050 105 OFFCURVE",
"1050 88 CURVE SMOOTH",
"1050 34 OFFCURVE",
"1026 3 OFFCURVE",
"962 3 CURVE SMOOTH",
"894 3 OFFCURVE",
"866 34 OFFCURVE",
"866 77 CURVE SMOOTH",
"866 115 OFFCURVE",
"886 137 OFFCURVE",
"903 157 CURVE SMOOTH",
"925 183 OFFCURVE",
"946 203 OFFCURVE",
"946 261 CURVE SMOOTH"
);
}
);
width = 1097;
}
);
unicode = 0C8C;
},
{
glyphname = knvLL;
lastChange = "2015-10-15 22:03:08 +0000";
layers = (
{
background = {
paths = (
{
closed = 1;
nodes = (
"946 365 OFFCURVE",
"855 417 OFFCURVE",
"747 417 CURVE SMOOTH",
"636 417 OFFCURVE",
"555 378 OFFCURVE",
"508 283 CURVE",
"461 377 OFFCURVE",
"384 417 OFFCURVE",
"272 417 CURVE SMOOTH",
"161 417 OFFCURVE",
"70 370 OFFCURVE",
"70 246 CURVE SMOOTH",
"70 209 OFFCURVE",
"78 175 OFFCURVE",
"94 144 CURVE",
"115 151 LINE",
"100 182 OFFCURVE",
"92 212 OFFCURVE",
"92 242 CURVE SMOOTH",
"92 346 OFFCURVE",
"172 392 OFFCURVE",
"276 392 CURVE SMOOTH",
"393 392 OFFCURVE",
"455 343 OFFCURVE",
"496 256 CURVE",
"520 256 LINE",
"561 344 OFFCURVE",
"627 392 OFFCURVE",
"744 392 CURVE SMOOTH",
"855 392 OFFCURVE",
"924 333 OFFCURVE",
"924 259 CURVE SMOOTH",
"924 176 OFFCURVE",
"804 164 OFFCURVE",
"804 70 CURVE SMOOTH",
"804 16 OFFCURVE",
"843 -21 OFFCURVE",
"924 -21 CURVE SMOOTH",
"1048 -21 OFFCURVE",
"1094 57 OFFCURVE",
"1094 188 CURVE SMOOTH",
"1094 266 OFFCURVE",
"1082 341 OFFCURVE",
"1054 405 CURVE",
"1032 405 LINE",
"1032 404 LINE",
"1057 336 OFFCURVE",
"1072 266 OFFCURVE",
"1072 188 CURVE SMOOTH",
"1072 71 OFFCURVE",
"1041 3 OFFCURVE",
"924 3 CURVE SMOOTH",
"852 3 OFFCURVE",
"826 30 OFFCURVE",
"826 70 CURVE SMOOTH",
"826 152 OFFCURVE",
"946 160 OFFCURVE",
"946 261 CURVE SMOOTH"
);
},
{
closed = 1;
nodes = (
"1227 214 OFFCURVE",
"1173 172 OFFCURVE",
"1173 99 CURVE SMOOTH",
"1173 25 OFFCURVE",
"1227 -21 OFFCURVE",
"1329 -21 CURVE SMOOTH",
"1437 -21 OFFCURVE",
"1509 51 OFFCURVE",
"1509 175 CURVE SMOOTH",
"1509 319 OFFCURVE",
"1407 405 OFFCURVE",
"1190 405 CURVE SMOOTH",
"1045 405 LINE",
"1053 381 LINE",
"1192 381 LINE SMOOTH",
"1382 381 OFFCURVE",
"1485 308 OFFCURVE",
"1485 170 CURVE SMOOTH",
"1485 66 OFFCURVE",
"1425 4 OFFCURVE",
"1327 4 CURVE SMOOTH",
"1233 4 OFFCURVE",
"1195 44 OFFCURVE",
"1195 102 CURVE SMOOTH",
"1195 149 OFFCURVE",
"1222 185 OFFCURVE",
"1284 192 CURVE",
"1285 191 LINE",
"1282 185 OFFCURVE",
"1281 179 OFFCURVE",
"1281 174 CURVE SMOOTH",
"1281 151 OFFCURVE",
"1299 139 OFFCURVE",
"1327 139 CURVE SMOOTH",
"1358 139 OFFCURVE",
"1375 154 OFFCURVE",
"1375 174 CURVE SMOOTH",
"1375 202 OFFCURVE",
"1357 214 OFFCURVE",
"1310 214 CURVE SMOOTH"
);
}
);
};
guideLines = (
{
angle = 90;
position = "{1221, 102}";
},
{
position = "{833, 208}";
}
);
layerId = "034236B8-3FA8-43DA-9EDA-EFF269A687EC";
name = Light;
paths = (
{
closed = 1;
nodes = (
"946 357 OFFCURVE",
"866 417 OFFCURVE",
"741 417 CURVE SMOOTH",
"646 417 OFFCURVE",
"556 382 OFFCURVE",
"508 283 CURVE",
"462 376 OFFCURVE",
"383 417 OFFCURVE",
"275 417 CURVE SMOOTH",
"160 417 OFFCURVE",
"70 370 OFFCURVE",
"70 246 CURVE SMOOTH",
"70 209 OFFCURVE",
"78 175 OFFCURVE",
"94 144 CURVE",
"115 151 LINE",
"100 182 OFFCURVE",
"92 211 OFFCURVE",
"92 244 CURVE SMOOTH",
"92 346 OFFCURVE",
"171 392 OFFCURVE",
"279 392 CURVE SMOOTH",
"397 392 OFFCURVE",
"458 337 OFFCURVE",
"496 256 CURVE",
"520 256 LINE",
"559 342 OFFCURVE",
"629 392 OFFCURVE",
"738 392 CURVE SMOOTH",
"861 392 OFFCURVE",
"924 329 OFFCURVE",
"924 263 CURVE SMOOTH",
"924 171 OFFCURVE",
"804 166 OFFCURVE",
"804 70 CURVE SMOOTH",
"804 16 OFFCURVE",
"842 -21 OFFCURVE",
"930 -21 CURVE SMOOTH",
"1053 -21 OFFCURVE",
"1098 58 OFFCURVE",
"1098 194 CURVE SMOOTH",
"1098 264 OFFCURVE",
"1086 341 OFFCURVE",
"1058 405 CURVE",
"1036 405 LINE",
"1036 404 LINE",
"1061 336 OFFCURVE",
"1076 267 OFFCURVE",
"1076 187 CURVE SMOOTH",
"1076 72 OFFCURVE",
"1045 3 OFFCURVE",
"929 3 CURVE SMOOTH",
"852 3 OFFCURVE",
"826 30 OFFCURVE",
"826 70 CURVE SMOOTH",
"826 155 OFFCURVE",
"946 154 OFFCURVE",
"946 266 CURVE SMOOTH"
);
},
{
closed = 1;
nodes = (
"1229 214 OFFCURVE",
"1175 172 OFFCURVE",
"1175 99 CURVE SMOOTH",
"1175 25 OFFCURVE",
"1232 -21 OFFCURVE",
"1325 -21 CURVE SMOOTH",
"1441 -21 OFFCURVE",
"1511 51 OFFCURVE",
"1511 173 CURVE SMOOTH",
"1511 320 OFFCURVE",
"1409 405 OFFCURVE",
"1192 405 CURVE SMOOTH",
"1049 405 LINE",
"1057 383 LINE",
"1194 383 LINE SMOOTH",
"1384 383 OFFCURVE",
"1487 308 OFFCURVE",
"1487 170 CURVE SMOOTH",
"1487 66 OFFCURVE",
"1430 4 OFFCURVE",
"1324 4 CURVE SMOOTH",
"1238 4 OFFCURVE",
"1197 44 OFFCURVE",
"1197 102 CURVE SMOOTH",
"1197 149 OFFCURVE",
"1224 185 OFFCURVE",
"1286 192 CURVE",
"1287 191 LINE",
"1284 185 OFFCURVE",
"1283 179 OFFCURVE",
"1283 174 CURVE SMOOTH",
"1283 151 OFFCURVE",
"1301 139 OFFCURVE",
"1329 139 CURVE SMOOTH",
"1360 139 OFFCURVE",
"1377 153 OFFCURVE",
"1377 177 CURVE SMOOTH",
"1377 202 OFFCURVE",
"1357 214 OFFCURVE",
"1312 214 CURVE SMOOTH"
);
}
);
width = 1611;
}
);
unicode = 0CE1;
},
{
glyphname = knE;
lastChange = "2015-10-15 22:03:08 +0000";
layers = (
{
background = {
paths = (
{
closed = 1;
nodes = (
"836 -21 OFFCURVE",
"911 36 OFFCURVE",
"911 143 CURVE SMOOTH",
"911 325 OFFCURVE",
"701 401 OFFCURVE",
"291 401 CURVE",
"289 381 LINE",
"650 381 OFFCURVE",
"889 318 OFFCURVE",
"889 141 CURVE SMOOTH",
"889 52 OFFCURVE",
"818 4 OFFCURVE",
"721 4 CURVE SMOOTH",
"602 4 OFFCURVE",
"532 50 OFFCURVE",
"490 140 CURVE",
"466 140 LINE",
"428 52 OFFCURVE",
"361 4 OFFCURVE",
"251 4 CURVE SMOOTH",
"157 4 OFFCURVE",
"91 36 OFFCURVE",
"91 107 CURVE SMOOTH",
"91 175 OFFCURVE",
"149 206 OFFCURVE",
"232 206 CURVE SMOOTH",
"269 206 OFFCURVE",
"300 201 OFFCURVE",
"327 191 CURVE",
"332 212 LINE",
"313 221 OFFCURVE",
"276 228 OFFCURVE",
"230 228 CURVE SMOOTH",
"140 228 OFFCURVE",
"69 189 OFFCURVE",
"69 105 CURVE SMOOTH",
"69 19 OFFCURVE",
"143 -21 OFFCURVE",
"247 -21 CURVE SMOOTH",
"362 -21 OFFCURVE",
"435 23 OFFCURVE",
"478 113 CURVE",
"526 17 OFFCURVE",
"607 -21 OFFCURVE",
"725 -21 CURVE SMOOTH"
);
}
);
};
guideLines = (
{
angle = 90;
position = "{327, 191}";
},
{
angle = 90;
position = "{478, 113}";
},
{
angle = 90;
position = "{230, 228}";
}
);
layerId = "034236B8-3FA8-43DA-9EDA-EFF269A687EC";
name = Light;
paths = (
{
closed = 1;
nodes = (
"849 -21 OFFCURVE",
"927 36 OFFCURVE",
"927 144 CURVE SMOOTH",
"927 325 OFFCURVE",
"711 401 OFFCURVE",
"295 401 CURVE",
"293 381 LINE",
"657 381 OFFCURVE",
"905 318 OFFCURVE",
"905 144 CURVE SMOOTH",
"905 50 OFFCURVE",
"833 4 OFFCURVE",
"723 4 CURVE SMOOTH",
"608 4 OFFCURVE",
"538 54 OFFCURVE",
"498 140 CURVE",
"474 140 LINE",
"435 52 OFFCURVE",
"368 4 OFFCURVE",
"253 4 CURVE SMOOTH",
"159 4 OFFCURVE",
"91 36 OFFCURVE",
"91 108 CURVE SMOOTH",
"91 175 OFFCURVE",
"151 206 OFFCURVE",
"237 206 CURVE SMOOTH",
"272 206 OFFCURVE",
"304 201 OFFCURVE",
"332 191 CURVE",
"337 212 LINE",
"318 221 OFFCURVE",
"278 228 OFFCURVE",
"237 228 CURVE SMOOTH",
"139 228 OFFCURVE",
"69 189 OFFCURVE",
"69 105 CURVE SMOOTH",
"69 19 OFFCURVE",
"143 -21 OFFCURVE",
"252 -21 CURVE SMOOTH",
"367 -21 OFFCURVE",
"442 23 OFFCURVE",
"486 113 CURVE",
"532 20 OFFCURVE",
"616 -21 OFFCURVE",
"723 -21 CURVE SMOOTH"
);
}
);
width = 1007;
}
);
unicode = 0C8E;
},
{
glyphname = knEE;
lastChange = "2015-10-15 22:03:08 +0000";
layers = (
{
anchors = (
{
name = headline;
position = "{911, 381}";
},
{
name = teardrop;
position = "{491, 0}";
}
);
background = {
paths = (
{
closed = 1;
nodes = (
"610 325 OFFCURVE",
"553 285 OFFCURVE",
"472 285 CURVE SMOOTH",
"355 285 OFFCURVE",
"292 368 OFFCURVE",
"282 507 CURVE",
"304 511 LINE",
"314 382 OFFCURVE",
"368 310 OFFCURVE",
"472 310 CURVE SMOOTH",
"544 310 OFFCURVE",
"593 345 OFFCURVE",
"607 417 CURVE",
"799 392 OFFCURVE",
"911 319 OFFCURVE",
"911 167 CURVE SMOOTH",
"911 39 OFFCURVE",
"832 -21 OFFCURVE",
"709 -21 CURVE SMOOTH",
"613 -21 OFFCURVE",
"523 15 OFFCURVE",
"478 113 CURVE",
"435 23 OFFCURVE",
"361 -21 OFFCURVE",
"249 -21 CURVE SMOOTH",
"142 -21 OFFCURVE",
"69 19 OFFCURVE",
"69 105 CURVE SMOOTH",
"69 189 OFFCURVE",
"138 228 OFFCURVE",
"234 228 CURVE SMOOTH",
"274 228 OFFCURVE",
"313 221 OFFCURVE",
"332 212 CURVE",
"327 191 LINE",
"300 201 OFFCURVE",
"268 206 OFFCURVE",
"234 206 CURVE SMOOTH",
"149 206 OFFCURVE",
"91 175 OFFCURVE",
"91 108 CURVE SMOOTH",
"91 36 OFFCURVE",
"157 4 OFFCURVE",
"249 4 CURVE SMOOTH",
"362 4 OFFCURVE",
"428 52 OFFCURVE",
"466 140 CURVE",
"490 140 LINE",
"527 54 OFFCURVE",
"598 4 OFFCURVE",
"707 4 CURVE SMOOTH",
"811 4 OFFCURVE",
"889 50 OFFCURVE",
"889 169 CURVE SMOOTH",
"889 304 OFFCURVE",
"787 372 OFFCURVE",
"612 396 CURVE",
"625 404 LINE"
);
}
);
};
guideLines = (
{
angle = -7.30576;
position = "{611, 404}";
},
{
position = "{23, 298}";
},
{
position = "{481, 512}";
},
{
position = "{456, 468}";
}
);
layerId = "034236B8-3FA8-43DA-9EDA-EFF269A687EC";
name = Light;
paths = (
{
closed = 1;
nodes = (
"624 325 OFFCURVE",
"566 285 OFFCURVE",
"483 285 CURVE SMOOTH",
"363 285 OFFCURVE",
"298 368 OFFCURVE",
"288 507 CURVE",
"310 511 LINE",
"321 382 OFFCURVE",
"376 310 OFFCURVE",
"483 310 CURVE SMOOTH",
"557 310 OFFCURVE",
"607 345 OFFCURVE",
"622 417 CURVE",
"819 392 OFFCURVE",
"934 319 OFFCURVE",
"934 167 CURVE SMOOTH",
"934 39 OFFCURVE",
"853 -21 OFFCURVE",
"727 -21 CURVE SMOOTH",
"630 -21 OFFCURVE",
"537 15 OFFCURVE",
"491 113 CURVE",
"447 23 OFFCURVE",
"371 -21 OFFCURVE",
"255 -21 CURVE SMOOTH",
"144 -21 OFFCURVE",
"69 19 OFFCURVE",
"69 105 CURVE SMOOTH",
"69 189 OFFCURVE",
"140 228 OFFCURVE",
"238 228 CURVE SMOOTH",
"280 228 OFFCURVE",
"320 221 OFFCURVE",
"339 212 CURVE",
"334 191 LINE",
"306 201 OFFCURVE",
"273 206 OFFCURVE",
"238 206 CURVE SMOOTH",
"151 206 OFFCURVE",
"91 175 OFFCURVE",
"91 108 CURVE SMOOTH",
"91 36 OFFCURVE",
"159 4 OFFCURVE",
"255 4 CURVE SMOOTH",
"372 4 OFFCURVE",
"440 52 OFFCURVE",
"479 140 CURVE",
"503 140 LINE",
"541 54 OFFCURVE",
"614 4 OFFCURVE",
"725 4 CURVE SMOOTH",
"832 4 OFFCURVE",
"912 50 OFFCURVE",
"912 169 CURVE SMOOTH",
"912 304 OFFCURVE",
"807 372 OFFCURVE",
"627 397 CURVE",
"639 404 LINE"
);
}
);
width = 1014;
}
);
unicode = 0C8F;
},
{
glyphname = knAI;
lastChange = "2015-10-15 22:03:08 +0000";
layers = (
{
background = {
paths = (
{
closed = 1;
nodes = (
"665 417 OFFCURVE",
"591 376 OFFCURVE",
"543 291 CURVE",
"492 385 OFFCURVE",
"411 417 OFFCURVE",
"322 417 CURVE SMOOTH",
"225 417 OFFCURVE",
"148 379 OFFCURVE",
"112 296 CURVE",
"131 286 LINE",
"164 352 OFFCURVE",
"218 393 OFFCURVE",
"321 393 CURVE SMOOTH",
"426 393 OFFCURVE",
"489 350 OFFCURVE",
"532 266 CURVE",
"556 266 LINE",
"600 353 OFFCURVE",
"662 393 OFFCURVE",
"763 393 CURVE SMOOTH",
"882 393 OFFCURVE",
"970 337 OFFCURVE",
"970 194 CURVE SMOOTH",
"970 55 OFFCURVE",
"887 4 OFFCURVE",
"776 4 CURVE SMOOTH",
"675 4 OFFCURVE",
"599 47 OFFCURVE",
"556 140 CURVE",
"532 140 LINE",
"486 49 OFFCURVE",
"410 4 OFFCURVE",
"287 4 CURVE SMOOTH",
"184 4 OFFCURVE",
"112 35 OFFCURVE",
"112 106 CURVE SMOOTH",
"112 172 OFFCURVE",
"173 206 OFFCURVE",
"272 206 CURVE SMOOTH",
"306 206 OFFCURVE",
"342 202 OFFCURVE",
"372 192 CURVE",
"376 213 LINE",
"354 222 OFFCURVE",
"311 228 OFFCURVE",
"270 228 CURVE SMOOTH",
"164 228 OFFCURVE",
"90 186 OFFCURVE",
"90 104 CURVE SMOOTH",
"90 19 OFFCURVE",
"167 -21 OFFCURVE",
"287 -21 CURVE SMOOTH",
"405 -21 OFFCURVE",
"494 18 OFFCURVE",
"544 113 CURVE",
"591 15 OFFCURVE",
"682 -21 OFFCURVE",
"777 -21 CURVE SMOOTH",
"911 -21 OFFCURVE",
"992 51 OFFCURVE",
"992 193 CURVE SMOOTH",
"992 337 OFFCURVE",
"907 417 OFFCURVE",
"766 417 CURVE SMOOTH"
);
}
);
};
guideLines = (
{
angle = 90;
position = "{992, 188}";
},
{
angle = 90;
position = "{112, 106}";
},
{
angle = 90;
position = "{556, 140}";
},
{
angle = 90;
position = "{532, 140}";
},
{
angle = 90;
position = "{90, 104}";
},
{
position = "{532, 266}";
}
);
layerId = "034236B8-3FA8-43DA-9EDA-EFF269A687EC";
name = Light;
paths = (
{
closed = 1;
nodes = (
"664 417 OFFCURVE",
"588 378 OFFCURVE",
"541 291 CURVE",
"491 385 OFFCURVE",
"410 417 OFFCURVE",
"323 417 CURVE SMOOTH",
"226 417 OFFCURVE",
"147 373 OFFCURVE",
"110 276 CURVE",
"129 266 LINE",
"163 344 OFFCURVE",
"216 393 OFFCURVE",
"322 393 CURVE SMOOTH",
"425 393 OFFCURVE",
"488 350 OFFCURVE",
"530 266 CURVE",
"554 266 LINE",
"596 353 OFFCURVE",
"660 393 OFFCURVE",
"759 393 CURVE SMOOTH",
"880 393 OFFCURVE",
"968 337 OFFCURVE",
"968 194 CURVE SMOOTH",
"968 55 OFFCURVE",
"885 4 OFFCURVE",
"774 4 CURVE SMOOTH",
"673 4 OFFCURVE",
"597 47 OFFCURVE",
"554 140 CURVE",
"530 140 LINE",
"484 49 OFFCURVE",
"408 4 OFFCURVE",
"285 4 CURVE SMOOTH",
"182 4 OFFCURVE",
"110 35 OFFCURVE",
"110 106 CURVE SMOOTH",
"110 172 OFFCURVE",
"171 206 OFFCURVE",
"270 206 CURVE SMOOTH",
"304 206 OFFCURVE",
"340 202 OFFCURVE",
"370 192 CURVE",
"374 213 LINE",
"352 222 OFFCURVE",
"309 228 OFFCURVE",
"268 228 CURVE SMOOTH",
"162 228 OFFCURVE",
"88 186 OFFCURVE",
"88 104 CURVE SMOOTH",
"88 19 OFFCURVE",
"165 -21 OFFCURVE",
"285 -21 CURVE SMOOTH",
"403 -21 OFFCURVE",
"492 18 OFFCURVE",
"542 113 CURVE",
"589 15 OFFCURVE",
"680 -21 OFFCURVE",
"775 -21 CURVE SMOOTH",
"909 -21 OFFCURVE",
"990 51 OFFCURVE",
"990 193 CURVE SMOOTH",
"990 337 OFFCURVE",
"905 417 OFFCURVE",
"762 417 CURVE SMOOTH"
);
}
);
width = 1087;
}
);
unicode = 0C90;
},
{
glyphname = knO;
lastChange = "2015-10-19 16:34:03 +0000";
layers = (
{
anchors = (
{
name = dot;
position = "{523, 246}";
},
{
name = headline;
position = "{986, 381}";
},
{
name = knmU;
position = "{973, -21}";
},
{
name = teardrop;
position = "{523, 0}";
}
);
background = {
paths = (
{
closed = 1;
nodes = (
"389 -21 OFFCURVE",
"472 15 OFFCURVE",
"523 112 CURVE",
"561 18 OFFCURVE",
"646 -21 OFFCURVE",
"761 -21 CURVE SMOOTH",
"898 -21 OFFCURVE",
"986 35 OFFCURVE",
"986 163 CURVE SMOOTH",
"986 204 OFFCURVE",
"977 238 OFFCURVE",
"959 271 CURVE",
"938 264 LINE",
"954 235 OFFCURVE",
"964 203 OFFCURVE",
"964 165 CURVE SMOOTH",
"964 52 OFFCURVE",
"884 4 OFFCURVE",
"758 4 CURVE SMOOTH",
"636 4 OFFCURVE",
"570 48 OFFCURVE",
"535 140 CURVE",
"511 140 LINE",
"462 43 OFFCURVE",
"394 4 OFFCURVE",
"276 4 CURVE SMOOTH",
"169 4 OFFCURVE",
"94 31 OFFCURVE",
"94 100 CURVE SMOOTH",
"94 169 OFFCURVE",
"157 181 OFFCURVE",
"251 204 CURVE SMOOTH",
"340 226 OFFCURVE",
"379 260 OFFCURVE",
"379 315 CURVE SMOOTH",
"379 374 OFFCURVE",
"342 417 OFFCURVE",
"253 417 CURVE SMOOTH",
"173 417 OFFCURVE",
"119 379 OFFCURVE",
"119 309 CURVE SMOOTH",
"119 295 OFFCURVE",
"121 282 OFFCURVE",
"124 271 CURVE",
"147 269 LINE",
"143 282 OFFCURVE",
"141 295 OFFCURVE",
"141 309 CURVE SMOOTH",
"141 365 OFFCURVE",
"182 393 OFFCURVE",
"253 393 CURVE SMOOTH",
"330 393 OFFCURVE",
"357 363 OFFCURVE",
"357 318 CURVE SMOOTH",
"357 261 OFFCURVE",
"308 241 OFFCURVE",
"231 222 CURVE SMOOTH",
"141 200 OFFCURVE",
"72 181 OFFCURVE",
"72 101 CURVE SMOOTH",
"72 10 OFFCURVE",
"161 -21 OFFCURVE",
"273 -21 CURVE SMOOTH"
);
}
);
};
layerId = "034236B8-3FA8-43DA-9EDA-EFF269A687EC";
name = Light;
paths = (
{
closed = 1;
nodes = (
"389 -21 OFFCURVE",
"472 15 OFFCURVE",
"523 112 CURVE",
"571 17 OFFCURVE",
"655 -21 OFFCURVE",
"766 -21 CURVE SMOOTH",
"898 -21 OFFCURVE",
"986 41 OFFCURVE",
"986 161 CURVE SMOOTH",
"986 204 OFFCURVE",
"977 238 OFFCURVE",
"959 271 CURVE",
"938 264 LINE",
"954 235 OFFCURVE",
"964 203 OFFCURVE",
"964 162 CURVE SMOOTH",
"964 56 OFFCURVE",
"884 4 OFFCURVE",
"763 4 CURVE SMOOTH",
"645 4 OFFCURVE",
"578 48 OFFCURVE",
"535 140 CURVE",
"511 140 LINE",
"463 43 OFFCURVE",
"394 4 OFFCURVE",
"276 4 CURVE SMOOTH",
"169 4 OFFCURVE",
"94 31 OFFCURVE",
"94 100 CURVE SMOOTH",
"94 169 OFFCURVE",
"157 181 OFFCURVE",
"251 204 CURVE SMOOTH",
"340 226 OFFCURVE",
"379 260 OFFCURVE",
"379 315 CURVE SMOOTH",
"379 374 OFFCURVE",
"342 417 OFFCURVE",
"253 417 CURVE SMOOTH",
"173 417 OFFCURVE",
"119 379 OFFCURVE",
"119 309 CURVE SMOOTH",
"119 295 OFFCURVE",
"121 282 OFFCURVE",
"124 271 CURVE",
"147 269 LINE",
"143 282 OFFCURVE",
"141 295 OFFCURVE",
"141 309 CURVE SMOOTH",
"141 365 OFFCURVE",
"182 393 OFFCURVE",
"253 393 CURVE SMOOTH",
"330 393 OFFCURVE",
"357 363 OFFCURVE",
"357 318 CURVE SMOOTH",
"357 261 OFFCURVE",
"308 241 OFFCURVE",
"231 222 CURVE SMOOTH",
"141 200 OFFCURVE",
"72 181 OFFCURVE",
"72 101 CURVE SMOOTH",
"72 10 OFFCURVE",
"161 -21 OFFCURVE",
"273 -21 CURVE SMOOTH"
);
}
);
width = 1066;
},
{
anchors = (
{
name = dot;
position = "{523, 246}";
},
{
name = headline;
position = "{986, 381}";
},
{
name = knmU;
position = "{973, -21}";
},
{
name = teardrop;
position = "{523, 0}";
}
);
associatedMasterId = "034236B8-3FA8-43DA-9EDA-EFF269A687EC";
background = {
paths = (
{
closed = 1;
nodes = (
"389 -21 OFFCURVE",
"472 15 OFFCURVE",
"523 112 CURVE",
"561 18 OFFCURVE",
"646 -21 OFFCURVE",
"761 -21 CURVE SMOOTH",
"898 -21 OFFCURVE",
"986 35 OFFCURVE",
"986 163 CURVE SMOOTH",
"986 204 OFFCURVE",
"977 238 OFFCURVE",
"959 271 CURVE",
"938 264 LINE",
"954 235 OFFCURVE",
"964 203 OFFCURVE",
"964 165 CURVE SMOOTH",
"964 52 OFFCURVE",
"884 4 OFFCURVE",
"758 4 CURVE SMOOTH",
"636 4 OFFCURVE",
"570 48 OFFCURVE",
"535 140 CURVE",
"511 140 LINE",
"462 43 OFFCURVE",
"394 4 OFFCURVE",
"276 4 CURVE SMOOTH",
"169 4 OFFCURVE",
"94 31 OFFCURVE",
"94 100 CURVE SMOOTH",
"94 169 OFFCURVE",
"157 181 OFFCURVE",
"251 204 CURVE SMOOTH",
"340 226 OFFCURVE",
"379 260 OFFCURVE",
"379 315 CURVE SMOOTH",
"379 374 OFFCURVE",
"342 417 OFFCURVE",
"253 417 CURVE SMOOTH",
"173 417 OFFCURVE",
"119 379 OFFCURVE",
"119 309 CURVE SMOOTH",
"119 295 OFFCURVE",
"121 282 OFFCURVE",
"124 271 CURVE",
"147 269 LINE",
"143 282 OFFCURVE",
"141 295 OFFCURVE",
"141 309 CURVE SMOOTH",
"141 365 OFFCURVE",
"182 393 OFFCURVE",
"253 393 CURVE SMOOTH",
"330 393 OFFCURVE",
"357 363 OFFCURVE",
"357 318 CURVE SMOOTH",
"357 261 OFFCURVE",
"308 241 OFFCURVE",
"231 222 CURVE SMOOTH",
"141 200 OFFCURVE",
"72 181 OFFCURVE",
"72 101 CURVE SMOOTH",
"72 10 OFFCURVE",
"161 -21 OFFCURVE",
"273 -21 CURVE SMOOTH"
);
}
);
};
layerId = "04E2EB99-DE4E-4C67-B100-DB9C6DFA439B";
name = Short;
paths = (
{
closed = 1;
nodes = (
"389 -21 OFFCURVE",
"472 15 OFFCURVE",
"523 112 CURVE",
"571 17 OFFCURVE",
"655 -21 OFFCURVE",
"766 -21 CURVE SMOOTH",
"898 -21 OFFCURVE",
"986 41 OFFCURVE",
"986 162 CURVE SMOOTH",
"986 164 OFFCURVE",
"986 166 OFFCURVE",
"986 167 CURVE",
"964 167 LINE",
"964 166 OFFCURVE",
"964 164 OFFCURVE",
"964 162 CURVE SMOOTH",
"964 56 OFFCURVE",
"884 4 OFFCURVE",
"763 4 CURVE SMOOTH",
"645 4 OFFCURVE",
"578 48 OFFCURVE",
"535 140 CURVE",
"511 140 LINE",
"463 43 OFFCURVE",
"394 4 OFFCURVE",
"276 4 CURVE SMOOTH",
"169 4 OFFCURVE",
"94 31 OFFCURVE",
"94 100 CURVE SMOOTH",
"94 169 OFFCURVE",
"157 181 OFFCURVE",
"251 204 CURVE SMOOTH",
"340 226 OFFCURVE",
"379 260 OFFCURVE",
"379 315 CURVE SMOOTH",
"379 374 OFFCURVE",
"342 417 OFFCURVE",
"253 417 CURVE SMOOTH",
"173 417 OFFCURVE",
"119 379 OFFCURVE",
"119 309 CURVE SMOOTH",
"119 295 OFFCURVE",
"121 282 OFFCURVE",
"124 271 CURVE",
"147 269 LINE",
"143 282 OFFCURVE",
"141 295 OFFCURVE",
"141 309 CURVE SMOOTH",
"141 365 OFFCURVE",
"182 393 OFFCURVE",
"253 393 CURVE SMOOTH",
"330 393 OFFCURVE",
"357 363 OFFCURVE",
"357 318 CURVE SMOOTH",
"357 261 OFFCURVE",
"308 241 OFFCURVE",
"231 222 CURVE SMOOTH",
"141 200 OFFCURVE",
"72 181 OFFCURVE",
"72 101 CURVE SMOOTH",
"72 10 OFFCURVE",
"161 -21 OFFCURVE",
"273 -21 CURVE SMOOTH"
);
}
);
width = 1066;
}
);
leftMetricsKey = knBA.base;
unicode = 0C92;
},
{
glyphname = knOO;
lastChange = "2015-10-19 16:34:03 +0000";
layers = (
{
background = {
components = (
{
name = knO;
}
);
guideLines = (
{
angle = 90;
position = "{262, 417}";
}
);
paths = (
{
closed = 1;
nodes = (
"262 417 LINE",
"236 417 OFFCURVE",
"189 429 OFFCURVE",
"189 478 CURVE SMOOTH",
"189 522 OFFCURVE",
"227 537 OFFCURVE",
"274 537 CURVE SMOOTH",
"291 537 OFFCURVE",
"313 535 OFFCURVE",
"334 528 CURVE",
"338 550 LINE",
"318 557 OFFCURVE",
"295 560 OFFCURVE",
"274 560 CURVE SMOOTH",
"207 560 OFFCURVE",
"167 531 OFFCURVE",
"167 482 CURVE SMOOTH",
"167 433 OFFCURVE",
"198 405 OFFCURVE",
"262 402 CURVE"
);
}
);
};
components = (
{
name = knO;
}
);
guideLines = (
{
angle = 90;
position = "{353, 320}";
},
{
angle = 90;
position = "{254, 417}";
},
{
angle = 90;
position = "{126, 315}";
},
{
angle = 90;
position = "{137, 315}";
}
);
layerId = "034236B8-3FA8-43DA-9EDA-EFF269A687EC";
name = Light;
paths = (
{
closed = 1;
nodes = (
"254 402 LINE",
"254 417 LINE",
"233 417 LINE SMOOTH",
"204 417 OFFCURVE",
"148 429 OFFCURVE",
"148 479 CURVE SMOOTH",
"148 524 OFFCURVE",
"192 540 OFFCURVE",
"252 540 CURVE SMOOTH",
"267 540 OFFCURVE",
"298 539 OFFCURVE",
"326 531 CURVE",
"330 553 LINE",
"304 560 OFFCURVE",
"273 563 OFFCURVE",
"248 563 CURVE SMOOTH",
"171 563 OFFCURVE",
"126 533 OFFCURVE",
"126 480 CURVE SMOOTH",
"126 431 OFFCURVE",
"164 402 OFFCURVE",
"233 402 CURVE SMOOTH"
);
}
);
width = 1066;
}
);
leftMetricsKey = knBA.base;
rightMetricsKey = knO;
unicode = 0C93;
},
{
glyphname = knAU;
lastChange = "2015-10-19 16:34:03 +0000";
layers = (
{
background = {
paths = (
{
closed = 1;
nodes = (
"126 548 LINE",
"126 526 LINE",
"635 526 LINE SMOOTH",
"791 526 OFFCURVE",
"872 471 OFFCURVE",
"872 359 CURVE SMOOTH",
"872 272 OFFCURVE",
"812 222 OFFCURVE",
"712 222 CURVE SMOOTH",
"630 222 OFFCURVE",
"596 255 OFFCURVE",
"596 301 CURVE SMOOTH",
"596 339 OFFCURVE",
"619 367 OFFCURVE",
"677 373 CURVE",
"678 372 LINE",
"675 366 OFFCURVE",
"674 360 OFFCURVE",
"674 355 CURVE SMOOTH",
"674 332 OFFCURVE",
"692 320 OFFCURVE",
"720 320 CURVE SMOOTH",
"751 320 OFFCURVE",
"768 335 OFFCURVE",
"768 355 CURVE SMOOTH",
"768 383 OFFCURVE",
"750 395 OFFCURVE",
"703 395 CURVE SMOOTH",
"624 395 OFFCURVE",
"574 360 OFFCURVE",
"574 298 CURVE SMOOTH",
"574 237 OFFCURVE",
"623 197 OFFCURVE",
"713 197 CURVE SMOOTH",
"824 197 OFFCURVE",
"894 257 OFFCURVE",
"894 363 CURVE SMOOTH",
"894 481 OFFCURVE",
"805 548 OFFCURVE",
"633 548 CURVE SMOOTH"
);
},
{
closed = 1;
nodes = (
"351 538 LINE",
"359 525 OFFCURVE",
"365 506 OFFCURVE",
"365 486 CURVE SMOOTH",
"365 437 OFFCURVE",
"335 417 OFFCURVE",
"254 417 CURVE",
"261 395 LINE",
"348 395 OFFCURVE",
"387 426 OFFCURVE",
"387 483 CURVE SMOOTH",
"387 505 OFFCURVE",
"381 524 OFFCURVE",
"371 538 CURVE"
);
}
);
};
components = (
{
name = knO;
}
);
layerId = "034236B8-3FA8-43DA-9EDA-EFF269A687EC";
name = Light;
paths = (
{
closed = 1;
nodes = (
"126 548 LINE",
"126 526 LINE",
"635 526 LINE SMOOTH",
"791 526 OFFCURVE",
"872 471 OFFCURVE",
"872 359 CURVE SMOOTH",
"872 272 OFFCURVE",
"812 222 OFFCURVE",
"712 222 CURVE SMOOTH",
"630 222 OFFCURVE",
"596 255 OFFCURVE",
"596 301 CURVE SMOOTH",
"596 339 OFFCURVE",
"619 367 OFFCURVE",
"677 373 CURVE",
"678 372 LINE",
"675 366 OFFCURVE",
"674 360 OFFCURVE",
"674 355 CURVE SMOOTH",
"674 332 OFFCURVE",
"692 320 OFFCURVE",
"720 320 CURVE SMOOTH",
"751 320 OFFCURVE",
"768 335 OFFCURVE",
"768 355 CURVE SMOOTH",
"768 383 OFFCURVE",
"750 395 OFFCURVE",
"703 395 CURVE SMOOTH",
"624 395 OFFCURVE",
"574 360 OFFCURVE",
"574 298 CURVE SMOOTH",
"574 237 OFFCURVE",
"623 197 OFFCURVE",
"713 197 CURVE SMOOTH",
"824 197 OFFCURVE",
"894 257 OFFCURVE",
"894 363 CURVE SMOOTH",
"894 481 OFFCURVE",
"805 548 OFFCURVE",
"633 548 CURVE SMOOTH"
);
},
{
closed = 1;
nodes = (
"351 538 LINE",
"359 525 OFFCURVE",
"365 506 OFFCURVE",
"365 486 CURVE SMOOTH",
"365 437 OFFCURVE",
"335 417 OFFCURVE",
"254 417 CURVE",
"261 395 LINE",
"348 395 OFFCURVE",
"387 426 OFFCURVE",
"387 483 CURVE SMOOTH",
"387 505 OFFCURVE",
"381 524 OFFCURVE",
"371 538 CURVE"
);
}
);
width = 1092;
}
);
leftMetricsKey = knBA.base;
unicode = 0C94;
},
{
glyphname = knmAA;
lastChange = "2015-10-15 22:03:08 +0000";
layers = (
{
background = {
guideLines = (
{
position = "{315, 250}";
},
{
position = "{333, 52}";
},
{
angle = 90;
position = "{194, 155}";
},
{
angle = 257.074;
position = "{411, 268}";
}
);
paths = (
{
closed = 0;
nodes = (
"339 76 LINE",
"266 76 OFFCURVE",
"216 100 OFFCURVE",
"216 154 CURVE SMOOTH",
"216 203 OFFCURVE",
"260 226 OFFCURVE",
"324 226 CURVE SMOOTH",
"352 226 OFFCURVE",
"377 222 OFFCURVE",
"399 215 CURVE",
"404 239 LINE",
"388 245 OFFCURVE",
"359 250 OFFCURVE",
"322 250 CURVE SMOOTH",
"250 250 OFFCURVE",
"194 219 OFFCURVE",
"194 152 CURVE SMOOTH",
"194 84 OFFCURVE",
"253 52 OFFCURVE",
"336 52 CURVE"
);
}
);
};
components = (
{
name = _part.knmAA;
}
);
guideLines = (
{
position = "{315, 250}";
},
{
position = "{333, 52}";
},
{
angle = 90;
position = "{194, 155}";
}
);
layerId = "034236B8-3FA8-43DA-9EDA-EFF269A687EC";
name = Light;
width = 670;
}
);
rightMetricsKey = _part.knmAA;
unicode = 0CBE;
},
{
glyphname = knmI;
lastChange = "2015-10-15 22:03:08 +0000";
layers = (
{
background = {
paths = (
{
closed = 1;
nodes = (
"230 360 OFFCURVE",
"198 290 OFFCURVE",
"74 290 CURVE",
"74 266 LINE",
"209 266 OFFCURVE",
"250 350 OFFCURVE",
"250 420 CURVE SMOOTH",
"250 498 OFFCURVE",
"197 555 OFFCURVE",
"110 555 CURVE SMOOTH",
"47 555 OFFCURVE",
"0 525 OFFCURVE",
"0 473 CURVE SMOOTH",
"0 419 OFFCURVE",
"51 391 OFFCURVE",
"119 391 CURVE SMOOTH",
"158 391 OFFCURVE",
"210 400 OFFCURVE",
"242 420 CURVE",
"236 438 LINE",
"208 424 OFFCURVE",
"159 415 OFFCURVE",
"120 415 CURVE SMOOTH",
"61 415 OFFCURVE",
"22 436 OFFCURVE",
"22 474 CURVE SMOOTH",
"22 513 OFFCURVE",
"61 531 OFFCURVE",
"109 531 CURVE SMOOTH",
"173 531 OFFCURVE",
"230 498 OFFCURVE",
"230 419 CURVE SMOOTH"
);
}
);
};
guideLines = (
{
angle = -40.1894;
position = "{183, 336}";
showMeasurement = 1;
}
);
layerId = "034236B8-3FA8-43DA-9EDA-EFF269A687EC";
name = Light;
paths = (
{
closed = 1;
nodes = (
"224 353 OFFCURVE",
"189 290 OFFCURVE",
"74 290 CURVE",
"74 266 LINE",
"199 266 OFFCURVE",
"244 341 OFFCURVE",
"244 420 CURVE SMOOTH",
"244 498 OFFCURVE",
"192 555 OFFCURVE",
"107 555 CURVE SMOOTH",
"46 555 OFFCURVE",
"0 525 OFFCURVE",
"0 473 CURVE SMOOTH",
"0 419 OFFCURVE",
"50 391 OFFCURVE",
"116 391 CURVE SMOOTH",
"154 391 OFFCURVE",
"205 400 OFFCURVE",
"236 420 CURVE",
"230 438 LINE",
"203 424 OFFCURVE",
"155 415 OFFCURVE",
"117 415 CURVE SMOOTH",
"60 415 OFFCURVE",
"22 436 OFFCURVE",
"22 474 CURVE SMOOTH",
"22 513 OFFCURVE",
"60 531 OFFCURVE",
"106 531 CURVE SMOOTH",
"168 531 OFFCURVE",
"224 498 OFFCURVE",
"224 419 CURVE SMOOTH"
);
}
);
width = 0;
},
{
associatedMasterId = "034236B8-3FA8-43DA-9EDA-EFF269A687EC";
layerId = "60343B02-7708-4724-9EDB-6EC27977734D";
name = "Light Oct 15 15, 12:59";
paths = (
{
closed = 1;
nodes = (
"230 360 OFFCURVE",
"198 290 OFFCURVE",
"74 290 CURVE",
"74 266 LINE",
"209 266 OFFCURVE",
"250 350 OFFCURVE",
"250 420 CURVE SMOOTH",
"250 498 OFFCURVE",
"197 555 OFFCURVE",
"110 555 CURVE SMOOTH",
"47 555 OFFCURVE",
"0 525 OFFCURVE",
"0 473 CURVE SMOOTH",
"0 419 OFFCURVE",
"51 391 OFFCURVE",
"119 391 CURVE SMOOTH",
"158 391 OFFCURVE",
"210 400 OFFCURVE",
"242 420 CURVE",
"236 438 LINE",
"208 424 OFFCURVE",
"159 415 OFFCURVE",
"120 415 CURVE SMOOTH",
"61 415 OFFCURVE",
"22 436 OFFCURVE",
"22 474 CURVE SMOOTH",
"22 513 OFFCURVE",
"61 531 OFFCURVE",
"109 531 CURVE SMOOTH",
"173 531 OFFCURVE",
"230 498 OFFCURVE",
"230 419 CURVE SMOOTH"
);
}
);
width = 0;
}
);
unicode = 0CBF;
},
{
glyphname = knmII;
lastChange = "2015-10-19 16:34:03 +0000";
layers = (
{
background = {
guideLines = (
{
angle = 90;
position = "{294, 374}";
}
);
paths = (
{
closed = 1;
nodes = (
"46 555 OFFCURVE",
"0 525 OFFCURVE",
"0 473 CURVE SMOOTH",
"0 419 OFFCURVE",
"50 391 OFFCURVE",
"116 391 CURVE SMOOTH",
"149 391 OFFCURVE",
"193 398 OFFCURVE",
"224 413 CURVE",
"222 349 OFFCURVE",
"186 290 OFFCURVE",
"74 290 CURVE",
"74 266 LINE",
"199 266 OFFCURVE",
"244 341 OFFCURVE",
"244 420 CURVE SMOOTH",
"244 498 OFFCURVE",
"192 555 OFFCURVE",
"107 555 CURVE SMOOTH"
);
},
{
closed = 1;
nodes = (
"22 513 OFFCURVE",
"60 531 OFFCURVE",
"106 531 CURVE SMOOTH",
"164 531 OFFCURVE",
"216 502 OFFCURVE",
"223 435 CURVE",
"195 423 OFFCURVE",
"152 415 OFFCURVE",
"117 415 CURVE SMOOTH",
"60 415 OFFCURVE",
"22 436 OFFCURVE",
"22 474 CURVE SMOOTH"
);
},
{
closed = 1;
nodes = (
"541 226 OFFCURVE",
"600 262 OFFCURVE",
"600 325 CURVE SMOOTH",
"600 384 OFFCURVE",
"545 417 OFFCURVE",
"475 417 CURVE SMOOTH",
"400 417 OFFCURVE",
"309 373 OFFCURVE",
"309 238 CURVE SMOOTH",
"309 99 OFFCURVE",
"400 23 OFFCURVE",
"529 -5 CURVE",
"536 19 LINE",
"409 46 OFFCURVE",
"331 116 OFFCURVE",
"329 237 CURVE",
"329 244 OFFCURVE",
"329 250 OFFCURVE",
"330 256 CURVE",
"369 235 OFFCURVE",
"420 226 OFFCURVE",
"462 226 CURVE SMOOTH"
);
},
{
closed = 1;
nodes = (
"532 393 OFFCURVE",
"578 371 OFFCURVE",
"578 325 CURVE SMOOTH",
"578 275 OFFCURVE",
"530 250 OFFCURVE",
"462 250 CURVE SMOOTH",
"417 250 OFFCURVE",
"366 260 OFFCURVE",
"332 278 CURVE",
"347 365 OFFCURVE",
"414 393 OFFCURVE",
"474 393 CURVE SMOOTH"
);
}
);
};
components = (
{
name = knLengthmark;
transform = "{1, 0, 0, 1, 254, 0}";
},
{
name = knmI;
}
);
guideLines = (
{
angle = 90;
position = "{308, 277}";
}
);
layerId = "034236B8-3FA8-43DA-9EDA-EFF269A687EC";
name = Light;
paths = (
{
closed = 0;
nodes = (
"67 -64 LINE"
);
}
);
width = 610;
},
{
associatedMasterId = "034236B8-3FA8-43DA-9EDA-EFF269A687EC";
background = {
paths = (
{
closed = 1;
nodes = (
"316 346 OFFCURVE",
"394 393 OFFCURVE",
"482 393 CURVE SMOOTH",
"549 393 OFFCURVE",
"604 367 OFFCURVE",
"604 313 CURVE SMOOTH",
"604 259 OFFCURVE",
"546 233 OFFCURVE",
"468 233 CURVE SMOOTH",
"412 233 OFFCURVE",
"348 246 OFFCURVE",
"310 265 CURVE",
"301 248 LINE",
"346 222 OFFCURVE",
"415 209 OFFCURVE",
"468 209 CURVE SMOOTH",
"557 209 OFFCURVE",
"626 246 OFFCURVE",
"626 313 CURVE SMOOTH",
"626 380 OFFCURVE",
"559 417 OFFCURVE",
"480 417 CURVE SMOOTH",
"386 417 OFFCURVE",
"294 362 OFFCURVE",
"294 234 CURVE SMOOTH",
"294 101 OFFCURVE",
"393 22 OFFCURVE",
"532 -5 CURVE",
"539 19 LINE",
"402 45 OFFCURVE",
"316 117 OFFCURVE",
"316 233 CURVE SMOOTH"
);
},
{
closed = 1;
nodes = (
"224 353 OFFCURVE",
"189 290 OFFCURVE",
"74 290 CURVE",
"74 266 LINE",
"199 266 OFFCURVE",
"244 341 OFFCURVE",
"244 420 CURVE SMOOTH",
"244 498 OFFCURVE",
"192 555 OFFCURVE",
"107 555 CURVE SMOOTH",
"46 555 OFFCURVE",
"0 525 OFFCURVE",
"0 473 CURVE SMOOTH",
"0 419 OFFCURVE",
"50 391 OFFCURVE",
"116 391 CURVE SMOOTH",
"154 391 OFFCURVE",
"205 400 OFFCURVE",
"236 420 CURVE",
"230 438 LINE",
"203 424 OFFCURVE",
"155 415 OFFCURVE",
"117 415 CURVE SMOOTH",
"60 415 OFFCURVE",
"22 436 OFFCURVE",
"22 474 CURVE SMOOTH",
"22 513 OFFCURVE",
"60 531 OFFCURVE",
"106 531 CURVE SMOOTH",
"168 531 OFFCURVE",
"224 498 OFFCURVE",
"224 419 CURVE SMOOTH"
);
}
);
};
layerId = "B38A4AF6-0EF0-4CBC-A72F-46F501ED3F3D";
name = "Light Oct 15 15, 13:17";
paths = (
{
closed = 1;
nodes = (
"313 357 OFFCURVE",
"386 393 OFFCURVE",
"459 393 CURVE SMOOTH",
"518 393 OFFCURVE",
"567 371 OFFCURVE",
"567 325 CURVE SMOOTH",
"567 278 OFFCURVE",
"516 255 OFFCURVE",
"447 255 CURVE SMOOTH",
"398 255 OFFCURVE",
"342 267 OFFCURVE",
"308 283 CURVE",
"300 265 LINE",
"340 242 OFFCURVE",
"400 231 OFFCURVE",
"447 231 CURVE SMOOTH",
"527 231 OFFCURVE",
"589 265 OFFCURVE",
"589 325 CURVE SMOOTH",
"589 384 OFFCURVE",
"529 417 OFFCURVE",
"458 417 CURVE SMOOTH",
"379 417 OFFCURVE",
"294 373 OFFCURVE",
"294 246 CURVE SMOOTH",
"294 107 OFFCURVE",
"385 23 OFFCURVE",
"514 -5 CURVE",
"521 19 LINE",
"394 46 OFFCURVE",
"316 124 OFFCURVE",
"316 245 CURVE SMOOTH"
);
},
{
closed = 1;
nodes = (
"224 353 OFFCURVE",
"189 290 OFFCURVE",
"74 290 CURVE",
"74 266 LINE",
"199 266 OFFCURVE",
"244 341 OFFCURVE",
"244 420 CURVE SMOOTH",
"244 498 OFFCURVE",
"192 555 OFFCURVE",
"107 555 CURVE SMOOTH",
"46 555 OFFCURVE",
"0 525 OFFCURVE",
"0 473 CURVE SMOOTH",
"0 419 OFFCURVE",
"50 391 OFFCURVE",
"116 391 CURVE SMOOTH",
"154 391 OFFCURVE",
"205 400 OFFCURVE",
"236 420 CURVE",
"230 438 LINE",
"203 424 OFFCURVE",
"155 415 OFFCURVE",
"117 415 CURVE SMOOTH",
"60 415 OFFCURVE",
"22 436 OFFCURVE",
"22 474 CURVE SMOOTH",
"22 513 OFFCURVE",
"60 531 OFFCURVE",
"106 531 CURVE SMOOTH",
"168 531 OFFCURVE",
"224 498 OFFCURVE",
"224 419 CURVE SMOOTH"
);
}
);
width = 731;
}
);
rightMetricsKey = knLengthmark;
unicode = 0CC0;
},
{
glyphname = knmU;
lastChange = "2015-10-15 22:03:08 +0000";
layers = (
{
background = {
paths = (
{
closed = 1;
nodes = (
"-99 131 LINE",
"-52 32 OFFCURVE",
"43 -21 OFFCURVE",
"171 -21 CURVE SMOOTH",
"314 -21 OFFCURVE",
"404 61 OFFCURVE",
"404 190 CURVE SMOOTH",
"404 296 OFFCURVE",
"348 373 OFFCURVE",
"226 403 CURVE",
"220 384 LINE",
"314 360 OFFCURVE",
"382 303 OFFCURVE",
"382 193 CURVE SMOOTH",
"382 77 OFFCURVE",
"305 4 OFFCURVE",
"172 4 CURVE SMOOTH",
"46 4 OFFCURVE",
"-40 56 OFFCURVE",
"-87 151 CURVE"
);
}
);
};
components = (
{
name = _part.knmU;
}
);
guideLines = (
{
angle = 58.3087;
position = "{-85, 154}";
},
{
position = "{85, 154}";
}
);
layerId = "034236B8-3FA8-43DA-9EDA-EFF269A687EC";
name = Light;
width = 396;
}
);
rightMetricsKey = _part.knmU;
unicode = 0CC1;
},
{
glyphname = knmUU;
lastChange = "2015-10-15 22:03:08 +0000";
layers = (
{
background = {
paths = (
{
closed = 1;
nodes = (
"-14 155 LINE",
"-14 58 OFFCURVE",
"25 -9 OFFCURVE",
"124 -9 CURVE SMOOTH",
"220 -9 OFFCURVE",
"272 57 OFFCURVE",
"272 143 CURVE SMOOTH",
"272 232 OFFCURVE",
"254 273 OFFCURVE",
"254 358 CURVE SMOOTH",
"254 447 OFFCURVE",
"310 503 OFFCURVE",
"391 503 CURVE SMOOTH",
"513 503 OFFCURVE",
"584 397 OFFCURVE",
"584 259 CURVE SMOOTH",
"584 177 OFFCURVE",
"558 43 OFFCURVE",
"460 43 CURVE SMOOTH",
"410 43 OFFCURVE",
"379 79 OFFCURVE",
"379 128 CURVE SMOOTH",
"380 183 OFFCURVE",
"417 211 OFFCURVE",
"466 211 CURVE SMOOTH",
"481 211 OFFCURVE",
"497 208 OFFCURVE",
"514 203 CURVE",
"514 256 LINE",
"495 261 OFFCURVE",
"476 264 OFFCURVE",
"458 264 CURVE SMOOTH",
"382 264 OFFCURVE",
"317 217 OFFCURVE",
"316 127 CURVE SMOOTH",
"316 52 OFFCURVE",
"374 -9 OFFCURVE",
"456 -9 CURVE SMOOTH",
"582 -9 OFFCURVE",
"638 119 OFFCURVE",
"638 260 CURVE SMOOTH",
"638 419 OFFCURVE",
"555 556 OFFCURVE",
"391 556 CURVE SMOOTH",
"274 556 OFFCURVE",
"192 476 OFFCURVE",
"192 364 CURVE SMOOTH",
"192 282 OFFCURVE",
"211 220 OFFCURVE",
"211 145 CURVE SMOOTH",
"211 81 OFFCURVE",
"175 43 OFFCURVE",
"120 43 CURVE SMOOTH",
"64 43 OFFCURVE",
"31 79 OFFCURVE",
"31 155 CURVE"
);
}
);
};
components = (
{
name = _part.knmUU;
transform = "{1, 0, 0, 1, -11, 0}";
}
);
guideLines = (
{
angle = 90;
position = "{-65, 111}";
}
);
layerId = "034236B8-3FA8-43DA-9EDA-EFF269A687EC";
name = Light;
width = 710;
}
);
leftMetricsKey = knmUU;
rightMetricsKey = _part.knmUU;
unicode = 0CC2;
},
{
glyphname = knmvR;
lastChange = "2015-10-19 16:21:21 +0000";
layers = (
{
background = {
paths = (
{
closed = 1;
nodes = (
"-2 -354 OFFCURVE",
"65 -288 OFFCURVE",
"65 -160 CURVE SMOOTH",
"65 -107 OFFCURVE",
"52 -37 OFFCURVE",
"26 24 CURVE",
"1 26 LINE",
"1 25 LINE",
"27 -29 OFFCURVE",
"43 -103 OFFCURVE",
"43 -161 CURVE SMOOTH",
"43 -275 OFFCURVE",
"-13 -329 OFFCURVE",
"-117 -329 CURVE SMOOTH",
"-206 -329 OFFCURVE",
"-254 -293 OFFCURVE",
"-254 -234 CURVE SMOOTH",
"-254 -177 OFFCURVE",
"-213 -144 OFFCURVE",
"-145 -144 CURVE SMOOTH",
"-105 -144 OFFCURVE",
"-83 -155 OFFCURVE",
"-83 -184 CURVE SMOOTH",
"-83 -212 OFFCURVE",
"-105 -225 OFFCURVE",
"-148 -225 CURVE SMOOTH",
"-189 -225 OFFCURVE",
"-225 -213 OFFCURVE",
"-251 -192 CURVE",
"-262 -211 LINE",
"-226 -239 OFFCURVE",
"-184 -249 OFFCURVE",
"-149 -249 CURVE SMOOTH",
"-98 -249 OFFCURVE",
"-62 -228 OFFCURVE",
"-62 -183 CURVE SMOOTH",
"-62 -139 OFFCURVE",
"-98 -120 OFFCURVE",
"-147 -120 CURVE SMOOTH",
"-221 -120 OFFCURVE",
"-274 -164 OFFCURVE",
"-274 -235 CURVE SMOOTH",
"-274 -309 OFFCURVE",
"-212 -354 OFFCURVE",
"-117 -354 CURVE SMOOTH"
);
}
);
};
layerId = "034236B8-3FA8-43DA-9EDA-EFF269A687EC";
name = Light;
paths = (
{
closed = 1;
nodes = (
"-12 -354 OFFCURVE",
"55 -288 OFFCURVE",
"55 -160 CURVE SMOOTH",
"55 -107 OFFCURVE",
"42 -37 OFFCURVE",
"16 24 CURVE",
"-9 26 LINE",
"-9 25 LINE",
"17 -29 OFFCURVE",
"33 -103 OFFCURVE",
"33 -161 CURVE SMOOTH",
"33 -275 OFFCURVE",
"-23 -329 OFFCURVE",
"-127 -329 CURVE SMOOTH",
"-216 -329 OFFCURVE",
"-264 -293 OFFCURVE",
"-264 -234 CURVE SMOOTH",
"-264 -177 OFFCURVE",
"-223 -144 OFFCURVE",
"-155 -144 CURVE SMOOTH",
"-115 -144 OFFCURVE",
"-93 -155 OFFCURVE",
"-93 -184 CURVE SMOOTH",
"-93 -212 OFFCURVE",
"-115 -225 OFFCURVE",
"-158 -225 CURVE SMOOTH",
"-199 -225 OFFCURVE",
"-235 -213 OFFCURVE",
"-261 -192 CURVE",
"-272 -211 LINE",
"-236 -239 OFFCURVE",
"-194 -249 OFFCURVE",
"-159 -249 CURVE SMOOTH",
"-108 -249 OFFCURVE",
"-72 -228 OFFCURVE",
"-72 -183 CURVE SMOOTH",
"-72 -139 OFFCURVE",
"-108 -120 OFFCURVE",
"-157 -120 CURVE SMOOTH",
"-231 -120 OFFCURVE",
"-284 -164 OFFCURVE",
"-284 -235 CURVE SMOOTH",
"-284 -309 OFFCURVE",
"-222 -354 OFFCURVE",
"-127 -354 CURVE SMOOTH"
);
}
);
width = 20;
},
{
associatedMasterId = "034236B8-3FA8-43DA-9EDA-EFF269A687EC";
background = {
paths = (
{
closed = 1;
nodes = (
"13 -353 OFFCURVE",
"78 -287 OFFCURVE",
"78 -161 CURVE SMOOTH",
"78 -107 OFFCURVE",
"65 -40 OFFCURVE",
"40 24 CURVE",
"16 26 LINE",
"16 25 LINE",
"40 -35 OFFCURVE",
"57 -98 OFFCURVE",
"57 -163 CURVE SMOOTH",
"57 -273 OFFCURVE",
"5 -330 OFFCURVE",
"-99 -330 CURVE SMOOTH",
"-190 -330 OFFCURVE",
"-238 -293 OFFCURVE",
"-238 -235 CURVE SMOOTH",
"-238 -178 OFFCURVE",
"-196 -145 OFFCURVE",
"-130 -145 CURVE SMOOTH",
"-90 -145 OFFCURVE",
"-70 -157 OFFCURVE",
"-70 -184 CURVE SMOOTH",
"-70 -210 OFFCURVE",
"-90 -223 OFFCURVE",
"-132 -223 CURVE SMOOTH",
"-172 -223 OFFCURVE",
"-208 -211 OFFCURVE",
"-230 -193 CURVE",
"-241 -211 LINE",
"-209 -236 OFFCURVE",
"-167 -246 OFFCURVE",
"-133 -246 CURVE SMOOTH",
"-83 -246 OFFCURVE",
"-49 -225 OFFCURVE",
"-49 -183 CURVE SMOOTH",
"-49 -141 OFFCURVE",
"-83 -122 OFFCURVE",
"-131 -122 CURVE SMOOTH",
"-204 -122 OFFCURVE",
"-257 -165 OFFCURVE",
"-257 -236 CURVE SMOOTH",
"-257 -309 OFFCURVE",
"-197 -353 OFFCURVE",
"-99 -353 CURVE SMOOTH"
);
}
);
};
layerId = "D0C3A5F5-632A-4710-A169-7414E4F64027";
name = "Light Sep 28 15, 10:13";
paths = (
{
closed = 1;
nodes = (
"13 -353 OFFCURVE",
"78 -287 OFFCURVE",
"78 -161 CURVE SMOOTH",
"78 -107 OFFCURVE",
"65 -40 OFFCURVE",
"40 24 CURVE",
"16 26 LINE",
"16 25 LINE",
"40 -35 OFFCURVE",
"57 -98 OFFCURVE",
"57 -163 CURVE SMOOTH",
"57 -273 OFFCURVE",
"5 -330 OFFCURVE",
"-99 -330 CURVE SMOOTH",
"-190 -330 OFFCURVE",
"-238 -293 OFFCURVE",
"-238 -235 CURVE SMOOTH",
"-238 -178 OFFCURVE",
"-196 -145 OFFCURVE",
"-130 -145 CURVE SMOOTH",
"-90 -145 OFFCURVE",
"-70 -157 OFFCURVE",
"-70 -184 CURVE SMOOTH",
"-70 -210 OFFCURVE",
"-90 -223 OFFCURVE",
"-132 -223 CURVE SMOOTH",
"-172 -223 OFFCURVE",
"-208 -211 OFFCURVE",
"-230 -193 CURVE",
"-241 -211 LINE",
"-209 -236 OFFCURVE",
"-167 -246 OFFCURVE",
"-133 -246 CURVE SMOOTH",
"-83 -246 OFFCURVE",
"-49 -225 OFFCURVE",
"-49 -183 CURVE SMOOTH",
"-49 -141 OFFCURVE",
"-83 -122 OFFCURVE",
"-131 -122 CURVE SMOOTH",
"-204 -122 OFFCURVE",
"-257 -165 OFFCURVE",
"-257 -236 CURVE SMOOTH",
"-257 -309 OFFCURVE",
"-197 -353 OFFCURVE",
"-99 -353 CURVE SMOOTH"
);
}
);
width = 45;
}
);
unicode = 0CC3;
},
{
glyphname = knmvRR;
lastChange = "2015-10-19 16:23:40 +0000";
layers = (
{
background = {
guideLines = (
{
angle = 90;
position = "{-102, -363}";
}
);
paths = (
{
closed = 1;
nodes = (
"363 -320 OFFCURVE",
"426 -268 OFFCURVE",
"426 -174 CURVE SMOOTH",
"426 -43 OFFCURVE",
"331 26 OFFCURVE",
"150 26 CURVE SMOOTH",
"11 26 LINE",
"24 4 LINE",
"152 4 LINE SMOOTH",
"313 4 OFFCURVE",
"404 -54 OFFCURVE",
"404 -177 CURVE SMOOTH",
"404 -253 OFFCURVE",
"355 -295 OFFCURVE",
"274 -295 CURVE SMOOTH",
"196 -295 OFFCURVE",
"161 -263 OFFCURVE",
"161 -220 CURVE SMOOTH",
"161 -181 OFFCURVE",
"183 -157 OFFCURVE",
"225 -151 CURVE",
"224 -156 OFFCURVE",
"224 -157 OFFCURVE",
"224 -160 CURVE SMOOTH",
"224 -179 OFFCURVE",
"242 -192 OFFCURVE",
"271 -192 CURVE SMOOTH",
"300 -192 OFFCURVE",
"318 -179 OFFCURVE",
"318 -160 CURVE SMOOTH",
"318 -139 OFFCURVE",
"303 -127 OFFCURVE",
"262 -127 CURVE SMOOTH",
"187 -127 OFFCURVE",
"139 -160 OFFCURVE",
"139 -222 CURVE SMOOTH",
"139 -280 OFFCURVE",
"189 -320 OFFCURVE",
"275 -320 CURVE SMOOTH"
);
}
);
};
components = (
{
name = knmvR;
transform = "{1, 0, 0, 1, -6, 0}";
}
);
guideLines = (
{
position = "{26, -122}";
},
{
angle = 90;
position = "{150, -220}";
},
{
position = "{38, -330}";
},
{
position = "{21, -236}";
}
);
layerId = "034236B8-3FA8-43DA-9EDA-EFF269A687EC";
name = Light;
paths = (
{
closed = 1;
nodes = (
"359 -320 OFFCURVE",
"422 -268 OFFCURVE",
"422 -174 CURVE SMOOTH",
"422 -43 OFFCURVE",
"327 26 OFFCURVE",
"141 26 CURVE SMOOTH",
"5 26 LINE",
"18 4 LINE",
"146 4 LINE SMOOTH",
"309 4 OFFCURVE",
"400 -54 OFFCURVE",
"400 -177 CURVE SMOOTH",
"400 -253 OFFCURVE",
"351 -295 OFFCURVE",
"270 -295 CURVE SMOOTH",
"192 -295 OFFCURVE",
"157 -263 OFFCURVE",
"157 -220 CURVE SMOOTH",
"157 -181 OFFCURVE",
"179 -157 OFFCURVE",
"221 -151 CURVE",
"220 -156 OFFCURVE",
"220 -157 OFFCURVE",
"220 -160 CURVE SMOOTH",
"220 -179 OFFCURVE",
"238 -192 OFFCURVE",
"267 -192 CURVE SMOOTH",
"296 -192 OFFCURVE",
"314 -179 OFFCURVE",
"314 -160 CURVE SMOOTH",
"314 -139 OFFCURVE",
"299 -127 OFFCURVE",
"258 -127 CURVE SMOOTH",
"183 -127 OFFCURVE",
"135 -160 OFFCURVE",
"135 -222 CURVE SMOOTH",
"135 -280 OFFCURVE",
"185 -320 OFFCURVE",
"271 -320 CURVE SMOOTH"
);
}
);
width = 327;
},
{
associatedMasterId = "034236B8-3FA8-43DA-9EDA-EFF269A687EC";
background = {
guideLines = (
{
angle = 90;
position = "{-100, -363}";
}
);
paths = (
{
closed = 1;
nodes = (
"285 -179 OFFCURVE",
"299 -169 OFFCURVE",
"299 -154 CURVE SMOOTH",
"299 -139 OFFCURVE",
"285 -129 OFFCURVE",
"266 -129 CURVE SMOOTH",
"247 -129 OFFCURVE",
"233 -139 OFFCURVE",
"233 -154 CURVE SMOOTH",
"233 -169 OFFCURVE",
"247 -179 OFFCURVE",
"266 -179 CURVE SMOOTH"
);
}
);
};
components = (
{
name = knmvR;
}
);
guideLines = (
{
position = "{28, -122}";
},
{
angle = 90;
position = "{-100, -363}";
},
{
position = "{40, -330}";
},
{
position = "{23, -236}";
}
);
layerId = "D821D022-E154-4C16-BC2F-813ACD85CF89";
name = "Light Oct 14 15, 16:22";
paths = (
{
closed = 1;
nodes = (
"367 -318 OFFCURVE",
"427 -267 OFFCURVE",
"427 -174 CURVE SMOOTH",
"427 -43 OFFCURVE",
"333 26 OFFCURVE",
"152 26 CURVE SMOOTH",
"13 26 LINE",
"26 4 LINE",
"154 4 LINE SMOOTH",
"315 4 OFFCURVE",
"406 -54 OFFCURVE",
"406 -177 CURVE SMOOTH",
"406 -253 OFFCURVE",
"357 -295 OFFCURVE",
"276 -295 CURVE SMOOTH",
"198 -295 OFFCURVE",
"163 -263 OFFCURVE",
"163 -220 CURVE SMOOTH",
"163 -178 OFFCURVE",
"188 -154 OFFCURVE",
"237 -150 CURVE",
"234 -155 OFFCURVE",
"233 -160 OFFCURVE",
"233 -165 CURVE SMOOTH",
"233 -185 OFFCURVE",
"248 -196 OFFCURVE",
"274 -196 CURVE SMOOTH",
"301 -196 OFFCURVE",
"316 -183 OFFCURVE",
"316 -162 CURVE SMOOTH",
"316 -138 OFFCURVE",
"298 -128 OFFCURVE",
"260 -128 CURVE SMOOTH",
"187 -128 OFFCURVE",
"142 -160 OFFCURVE",
"142 -222 CURVE SMOOTH",
"142 -279 OFFCURVE",
"191 -318 OFFCURVE",
"277 -318 CURVE SMOOTH"
);
}
);
width = 357;
}
);
unicode = 0CC4;
},
{
glyphname = knmvL;
lastChange = "2015-10-19 16:15:51 +0000";
layers = (
{
background = {
paths = (
{
closed = 1;
nodes = (
"115 -328 OFFCURVE",
"143 -357 OFFCURVE",
"195 -357 CURVE SMOOTH",
"243 -357 OFFCURVE",
"271 -327 OFFCURVE",
"271 -284 CURVE SMOOTH",
"271 -273 OFFCURVE",
"270 -263 OFFCURVE",
"268 -255 CURVE",
"247 -254 LINE",
"249 -264 OFFCURVE",
"250 -273 OFFCURVE",
"250 -284 CURVE SMOOTH",
"250 -312 OFFCURVE",
"238 -333 OFFCURVE",
"195 -333 CURVE SMOOTH",
"154 -333 OFFCURVE",
"136 -314 OFFCURVE",
"136 -291 CURVE SMOOTH",
"136 -267 OFFCURVE",
"149 -253 OFFCURVE",
"160 -240 CURVE SMOOTH",
"173 -224 OFFCURVE",
"187 -211 OFFCURVE",
"187 -174 CURVE SMOOTH",
"187 -113 OFFCURVE",
"134 -75 OFFCURVE",
"70 -75 CURVE SMOOTH",
"2 -75 OFFCURVE",
"-52 -102 OFFCURVE",
"-81 -160 CURVE",
"-114 -102 OFFCURVE",
"-163 -75 OFFCURVE",
"-228 -75 CURVE SMOOTH",
"-294 -75 OFFCURVE",
"-350 -110 OFFCURVE",
"-350 -184 CURVE SMOOTH",
"-350 -207 OFFCURVE",
"-346 -229 OFFCURVE",
"-334 -255 CURVE",
"-314 -247 LINE",
"-322 -232 OFFCURVE",
"-329 -210 OFFCURVE",
"-329 -186 CURVE SMOOTH",
"-329 -130 OFFCURVE",
"-289 -98 OFFCURVE",
"-228 -98 CURVE SMOOTH",
"-162 -98 OFFCURVE",
"-124 -124 OFFCURVE",
"-93 -184 CURVE",
"-70 -184 LINE",
"-43 -125 OFFCURVE",
"0 -98 OFFCURVE",
"68 -98 CURVE SMOOTH",
"125 -98 OFFCURVE",
"166 -129 OFFCURVE",
"166 -175 CURVE SMOOTH",
"166 -198 OFFCURVE",
"162 -208 OFFCURVE",
"145 -227 CURVE SMOOTH",
"123 -252 OFFCURVE",
"115 -269 OFFCURVE",
"115 -291 CURVE SMOOTH"
);
}
);
};
layerId = "034236B8-3FA8-43DA-9EDA-EFF269A687EC";
name = Light;
paths = (
{
closed = 1;
nodes = (
"121 -328 OFFCURVE",
"146 -360 OFFCURVE",
"198 -360 CURVE SMOOTH",
"246 -360 OFFCURVE",
"274 -327 OFFCURVE",
"274 -287 CURVE SMOOTH",
"274 -273 OFFCURVE",
"273 -263 OFFCURVE",
"271 -255 CURVE",
"250 -254 LINE",
"252 -264 OFFCURVE",
"253 -273 OFFCURVE",
"253 -287 CURVE SMOOTH",
"253 -312 OFFCURVE",
"241 -336 OFFCURVE",
"198 -336 CURVE SMOOTH",
"157 -336 OFFCURVE",
"142 -314 OFFCURVE",
"142 -291 CURVE SMOOTH",
"142 -242 OFFCURVE",
"186 -239 OFFCURVE",
"186 -174 CURVE SMOOTH",
"186 -113 OFFCURVE",
"134 -75 OFFCURVE",
"70 -75 CURVE SMOOTH",
"2 -75 OFFCURVE",
"-52 -102 OFFCURVE",
"-81 -160 CURVE",
"-114 -102 OFFCURVE",
"-163 -75 OFFCURVE",
"-228 -75 CURVE SMOOTH",
"-294 -75 OFFCURVE",
"-350 -110 OFFCURVE",
"-350 -184 CURVE SMOOTH",
"-350 -207 OFFCURVE",
"-346 -229 OFFCURVE",
"-334 -255 CURVE",
"-314 -247 LINE",
"-322 -232 OFFCURVE",
"-329 -210 OFFCURVE",
"-329 -186 CURVE SMOOTH",
"-329 -130 OFFCURVE",
"-289 -98 OFFCURVE",
"-228 -98 CURVE SMOOTH",
"-162 -98 OFFCURVE",
"-124 -124 OFFCURVE",
"-93 -184 CURVE",
"-70 -184 LINE",
"-43 -125 OFFCURVE",
"0 -98 OFFCURVE",
"68 -98 CURVE SMOOTH",
"125 -98 OFFCURVE",
"166 -129 OFFCURVE",
"166 -176 CURVE SMOOTH",
"166 -232 OFFCURVE",
"121 -234 OFFCURVE",
"121 -293 CURVE SMOOTH"
);
}
);
width = 0;
}
);
unicode = 0CE2;
},
{
glyphname = knmvLL;
lastChange = "2015-10-19 16:15:03 +0000";
layers = (
{
background = {
paths = (
{
closed = 1;
nodes = (
"166 -235 OFFCURVE",
"92 -232 OFFCURVE",
"92 -294 CURVE SMOOTH",
"92 -330 OFFCURVE",
"118 -353 OFFCURVE",
"172 -353 CURVE SMOOTH",
"250 -353 OFFCURVE",
"284 -304 OFFCURVE",
"284 -217 CURVE SMOOTH",
"284 -172 OFFCURVE",
"271 -123 OFFCURVE",
"256 -83 CURVE",
"236 -83 LINE",
"251 -127 OFFCURVE",
"264 -171 OFFCURVE",
"264 -219 CURVE SMOOTH",
"264 -292 OFFCURVE",
"240 -330 OFFCURVE",
"172 -330 CURVE SMOOTH",
"130 -330 OFFCURVE",
"112 -316 OFFCURVE",
"112 -293 CURVE SMOOTH",
"112 -246 OFFCURVE",
"187 -247 OFFCURVE",
"187 -173 CURVE SMOOTH",
"187 -113 OFFCURVE",
"134 -75 OFFCURVE",
"70 -75 CURVE SMOOTH",
"2 -75 OFFCURVE",
"-52 -102 OFFCURVE",
"-81 -160 CURVE",
"-114 -102 OFFCURVE",
"-163 -75 OFFCURVE",
"-228 -75 CURVE SMOOTH",
"-294 -75 OFFCURVE",
"-350 -110 OFFCURVE",
"-350 -184 CURVE SMOOTH",
"-350 -207 OFFCURVE",
"-346 -229 OFFCURVE",
"-334 -255 CURVE",
"-314 -247 LINE",
"-322 -232 OFFCURVE",
"-329 -210 OFFCURVE",
"-329 -186 CURVE SMOOTH",
"-329 -130 OFFCURVE",
"-289 -98 OFFCURVE",
"-228 -98 CURVE SMOOTH",
"-162 -98 OFFCURVE",
"-124 -124 OFFCURVE",
"-93 -184 CURVE",
"-70 -184 LINE",
"-43 -125 OFFCURVE",
"0 -98 OFFCURVE",
"68 -98 CURVE SMOOTH",
"125 -98 OFFCURVE",
"166 -129 OFFCURVE",
"166 -176 CURVE SMOOTH"
);
},
{
closed = 1;
nodes = (
"368 -201 OFFCURVE",
"329 -226 OFFCURVE",
"329 -276 CURVE SMOOTH",
"329 -324 OFFCURVE",
"366 -353 OFFCURVE",
"426 -353 CURVE SMOOTH",
"501 -353 OFFCURVE",
"545 -308 OFFCURVE",
"545 -231 CURVE SMOOTH",
"545 -137 OFFCURVE",
"473 -83 OFFCURVE",
"331 -83 CURVE SMOOTH",
"248 -83 LINE",
"253 -103 LINE",
"335 -103 LINE SMOOTH",
"455 -103 OFFCURVE",
"525 -147 OFFCURVE",
"525 -232 CURVE SMOOTH",
"525 -294 OFFCURVE",
"491 -330 OFFCURVE",
"425 -330 CURVE SMOOTH",
"374 -330 OFFCURVE",
"349 -308 OFFCURVE",
"349 -275 CURVE SMOOTH",
"349 -248 OFFCURVE",
"365 -228 OFFCURVE",
"393 -222 CURVE",
"392 -226 OFFCURVE",
"392 -228 OFFCURVE",
"392 -230 CURVE SMOOTH",
"392 -243 OFFCURVE",
"405 -253 OFFCURVE",
"430 -253 CURVE SMOOTH",
"454 -253 OFFCURVE",
"466 -242 OFFCURVE",
"466 -228 CURVE SMOOTH",
"466 -212 OFFCURVE",
"454 -201 OFFCURVE",
"423 -201 CURVE SMOOTH"
);
}
);
};
guideLines = (
{
angle = 130.417;
position = "{131, -227}";
showMeasurement = 1;
},
{
angle = 90;
position = "{-81, -160}";
},
{
position = "{183, -330}";
},
{
angle = 90;
position = "{340, -275}";
}
);
layerId = "034236B8-3FA8-43DA-9EDA-EFF269A687EC";
name = Light;
paths = (
{
closed = 1;
nodes = (
"166 -235 OFFCURVE",
"92 -232 OFFCURVE",
"92 -294 CURVE SMOOTH",
"92 -330 OFFCURVE",
"118 -356 OFFCURVE",
"172 -356 CURVE SMOOTH",
"250 -356 OFFCURVE",
"284 -304 OFFCURVE",
"284 -217 CURVE SMOOTH",
"284 -172 OFFCURVE",
"271 -123 OFFCURVE",
"256 -83 CURVE",
"236 -83 LINE",
"251 -127 OFFCURVE",
"264 -171 OFFCURVE",
"264 -219 CURVE SMOOTH",
"264 -292 OFFCURVE",
"240 -333 OFFCURVE",
"172 -333 CURVE SMOOTH",
"130 -333 OFFCURVE",
"112 -316 OFFCURVE",
"112 -293 CURVE SMOOTH",
"112 -246 OFFCURVE",
"186 -247 OFFCURVE",
"186 -173 CURVE SMOOTH",
"186 -113 OFFCURVE",
"134 -75 OFFCURVE",
"70 -75 CURVE SMOOTH",
"2 -75 OFFCURVE",
"-52 -102 OFFCURVE",
"-81 -160 CURVE",
"-114 -102 OFFCURVE",
"-163 -75 OFFCURVE",
"-228 -75 CURVE SMOOTH",
"-294 -75 OFFCURVE",
"-350 -110 OFFCURVE",
"-350 -184 CURVE SMOOTH",
"-350 -207 OFFCURVE",
"-346 -229 OFFCURVE",
"-334 -255 CURVE",
"-314 -247 LINE",
"-322 -232 OFFCURVE",
"-329 -210 OFFCURVE",
"-329 -186 CURVE SMOOTH",
"-329 -130 OFFCURVE",
"-289 -98 OFFCURVE",
"-228 -98 CURVE SMOOTH",
"-162 -98 OFFCURVE",
"-124 -124 OFFCURVE",
"-93 -184 CURVE",
"-70 -184 LINE",
"-43 -125 OFFCURVE",
"0 -98 OFFCURVE",
"68 -98 CURVE SMOOTH",
"125 -98 OFFCURVE",
"166 -129 OFFCURVE",
"166 -176 CURVE SMOOTH"
);
},
{
closed = 1;
nodes = (
"368 -201 OFFCURVE",
"329 -226 OFFCURVE",
"329 -276 CURVE SMOOTH",
"329 -324 OFFCURVE",
"366 -353 OFFCURVE",
"426 -353 CURVE SMOOTH",
"501 -353 OFFCURVE",
"545 -308 OFFCURVE",
"545 -231 CURVE SMOOTH",
"545 -137 OFFCURVE",
"473 -83 OFFCURVE",
"331 -83 CURVE SMOOTH",
"248 -83 LINE",
"253 -103 LINE",
"335 -103 LINE SMOOTH",
"455 -103 OFFCURVE",
"525 -147 OFFCURVE",
"525 -232 CURVE SMOOTH",
"525 -294 OFFCURVE",
"491 -330 OFFCURVE",
"425 -330 CURVE SMOOTH",
"374 -330 OFFCURVE",
"349 -308 OFFCURVE",
"349 -275 CURVE SMOOTH",
"349 -248 OFFCURVE",
"365 -228 OFFCURVE",
"393 -222 CURVE",
"392 -226 OFFCURVE",
"392 -228 OFFCURVE",
"392 -230 CURVE SMOOTH",
"392 -243 OFFCURVE",
"405 -253 OFFCURVE",
"430 -253 CURVE SMOOTH",
"454 -253 OFFCURVE",
"466 -242 OFFCURVE",
"466 -228 CURVE SMOOTH",
"466 -212 OFFCURVE",
"454 -201 OFFCURVE",
"423 -201 CURVE SMOOTH"
);
}
);
width = 100;
},
{
associatedMasterId = "034236B8-3FA8-43DA-9EDA-EFF269A687EC";
background = {
paths = (
{
closed = 1;
nodes = (
"499 -353 OFFCURVE",
"547 -313 OFFCURVE",
"547 -239 CURVE SMOOTH",
"547 -136 OFFCURVE",
"473 -81 OFFCURVE",
"329 -81 CURVE SMOOTH",
"219 -81 LINE",
"230 -98 LINE",
"331 -98 LINE SMOOTH",
"458 -98 OFFCURVE",
"530 -144 OFFCURVE",
"530 -242 CURVE SMOOTH",
"530 -302 OFFCURVE",
"492 -335 OFFCURVE",
"427 -335 CURVE SMOOTH",
"366 -335 OFFCURVE",
"338 -310 OFFCURVE",
"338 -276 CURVE SMOOTH",
"338 -245 OFFCURVE",
"355 -226 OFFCURVE",
"389 -221 CURVE",
"388 -225 OFFCURVE",
"388 -226 OFFCURVE",
"388 -228 CURVE SMOOTH",
"388 -243 OFFCURVE",
"402 -253 OFFCURVE",
"425 -253 CURVE SMOOTH",
"448 -253 OFFCURVE",
"462 -243 OFFCURVE",
"462 -228 CURVE SMOOTH",
"462 -211 OFFCURVE",
"450 -202 OFFCURVE",
"418 -202 CURVE SMOOTH",
"359 -202 OFFCURVE",
"321 -228 OFFCURVE",
"321 -277 CURVE SMOOTH",
"321 -322 OFFCURVE",
"360 -353 OFFCURVE",
"428 -353 CURVE SMOOTH"
);
}
);
};
guideLines = (
{
angle = 130.417;
position = "{131, -227}";
showMeasurement = 1;
},
{
angle = 90;
position = "{-81, -160}";
},
{
position = "{183, -330}";
},
{
position = "{348, -103}";
}
);
layerId = "24AEC979-520A-4242-A458-4E8CAFAAA7C7";
name = "Light Oct 14 15, 16:29";
paths = (
{
closed = 1;
nodes = (
"-336 -256 CURVE",
"-316 -248 LINE",
"-327 -225 OFFCURVE",
"-334 -207 OFFCURVE",
"-334 -184 CURVE SMOOTH",
"-334 -129 OFFCURVE",
"-294 -98 OFFCURVE",
"-224 -98 CURVE SMOOTH",
"-159 -98 OFFCURVE",
"-119 -125 OFFCURVE",
"-92 -184 CURVE",
"-68 -184 LINE",
"-45 -127 OFFCURVE",
"-1 -98 OFFCURVE",
"63 -98 CURVE SMOOTH",
"128 -98 OFFCURVE",
"173 -128 OFFCURVE",
"173 -175 CURVE SMOOTH",
"173 -235 OFFCURVE",
"98 -232 OFFCURVE",
"98 -294 CURVE SMOOTH",
"98 -330 OFFCURVE",
"124 -353 OFFCURVE",
"178 -353 CURVE SMOOTH",
"256 -353 OFFCURVE",
"285 -304 OFFCURVE",
"285 -217 CURVE SMOOTH",
"285 -172 OFFCURVE",
"277 -123 OFFCURVE",
"262 -83 CURVE",
"242 -83 LINE",
"257 -127 OFFCURVE",
"265 -171 OFFCURVE",
"265 -219 CURVE SMOOTH",
"265 -292 OFFCURVE",
"246 -330 OFFCURVE",
"178 -330 CURVE SMOOTH",
"136 -330 OFFCURVE",
"118 -316 OFFCURVE",
"118 -293 CURVE SMOOTH",
"118 -246 OFFCURVE",
"193 -247 OFFCURVE",
"193 -173 CURVE SMOOTH",
"193 -112 OFFCURVE",
"143 -75 OFFCURVE",
"65 -75 CURVE SMOOTH",
"6 -75 OFFCURVE",
"-51 -97 OFFCURVE",
"-81 -160 CURVE",
"-109 -101 OFFCURVE",
"-159 -75 OFFCURVE",
"-226 -75 CURVE SMOOTH",
"-298 -75 OFFCURVE",
"-354 -106 OFFCURVE",
"-354 -181 CURVE SMOOTH",
"-354 -204 OFFCURVE",
"-349 -226 OFFCURVE"
);
},
{
closed = 1;
nodes = (
"369 -201 OFFCURVE",
"330 -227 OFFCURVE",
"330 -276 CURVE SMOOTH",
"330 -324 OFFCURVE",
"367 -353 OFFCURVE",
"427 -353 CURVE SMOOTH",
"502 -353 OFFCURVE",
"546 -308 OFFCURVE",
"546 -231 CURVE SMOOTH",
"546 -136 OFFCURVE",
"478 -83 OFFCURVE",
"341 -83 CURVE SMOOTH",
"254 -83 LINE",
"259 -103 LINE",
"342 -103 LINE SMOOTH",
"460 -103 OFFCURVE",
"526 -147 OFFCURVE",
"526 -232 CURVE SMOOTH",
"526 -294 OFFCURVE",
"492 -330 OFFCURVE",
"426 -330 CURVE SMOOTH",
"375 -330 OFFCURVE",
"350 -308 OFFCURVE",
"350 -275 CURVE SMOOTH",
"350 -245 OFFCURVE",
"370 -224 OFFCURVE",
"404 -220 CURVE",
"399 -218 LINE",
"403 -222 LINE",
"400 -226 OFFCURVE",
"399 -230 OFFCURVE",
"399 -234 CURVE SMOOTH",
"399 -247 OFFCURVE",
"409 -255 OFFCURVE",
"429 -255 CURVE SMOOTH",
"449 -255 OFFCURVE",
"462 -247 OFFCURVE",
"462 -230 CURVE SMOOTH",
"462 -211 OFFCURVE",
"448 -201 OFFCURVE",
"417 -201 CURVE SMOOTH"
);
}
);
width = 100;
},
{
associatedMasterId = "034236B8-3FA8-43DA-9EDA-EFF269A687EC";
background = {
paths = (
{
closed = 1;
nodes = (
"240 -354 OFFCURVE",
"288 -307 OFFCURVE",
"288 -215 CURVE SMOOTH",
"288 -177 OFFCURVE",
"279 -127 OFFCURVE",
"260 -83 CURVE",
"242 -82 LINE",
"242 -83 LINE",
"261 -121 OFFCURVE",
"272 -174 OFFCURVE",
"272 -216 CURVE SMOOTH",
"272 -297 OFFCURVE",
"232 -336 OFFCURVE",
"158 -336 CURVE SMOOTH",
"94 -336 OFFCURVE",
"60 -310 OFFCURVE",
"60 -268 CURVE SMOOTH",
"60 -227 OFFCURVE",
"89 -204 OFFCURVE",
"138 -204 CURVE SMOOTH",
"166 -204 OFFCURVE",
"182 -212 OFFCURVE",
"182 -232 CURVE SMOOTH",
"182 -252 OFFCURVE",
"166 -262 OFFCURVE",
"136 -262 CURVE SMOOTH",
"106 -262 OFFCURVE",
"81 -253 OFFCURVE",
"62 -238 CURVE",
"54 -252 LINE",
"80 -272 OFFCURVE",
"110 -279 OFFCURVE",
"135 -279 CURVE SMOOTH",
"171 -279 OFFCURVE",
"197 -264 OFFCURVE",
"197 -232 CURVE SMOOTH",
"197 -200 OFFCURVE",
"171 -187 OFFCURVE",
"136 -187 CURVE SMOOTH",
"83 -187 OFFCURVE",
"45 -218 OFFCURVE",
"45 -269 CURVE SMOOTH",
"45 -322 OFFCURVE",
"90 -354 OFFCURVE",
"158 -354 CURVE SMOOTH"
);
}
);
};
guideLines = (
{
angle = 130.417;
position = "{131, -227}";
showMeasurement = 1;
},
{
angle = 90;
position = "{-81, -160}";
},
{
position = "{183, -330}";
},
{
angle = 90;
position = "{340, -275}";
}
);
layerId = "C610174B-7ECE-400A-A3F2-FC1A23693C0C";
name = "Light Oct 19 15, 10:13";
paths = (
{
closed = 1;
nodes = (
"-336 -256 CURVE",
"-316 -248 LINE",
"-327 -225 OFFCURVE",
"-334 -207 OFFCURVE",
"-334 -184 CURVE SMOOTH",
"-334 -129 OFFCURVE",
"-293 -98 OFFCURVE",
"-221 -98 CURVE SMOOTH",
"-159 -98 OFFCURVE",
"-121 -125 OFFCURVE",
"-92 -184 CURVE",
"-68 -184 LINE",
"-43 -126 OFFCURVE",
"-1 -98 OFFCURVE",
"63 -98 CURVE SMOOTH",
"128 -98 OFFCURVE",
"173 -128 OFFCURVE",
"173 -175 CURVE SMOOTH",
"173 -235 OFFCURVE",
"98 -232 OFFCURVE",
"98 -294 CURVE SMOOTH",
"98 -330 OFFCURVE",
"124 -353 OFFCURVE",
"178 -353 CURVE SMOOTH",
"256 -353 OFFCURVE",
"290 -304 OFFCURVE",
"290 -217 CURVE SMOOTH",
"290 -172 OFFCURVE",
"277 -123 OFFCURVE",
"262 -83 CURVE",
"242 -83 LINE",
"257 -127 OFFCURVE",
"270 -171 OFFCURVE",
"270 -219 CURVE SMOOTH",
"270 -292 OFFCURVE",
"246 -330 OFFCURVE",
"178 -330 CURVE SMOOTH",
"136 -330 OFFCURVE",
"118 -316 OFFCURVE",
"118 -293 CURVE SMOOTH",
"118 -246 OFFCURVE",
"193 -247 OFFCURVE",
"193 -173 CURVE SMOOTH",
"193 -112 OFFCURVE",
"143 -75 OFFCURVE",
"65 -75 CURVE SMOOTH",
"6 -75 OFFCURVE",
"-49 -96 OFFCURVE",
"-81 -160 CURVE",
"-111 -101 OFFCURVE",
"-159 -75 OFFCURVE",
"-223 -75 CURVE SMOOTH",
"-295 -75 OFFCURVE",
"-354 -106 OFFCURVE",
"-354 -181 CURVE SMOOTH",
"-354 -204 OFFCURVE",
"-349 -226 OFFCURVE"
);
},
{
closed = 1;
nodes = (
"374 -201 OFFCURVE",
"335 -226 OFFCURVE",
"335 -276 CURVE SMOOTH",
"335 -324 OFFCURVE",
"372 -353 OFFCURVE",
"432 -353 CURVE SMOOTH",
"507 -353 OFFCURVE",
"551 -308 OFFCURVE",
"551 -231 CURVE SMOOTH",
"551 -137 OFFCURVE",
"479 -83 OFFCURVE",
"337 -83 CURVE SMOOTH",
"254 -83 LINE",
"259 -103 LINE",
"341 -103 LINE SMOOTH",
"461 -103 OFFCURVE",
"531 -147 OFFCURVE",
"531 -232 CURVE SMOOTH",
"531 -294 OFFCURVE",
"497 -330 OFFCURVE",
"431 -330 CURVE SMOOTH",
"380 -330 OFFCURVE",
"355 -308 OFFCURVE",
"355 -275 CURVE SMOOTH",
"355 -248 OFFCURVE",
"371 -228 OFFCURVE",
"399 -222 CURVE",
"398 -226 OFFCURVE",
"398 -228 OFFCURVE",
"398 -230 CURVE SMOOTH",
"398 -243 OFFCURVE",
"411 -253 OFFCURVE",
"436 -253 CURVE SMOOTH",
"460 -253 OFFCURVE",
"472 -242 OFFCURVE",
"472 -228 CURVE SMOOTH",
"472 -212 OFFCURVE",
"460 -201 OFFCURVE",
"429 -201 CURVE SMOOTH"
);
}
);
width = 100;
}
);
unicode = 0CE3;
},
{
glyphname = knmE;
lastChange = "2015-10-15 22:03:08 +0000";
layers = (
{
background = {
paths = (
{
closed = 1;
nodes = (
"-180 492 LINE",
"139 492 LINE SMOOTH",
"222 492 OFFCURVE",
"271 537 OFFCURVE",
"271 607 CURVE SMOOTH",
"271 666 OFFCURVE",
"232 717 OFFCURVE",
"158 717 CURVE SMOOTH",
"144 717 OFFCURVE",
"127 716 OFFCURVE",
"113 712 CURVE",
"113 661 LINE",
"126 663 OFFCURVE",
"138 664 OFFCURVE",
"148 664 CURVE SMOOTH",
"190 664 OFFCURVE",
"210 643 OFFCURVE",
"210 607 CURVE SMOOTH",
"210 570 OFFCURVE",
"188 546 OFFCURVE",
"130 546 CURVE SMOOTH",
"-180 546 LINE"
);
}
);
};
components = (
{
name = _part.knmE;
piece = {
Width = 350;
};
}
);
layerId = "034236B8-3FA8-43DA-9EDA-EFF269A687EC";
name = Light;
width = 0;
}
);
unicode = 0CC6;
},
{
glyphname = knmEE;
lastChange = "2015-10-19 16:34:04 +0000";
layers = (
{
background = {
paths = (
{
closed = 1;
nodes = (
"5 563 OFFCURVE",
"-32 555 OFFCURVE",
"-51 549 CURVE SMOOTH",
"-69 543 OFFCURVE",
"-83 534 OFFCURVE",
"-83 514 CURVE SMOOTH",
"-83 493 OFFCURVE",
"-69 481 OFFCURVE",
"-40 481 CURVE SMOOTH",
"-12 481 OFFCURVE",
"5 492 OFFCURVE",
"5 513 CURVE SMOOTH",
"5 522 OFFCURVE",
"1 529 OFFCURVE",
"-6 536 CURVE",
"6 539 OFFCURVE",
"23 541 OFFCURVE",
"41 541 CURVE SMOOTH",
"103 541 OFFCURVE",
"135 516 OFFCURVE",
"135 469 CURVE SMOOTH",
"135 427 OFFCURVE",
"109 405 OFFCURVE",
"43 405 CURVE SMOOTH",
"-111 405 LINE",
"-111 383 LINE",
"43 383 LINE SMOOTH",
"121 383 OFFCURVE",
"157 412 OFFCURVE",
"157 469 CURVE SMOOTH",
"157 531 OFFCURVE",
"115 563 OFFCURVE",
"42 563 CURVE SMOOTH"
);
},
{
closed = 1;
nodes = (
"389 226 OFFCURVE",
"448 262 OFFCURVE",
"448 325 CURVE SMOOTH",
"448 384 OFFCURVE",
"393 417 OFFCURVE",
"323 417 CURVE SMOOTH",
"248 417 OFFCURVE",
"157 373 OFFCURVE",
"157 238 CURVE SMOOTH",
"157 99 OFFCURVE",
"248 23 OFFCURVE",
"377 -5 CURVE",
"384 19 LINE",
"257 46 OFFCURVE",
"179 116 OFFCURVE",
"177 237 CURVE",
"177 244 OFFCURVE",
"177 250 OFFCURVE",
"178 256 CURVE",
"217 235 OFFCURVE",
"268 226 OFFCURVE",
"310 226 CURVE SMOOTH"
);
},
{
closed = 1;
nodes = (
"380 393 OFFCURVE",
"426 371 OFFCURVE",
"426 325 CURVE SMOOTH",
"426 275 OFFCURVE",
"378 250 OFFCURVE",
"310 250 CURVE SMOOTH",
"265 250 OFFCURVE",
"214 260 OFFCURVE",
"180 278 CURVE",
"195 365 OFFCURVE",
"262 393 OFFCURVE",
"322 393 CURVE SMOOTH"
);
}
);
};
components = (
{
disableAlignment = 1;
name = knLengthmark;
transform = "{1, 0, 0, 1, 102, 0}";
},
{
name = _part.knmE;
piece = {
Width = 350;
};
}
);
layerId = "034236B8-3FA8-43DA-9EDA-EFF269A687EC";
name = Light;
width = 458;
}
);
leftMetricsKey = _part.knmE;
rightMetricsKey = knLengthmark;
unicode = 0CC7;
},
{
glyphname = knmAI;
lastChange = "2015-10-19 16:34:03 +0000";
layers = (
{
background = {
anchors = (
{
name = _headline;
position = "{146, 383}";
}
);
paths = (
{
closed = 1;
nodes = (
"5 563 OFFCURVE",
"-32 555 OFFCURVE",
"-51 549 CURVE SMOOTH",
"-69 543 OFFCURVE",
"-83 534 OFFCURVE",
"-83 514 CURVE SMOOTH",
"-83 493 OFFCURVE",
"-69 481 OFFCURVE",
"-40 481 CURVE SMOOTH",
"-12 481 OFFCURVE",
"5 492 OFFCURVE",
"5 513 CURVE SMOOTH",
"5 522 OFFCURVE",
"1 529 OFFCURVE",
"-6 536 CURVE",
"6 539 OFFCURVE",
"23 541 OFFCURVE",
"41 541 CURVE SMOOTH",
"103 541 OFFCURVE",
"135 516 OFFCURVE",
"135 469 CURVE SMOOTH",
"135 427 OFFCURVE",
"109 405 OFFCURVE",
"43 405 CURVE SMOOTH",
"-111 405 LINE",
"-111 383 LINE",
"43 383 LINE SMOOTH",
"121 383 OFFCURVE",
"157 412 OFFCURVE",
"157 469 CURVE SMOOTH",
"157 531 OFFCURVE",
"115 563 OFFCURVE",
"42 563 CURVE SMOOTH"
);
},
{
closed = 1;
nodes = (
"189 -43 LINE",
"272 -61 OFFCURVE",
"306 -113 OFFCURVE",
"306 -187 CURVE SMOOTH",
"306 -274 OFFCURVE",
"259 -329 OFFCURVE",
"150 -329 CURVE SMOOTH",
"63 -329 OFFCURVE",
"8 -294 OFFCURVE",
"8 -232 CURVE SMOOTH",
"8 -178 OFFCURVE",
"50 -144 OFFCURVE",
"117 -144 CURVE SMOOTH",
"156 -144 OFFCURVE",
"179 -155 OFFCURVE",
"179 -184 CURVE SMOOTH",
"179 -212 OFFCURVE",
"157 -225 OFFCURVE",
"114 -225 CURVE SMOOTH",
"73 -225 OFFCURVE",
"37 -213 OFFCURVE",
"11 -192 CURVE",
"0 -211 LINE",
"36 -239 OFFCURVE",
"78 -249 OFFCURVE",
"113 -249 CURVE SMOOTH",
"164 -249 OFFCURVE",
"200 -228 OFFCURVE",
"200 -183 CURVE SMOOTH",
"200 -139 OFFCURVE",
"164 -120 OFFCURVE",
"116 -120 CURVE SMOOTH",
"41 -120 OFFCURVE",
"-12 -166 OFFCURVE",
"-12 -233 CURVE SMOOTH",
"-12 -310 OFFCURVE",
"57 -354 OFFCURVE",
"152 -354 CURVE SMOOTH",
"268 -354 OFFCURVE",
"328 -288 OFFCURVE",
"328 -187 CURVE SMOOTH",
"328 -95 OFFCURVE",
"278 -42 OFFCURVE",
"205 -27 CURVE",
"205 -40 LINE",
"277 -34 OFFCURVE",
"317 -8 OFFCURVE",
"317 47 CURVE SMOOTH",
"317 78 OFFCURVE",
"305 106 OFFCURVE",
"289 130 CURVE",
"269 120 LINE",
"286 97 OFFCURVE",
"295 74 OFFCURVE",
"295 51 CURVE SMOOTH",
"295 10 OFFCURVE",
"267 -21 OFFCURVE",
"206 -21 CURVE SMOOTH",
"189 -21 LINE"
);
}
);
};
components = (
{
name = knmE;
},
{
name = knAIlengthmark;
transform = "{1, 0, 0, 1, 239, 0}";
}
);
layerId = "034236B8-3FA8-43DA-9EDA-EFF269A687EC";
name = Light;
width = 349;
}
);
rightMetricsKey = knAIlengthmark;
unicode = 0CC8;
},
{
glyphname = knmO;
lastChange = "2015-10-15 22:03:08 +0000";
layers = (
{
background = {
anchors = (
{
name = _knmU;
position = "{-64, -21}";
}
);
paths = (
{
closed = 1;
nodes = (
"310 147 OFFCURVE",
"341 186 OFFCURVE",
"391 194 CURVE",
"388 189 OFFCURVE",
"387 185 OFFCURVE",
"387 180 CURVE SMOOTH",
"387 163 OFFCURVE",
"403 150 OFFCURVE",
"435 150 CURVE SMOOTH",
"465 150 OFFCURVE",
"481 162 OFFCURVE",
"481 183 CURVE SMOOTH",
"481 202 OFFCURVE",
"469 217 OFFCURVE",
"422 217 CURVE SMOOTH",
"339 217 OFFCURVE",
"288 171 OFFCURVE",
"288 100 CURVE SMOOTH",
"288 25 OFFCURVE",
"346 -21 OFFCURVE",
"440 -21 CURVE SMOOTH",
"568 -21 OFFCURVE",
"630 63 OFFCURVE",
"630 170 CURVE SMOOTH",
"630 307 OFFCURVE",
"527 417 OFFCURVE",
"361 417 CURVE SMOOTH",
"236 417 OFFCURVE",
"147 354 OFFCURVE",
"147 248 CURVE SMOOTH",
"147 195 OFFCURVE",
"169 136 OFFCURVE",
"169 90 CURVE SMOOTH",
"169 30 OFFCURVE",
"132 4 OFFCURVE",
"71 4 CURVE SMOOTH",
"12 4 OFFCURVE",
"-35 28 OFFCURVE",
"-64 101 CURVE",
"-76 81 LINE",
"-49 14 OFFCURVE",
"-1 -21 OFFCURVE",
"70 -21 CURVE SMOOTH",
"147 -21 OFFCURVE",
"191 21 OFFCURVE",
"191 92 CURVE SMOOTH",
"191 143 OFFCURVE",
"169 189 OFFCURVE",
"169 242 CURVE SMOOTH",
"169 343 OFFCURVE",
"247 393 OFFCURVE",
"360 393 CURVE SMOOTH",
"515 393 OFFCURVE",
"608 298 OFFCURVE",
"608 172 CURVE SMOOTH",
"608 93 OFFCURVE",
"571 4 OFFCURVE",
"441 4 CURVE SMOOTH",
"360 4 OFFCURVE",
"310 38 OFFCURVE",
"310 99 CURVE SMOOTH"
);
},
{
closed = 1;
nodes = (
"4 563 OFFCURVE",
"-33 555 OFFCURVE",
"-52 549 CURVE SMOOTH",
"-70 543 OFFCURVE",
"-84 534 OFFCURVE",
"-84 514 CURVE SMOOTH",
"-84 493 OFFCURVE",
"-70 481 OFFCURVE",
"-41 481 CURVE SMOOTH",
"-13 481 OFFCURVE",
"4 492 OFFCURVE",
"4 513 CURVE SMOOTH",
"4 522 OFFCURVE",
"0 529 OFFCURVE",
"-7 536 CURVE",
"5 539 OFFCURVE",
"22 541 OFFCURVE",
"40 541 CURVE SMOOTH",
"102 541 OFFCURVE",
"134 516 OFFCURVE",
"134 469 CURVE SMOOTH",
"134 427 OFFCURVE",
"108 405 OFFCURVE",
"42 405 CURVE SMOOTH",
"-112 405 LINE",
"-112 383 LINE",
"42 383 LINE SMOOTH",
"120 383 OFFCURVE",
"156 412 OFFCURVE",
"156 469 CURVE SMOOTH",
"156 531 OFFCURVE",
"114 563 OFFCURVE",
"41 563 CURVE SMOOTH"
);
}
);
};
components = (
{
disableAlignment = 1;
name = knmUU;
},
{
name = _part.knmE;
transform = "{1, 0, 0, 1, -1, 0}";
}
);
layerId = "034236B8-3FA8-43DA-9EDA-EFF269A687EC";
name = Light;
width = 710;
}
);
rightMetricsKey = _part.knmUU;
unicode = 0CCA;
},
{
glyphname = knmOO;
lastChange = "2015-10-16 17:53:11 +0000";
layers = (
{
background = {
paths = (
{
closed = 1;
nodes = (
"-519 563 OFFCURVE",
"-556 555 OFFCURVE",
"-575 549 CURVE SMOOTH",
"-593 543 OFFCURVE",
"-607 534 OFFCURVE",
"-607 514 CURVE SMOOTH",
"-607 493 OFFCURVE",
"-593 481 OFFCURVE",
"-564 481 CURVE SMOOTH",
"-536 481 OFFCURVE",
"-519 492 OFFCURVE",
"-519 513 CURVE SMOOTH",
"-519 522 OFFCURVE",
"-523 529 OFFCURVE",
"-530 536 CURVE",
"-518 539 OFFCURVE",
"-501 541 OFFCURVE",
"-483 541 CURVE SMOOTH",
"-421 541 OFFCURVE",
"-389 516 OFFCURVE",
"-389 469 CURVE SMOOTH",
"-389 427 OFFCURVE",
"-415 405 OFFCURVE",
"-481 405 CURVE SMOOTH",
"-635 405 LINE",
"-635 383 LINE",
"-481 383 LINE SMOOTH",
"-403 383 OFFCURVE",
"-367 412 OFFCURVE",
"-367 469 CURVE SMOOTH",
"-367 531 OFFCURVE",
"-409 563 OFFCURVE",
"-482 563 CURVE SMOOTH"
);
},
{
closed = 1;
nodes = (
"196 417 OFFCURVE",
"107 354 OFFCURVE",
"107 248 CURVE SMOOTH",
"107 195 OFFCURVE",
"129 136 OFFCURVE",
"129 90 CURVE SMOOTH",
"129 30 OFFCURVE",
"92 4 OFFCURVE",
"31 4 CURVE SMOOTH",
"-28 4 OFFCURVE",
"-75 28 OFFCURVE",
"-104 101 CURVE",
"-116 81 LINE",
"-89 14 OFFCURVE",
"-41 -21 OFFCURVE",
"30 -21 CURVE SMOOTH",
"107 -21 OFFCURVE",
"151 21 OFFCURVE",
"151 92 CURVE SMOOTH",
"151 143 OFFCURVE",
"129 189 OFFCURVE",
"129 242 CURVE SMOOTH",
"129 343 OFFCURVE",
"207 393 OFFCURVE",
"320 393 CURVE SMOOTH",
"475 393 OFFCURVE",
"568 298 OFFCURVE",
"568 172 CURVE SMOOTH",
"568 93 OFFCURVE",
"531 4 OFFCURVE",
"401 4 CURVE SMOOTH",
"320 4 OFFCURVE",
"270 38 OFFCURVE",
"270 99 CURVE SMOOTH",
"270 147 OFFCURVE",
"301 186 OFFCURVE",
"351 194 CURVE",
"348 189 OFFCURVE",
"347 185 OFFCURVE",
"347 180 CURVE SMOOTH",
"347 163 OFFCURVE",
"363 150 OFFCURVE",
"395 150 CURVE SMOOTH",
"425 150 OFFCURVE",
"441 162 OFFCURVE",
"441 183 CURVE SMOOTH",
"441 202 OFFCURVE",
"429 217 OFFCURVE",
"382 217 CURVE SMOOTH",
"299 217 OFFCURVE",
"248 171 OFFCURVE",
"248 100 CURVE SMOOTH",
"248 25 OFFCURVE",
"306 -21 OFFCURVE",
"400 -21 CURVE SMOOTH",
"528 -21 OFFCURVE",
"590 63 OFFCURVE",
"590 170 CURVE SMOOTH",
"590 307 OFFCURVE",
"487 417 OFFCURVE",
"321 417 CURVE SMOOTH"
);
},
{
closed = 1;
nodes = (
"1017 226 OFFCURVE",
"1076 262 OFFCURVE",
"1076 325 CURVE SMOOTH",
"1076 384 OFFCURVE",
"1021 417 OFFCURVE",
"951 417 CURVE SMOOTH",
"876 417 OFFCURVE",
"785 373 OFFCURVE",
"785 238 CURVE SMOOTH",
"785 99 OFFCURVE",
"876 23 OFFCURVE",
"1005 -5 CURVE",
"1012 19 LINE",
"885 46 OFFCURVE",
"807 116 OFFCURVE",
"805 237 CURVE",
"805 244 OFFCURVE",
"805 250 OFFCURVE",
"806 256 CURVE",
"845 235 OFFCURVE",
"896 226 OFFCURVE",
"938 226 CURVE SMOOTH"
);
},
{
closed = 1;
nodes = (
"1008 393 OFFCURVE",
"1054 371 OFFCURVE",
"1054 325 CURVE SMOOTH",
"1054 275 OFFCURVE",
"1006 250 OFFCURVE",
"938 250 CURVE SMOOTH",
"893 250 OFFCURVE",
"842 260 OFFCURVE",
"808 278 CURVE",
"823 365 OFFCURVE",
"890 393 OFFCURVE",
"950 393 CURVE SMOOTH"
);
}
);
};
components = (
{
disableAlignment = 1;
name = knLengthmark;
transform = "{1, 0, 0, 1, 730, 0}";
},
{
disableAlignment = 1;
name = _part.knmUU;
transform = "{1, 0, 0, 1, -51, 0}";
},
{
disableAlignment = 1;
name = _part.knmE;
transform = "{1, 0, 0, 1, -524, 0}";
piece = {
Width = 350;
};
}
);
guideLines = (
{
angle = 90;
position = "{640, 166}";
},
{
angle = 90;
position = "{-105, 149}";
},
{
angle = 90;
position = "{740, 166}";
}
);
layerId = "034236B8-3FA8-43DA-9EDA-EFF269A687EC";
name = Light;
width = 1094;
}
);
unicode = 0CCB;
},
{
glyphname = knmAU;
lastChange = "2015-10-15 22:03:08 +0000";
layers = (
{
background = {
paths = (
{
closed = 1;
nodes = (
"42 353 LINE SMOOTH",
"110 353 OFFCURVE",
"147 381 OFFCURVE",
"147 435 CURVE SMOOTH",
"147 447 OFFCURVE",
"145 460 OFFCURVE",
"140 472 CURVE",
"114 472 LINE",
"119 462 OFFCURVE",
"123 449 OFFCURVE",
"123 434 CURVE SMOOTH",
"123 396 OFFCURVE",
"98 377 OFFCURVE",
"44 377 CURVE SMOOTH",
"-214 377 LINE",
"-214 353 LINE"
);
},
{
closed = 1;
nodes = (
"-111 486 LINE",
"-111 462 LINE",
"245 462 LINE SMOOTH",
"380 462 OFFCURVE",
"480 403 OFFCURVE",
"480 295 CURVE SMOOTH",
"480 208 OFFCURVE",
"422 158 OFFCURVE",
"322 158 CURVE SMOOTH",
"240 158 OFFCURVE",
"206 191 OFFCURVE",
"206 237 CURVE SMOOTH",
"206 275 OFFCURVE",
"229 303 OFFCURVE",
"287 309 CURVE",
"288 308 LINE",
"285 302 OFFCURVE",
"284 296 OFFCURVE",
"284 291 CURVE SMOOTH",
"284 268 OFFCURVE",
"302 256 OFFCURVE",
"330 256 CURVE SMOOTH",
"361 256 OFFCURVE",
"378 270 OFFCURVE",
"378 294 CURVE SMOOTH",
"378 319 OFFCURVE",
"358 331 OFFCURVE",
"312 331 CURVE SMOOTH",
"234 331 OFFCURVE",
"184 296 OFFCURVE",
"184 234 CURVE SMOOTH",
"184 173 OFFCURVE",
"233 133 OFFCURVE",
"323 133 CURVE SMOOTH",
"434 133 OFFCURVE",
"504 194 OFFCURVE",
"504 298 CURVE SMOOTH",
"504 414 OFFCURVE",
"417 486 OFFCURVE",
"243 486 CURVE SMOOTH"
);
}
);
};
components = (
{
name = _part.knmAU;
piece = {
Weight = 214;
};
}
);
guideLines = (
{
position = "{346, 184}";
}
);
layerId = "034236B8-3FA8-43DA-9EDA-EFF269A687EC";
name = Light;
width = 568;
}
);
rightMetricsKey = _part.knmAU;
unicode = 0CCC;
},
{
glyphname = knLengthmark;
lastChange = "2015-10-16 20:31:30 +0000";
layers = (
{
background = {
paths = (
{
closed = 1;
nodes = (
"42 346 OFFCURVE",
"120 393 OFFCURVE",
"208 393 CURVE SMOOTH",
"275 393 OFFCURVE",
"330 367 OFFCURVE",
"330 313 CURVE SMOOTH",
"330 259 OFFCURVE",
"272 233 OFFCURVE",
"194 233 CURVE SMOOTH",
"138 233 OFFCURVE",
"74 246 OFFCURVE",
"36 265 CURVE",
"27 248 LINE",
"72 222 OFFCURVE",
"141 209 OFFCURVE",
"194 209 CURVE SMOOTH",
"283 209 OFFCURVE",
"352 246 OFFCURVE",
"352 313 CURVE SMOOTH",
"352 380 OFFCURVE",
"285 417 OFFCURVE",
"206 417 CURVE SMOOTH",
"112 417 OFFCURVE",
"20 362 OFFCURVE",
"20 234 CURVE SMOOTH",
"20 101 OFFCURVE",
"119 22 OFFCURVE",
"258 -5 CURVE",
"265 19 LINE",
"128 45 OFFCURVE",
"42 117 OFFCURVE",
"42 233 CURVE SMOOTH"
);
}
);
};
layerId = "034236B8-3FA8-43DA-9EDA-EFF269A687EC";
name = Light;
paths = (
{
closed = 1;
nodes = (
"39 357 OFFCURVE",
"116 393 OFFCURVE",
"185 393 CURVE SMOOTH",
"243 393 OFFCURVE",
"289 371 OFFCURVE",
"289 325 CURVE SMOOTH",
"289 275 OFFCURVE",
"241 250 OFFCURVE",
"173 250 CURVE SMOOTH",
"124 250 OFFCURVE",
"68 262 OFFCURVE",
"34 283 CURVE",
"34 260 LINE",
"74 236 OFFCURVE",
"129 226 OFFCURVE",
"173 226 CURVE SMOOTH",
"252 226 OFFCURVE",
"311 262 OFFCURVE",
"311 325 CURVE SMOOTH",
"311 384 OFFCURVE",
"256 417 OFFCURVE",
"186 417 CURVE SMOOTH",
"111 417 OFFCURVE",
"20 373 OFFCURVE",
"20 238 CURVE SMOOTH",
"20 99 OFFCURVE",
"111 23 OFFCURVE",
"240 -5 CURVE",
"247 19 LINE",
"120 46 OFFCURVE",
"42 116 OFFCURVE",
"40 237 CURVE SMOOTH"
);
}
);
width = 356;
}
);
unicode = 0CD5;
},
{
glyphname = knAIlengthmark;
lastChange = "2015-10-19 16:23:16 +0000";
layers = (
{
background = {
paths = (
{
closed = 1;
nodes = (
"62 -43 LINE",
"145 -61 OFFCURVE",
"179 -113 OFFCURVE",
"179 -187 CURVE SMOOTH",
"179 -274 OFFCURVE",
"132 -329 OFFCURVE",
"23 -329 CURVE SMOOTH",
"-64 -329 OFFCURVE",
"-119 -294 OFFCURVE",
"-119 -232 CURVE SMOOTH",
"-119 -178 OFFCURVE",
"-77 -144 OFFCURVE",
"-10 -144 CURVE SMOOTH",
"29 -144 OFFCURVE",
"52 -155 OFFCURVE",
"52 -184 CURVE SMOOTH",
"52 -212 OFFCURVE",
"30 -225 OFFCURVE",
"-13 -225 CURVE SMOOTH",
"-54 -225 OFFCURVE",
"-90 -213 OFFCURVE",
"-116 -192 CURVE",
"-127 -211 LINE",
"-91 -239 OFFCURVE",
"-49 -249 OFFCURVE",
"-14 -249 CURVE SMOOTH",
"37 -249 OFFCURVE",
"73 -228 OFFCURVE",
"73 -183 CURVE SMOOTH",
"73 -139 OFFCURVE",
"37 -120 OFFCURVE",
"-11 -120 CURVE SMOOTH",
"-86 -120 OFFCURVE",
"-139 -166 OFFCURVE",
"-139 -233 CURVE SMOOTH",
"-139 -310 OFFCURVE",
"-70 -353 OFFCURVE",
"23 -353 CURVE SMOOTH",
"141 -353 OFFCURVE",
"201 -289 OFFCURVE",
"201 -185 CURVE SMOOTH",
"201 -96 OFFCURVE",
"151 -42 OFFCURVE",
"78 -27 CURVE",
"78 -40 LINE",
"150 -34 OFFCURVE",
"190 -8 OFFCURVE",
"190 47 CURVE SMOOTH",
"190 78 OFFCURVE",
"178 106 OFFCURVE",
"162 130 CURVE",
"142 120 LINE",
"159 97 OFFCURVE",
"168 74 OFFCURVE",
"168 51 CURVE SMOOTH",
"168 10 OFFCURVE",
"140 -21 OFFCURVE",
"79 -21 CURVE SMOOTH",
"62 -21 LINE"
);
}
);
};
layerId = "034236B8-3FA8-43DA-9EDA-EFF269A687EC";
name = Light;
paths = (
{
closed = 1;
nodes = (
"-29 -43 LINE",
"54 -61 OFFCURVE",
"88 -113 OFFCURVE",
"88 -187 CURVE SMOOTH",
"88 -274 OFFCURVE",
"41 -329 OFFCURVE",
"-68 -329 CURVE SMOOTH",
"-155 -329 OFFCURVE",
"-210 -294 OFFCURVE",
"-210 -232 CURVE SMOOTH",
"-210 -178 OFFCURVE",
"-168 -144 OFFCURVE",
"-101 -144 CURVE SMOOTH",
"-62 -144 OFFCURVE",
"-39 -155 OFFCURVE",
"-39 -184 CURVE SMOOTH",
"-39 -212 OFFCURVE",
"-61 -225 OFFCURVE",
"-104 -225 CURVE SMOOTH",
"-145 -225 OFFCURVE",
"-181 -213 OFFCURVE",
"-207 -192 CURVE",
"-218 -211 LINE",
"-182 -239 OFFCURVE",
"-140 -249 OFFCURVE",
"-105 -249 CURVE SMOOTH",
"-54 -249 OFFCURVE",
"-18 -228 OFFCURVE",
"-18 -183 CURVE SMOOTH",
"-18 -139 OFFCURVE",
"-54 -120 OFFCURVE",
"-102 -120 CURVE SMOOTH",
"-177 -120 OFFCURVE",
"-230 -166 OFFCURVE",
"-230 -233 CURVE SMOOTH",
"-230 -310 OFFCURVE",
"-161 -354 OFFCURVE",
"-66 -354 CURVE SMOOTH",
"50 -354 OFFCURVE",
"110 -288 OFFCURVE",
"110 -187 CURVE SMOOTH",
"110 -95 OFFCURVE",
"60 -42 OFFCURVE",
"-13 -27 CURVE",
"-13 -40 LINE",
"59 -34 OFFCURVE",
"99 -8 OFFCURVE",
"99 47 CURVE SMOOTH",
"99 78 OFFCURVE",
"87 106 OFFCURVE",
"71 130 CURVE",
"51 120 LINE",
"68 97 OFFCURVE",
"77 74 OFFCURVE",
"77 51 CURVE SMOOTH",
"77 10 OFFCURVE",
"49 -21 OFFCURVE",
"-12 -21 CURVE SMOOTH",
"-29 -21 LINE"
);
}
);
width = 110;
},
{
associatedMasterId = "034236B8-3FA8-43DA-9EDA-EFF269A687EC";
background = {
paths = (
{
closed = 1;
nodes = (
"0 83 LINE",
"52 111 OFFCURVE",
"105 125 OFFCURVE",
"149 125 CURVE SMOOTH",
"211 125 OFFCURVE",
"236 98 OFFCURVE",
"236 52 CURVE SMOOTH",
"236 -6 OFFCURVE",
"200 -29 OFFCURVE",
"94 -29 CURVE SMOOTH",
"0 -29 LINE",
"0 -53 LINE",
"88 -53 LINE SMOOTH",
"205 -53 OFFCURVE",
"261 -102 OFFCURVE",
"261 -194 CURVE SMOOTH",
"261 -301 OFFCURVE",
"186 -337 OFFCURVE",
"91 -337 CURVE SMOOTH",
"-7 -337 OFFCURVE",
"-69 -302 OFFCURVE",
"-69 -230 CURVE SMOOTH",
"-69 -177 OFFCURVE",
"-38 -145 OFFCURVE",
"29 -145 CURVE SMOOTH",
"78 -145 OFFCURVE",
"99 -162 OFFCURVE",
"99 -189 CURVE SMOOTH",
"99 -218 OFFCURVE",
"75 -234 OFFCURVE",
"15 -234 CURVE SMOOTH",
"-20 -234 OFFCURVE",
"-44 -229 OFFCURVE",
"-79 -216 CURVE",
"-83 -234 LINE",
"-58 -247 OFFCURVE",
"-20 -258 OFFCURVE",
"24 -258 CURVE SMOOTH",
"88 -258 OFFCURVE",
"121 -231 OFFCURVE",
"121 -188 CURVE SMOOTH",
"121 -149 OFFCURVE",
"91 -121 OFFCURVE",
"32 -121 CURVE SMOOTH",
"-46 -121 OFFCURVE",
"-89 -166 OFFCURVE",
"-89 -232 CURVE SMOOTH",
"-89 -314 OFFCURVE",
"-16 -361 OFFCURVE",
"93 -361 CURVE SMOOTH",
"205 -361 OFFCURVE",
"283 -306 OFFCURVE",
"283 -195 CURVE SMOOTH",
"283 -101 OFFCURVE",
"222 -39 OFFCURVE",
"121 -35 CURVE",
"121 -47 LINE",
"212 -46 OFFCURVE",
"258 -13 OFFCURVE",
"258 57 CURVE SMOOTH",
"258 118 OFFCURVE",
"216 149 OFFCURVE",
"153 149 CURVE SMOOTH",
"102 149 OFFCURVE",
"44 134 OFFCURVE",
"-8 107 CURVE"
);
}
);
};
layerId = "78D8EC50-A9BF-462F-B38D-8F46C51F696E";
name = "Light Sep 28 15, 10:16";
paths = (
{
closed = 1;
nodes = (
"186 -353 OFFCURVE",
"250 -287 OFFCURVE",
"250 -162 CURVE SMOOTH",
"250 -106 OFFCURVE",
"237 -40 OFFCURVE",
"212 24 CURVE",
"188 26 LINE",
"188 25 LINE",
"212 -35 OFFCURVE",
"229 -98 OFFCURVE",
"229 -163 CURVE SMOOTH",
"229 -275 OFFCURVE",
"177 -330 OFFCURVE",
"68 -330 CURVE SMOOTH",
"-21 -330 OFFCURVE",
"-70 -293 OFFCURVE",
"-70 -234 CURVE SMOOTH",
"-70 -179 OFFCURVE",
"-28 -145 OFFCURVE",
"40 -145 CURVE SMOOTH",
"80 -145 OFFCURVE",
"102 -157 OFFCURVE",
"102 -186 CURVE SMOOTH",
"102 -214 OFFCURVE",
"80 -227 OFFCURVE",
"37 -227 CURVE SMOOTH",
"-4 -227 OFFCURVE",
"-40 -215 OFFCURVE",
"-66 -194 CURVE",
"-77 -212 LINE",
"-41 -240 OFFCURVE",
"1 -250 OFFCURVE",
"36 -250 CURVE SMOOTH",
"87 -250 OFFCURVE",
"123 -229 OFFCURVE",
"123 -185 CURVE SMOOTH",
"123 -141 OFFCURVE",
"87 -122 OFFCURVE",
"38 -122 CURVE SMOOTH",
"-36 -122 OFFCURVE",
"-89 -166 OFFCURVE",
"-89 -235 CURVE SMOOTH",
"-89 -309 OFFCURVE",
"-28 -353 OFFCURVE",
"68 -353 CURVE SMOOTH"
);
}
);
width = 500;
},
{
associatedMasterId = "034236B8-3FA8-43DA-9EDA-EFF269A687EC";
background = {
paths = (
{
closed = 1;
nodes = (
"1 -43 LINE",
"84 -61 OFFCURVE",
"118 -113 OFFCURVE",
"118 -187 CURVE SMOOTH",
"118 -274 OFFCURVE",
"71 -329 OFFCURVE",
"-38 -329 CURVE SMOOTH",
"-125 -329 OFFCURVE",
"-180 -294 OFFCURVE",
"-180 -232 CURVE SMOOTH",
"-180 -178 OFFCURVE",
"-138 -144 OFFCURVE",
"-71 -144 CURVE SMOOTH",
"-32 -144 OFFCURVE",
"-9 -155 OFFCURVE",
"-9 -184 CURVE SMOOTH",
"-9 -212 OFFCURVE",
"-31 -225 OFFCURVE",
"-74 -225 CURVE SMOOTH",
"-115 -225 OFFCURVE",
"-151 -213 OFFCURVE",
"-177 -192 CURVE",
"-188 -211 LINE",
"-152 -239 OFFCURVE",
"-110 -249 OFFCURVE",
"-75 -249 CURVE SMOOTH",
"-24 -249 OFFCURVE",
"12 -228 OFFCURVE",
"12 -183 CURVE SMOOTH",
"12 -139 OFFCURVE",
"-24 -120 OFFCURVE",
"-72 -120 CURVE SMOOTH",
"-147 -120 OFFCURVE",
"-200 -166 OFFCURVE",
"-200 -233 CURVE SMOOTH",
"-200 -310 OFFCURVE",
"-131 -353 OFFCURVE",
"-38 -353 CURVE SMOOTH",
"80 -353 OFFCURVE",
"140 -289 OFFCURVE",
"140 -185 CURVE SMOOTH",
"140 -96 OFFCURVE",
"90 -42 OFFCURVE",
"17 -27 CURVE",
"17 -40 LINE",
"89 -34 OFFCURVE",
"129 -8 OFFCURVE",
"129 47 CURVE SMOOTH",
"129 78 OFFCURVE",
"117 106 OFFCURVE",
"101 130 CURVE",
"81 120 LINE",
"98 97 OFFCURVE",
"107 74 OFFCURVE",
"107 51 CURVE SMOOTH",
"107 10 OFFCURVE",
"79 -21 OFFCURVE",
"18 -21 CURVE SMOOTH",
"1 -21 LINE"
);
}
);
};
guideLines = (
{
angle = 248.096;
position = "{-123, -293}";
showMeasurement = 1;
}
);
layerId = "80418719-A4FE-4B5D-8F08-290C471F7207";
name = "Light Oct 16 15, 11:37";
paths = (
{
closed = 1;
nodes = (
"1 -43 LINE",
"84 -61 OFFCURVE",
"118 -113 OFFCURVE",
"118 -187 CURVE SMOOTH",
"118 -274 OFFCURVE",
"71 -329 OFFCURVE",
"-38 -329 CURVE SMOOTH",
"-125 -329 OFFCURVE",
"-180 -294 OFFCURVE",
"-180 -232 CURVE SMOOTH",
"-180 -178 OFFCURVE",
"-138 -144 OFFCURVE",
"-71 -144 CURVE SMOOTH",
"-32 -144 OFFCURVE",
"-9 -155 OFFCURVE",
"-9 -184 CURVE SMOOTH",
"-9 -212 OFFCURVE",
"-31 -225 OFFCURVE",
"-74 -225 CURVE SMOOTH",
"-115 -225 OFFCURVE",
"-151 -213 OFFCURVE",
"-177 -192 CURVE",
"-188 -211 LINE",
"-152 -239 OFFCURVE",
"-110 -249 OFFCURVE",
"-75 -249 CURVE SMOOTH",
"-24 -249 OFFCURVE",
"12 -228 OFFCURVE",
"12 -183 CURVE SMOOTH",
"12 -139 OFFCURVE",
"-24 -120 OFFCURVE",
"-72 -120 CURVE SMOOTH",
"-147 -120 OFFCURVE",
"-200 -166 OFFCURVE",
"-200 -233 CURVE SMOOTH",
"-200 -310 OFFCURVE",
"-131 -354 OFFCURVE",
"-36 -354 CURVE SMOOTH",
"80 -354 OFFCURVE",
"140 -288 OFFCURVE",
"140 -187 CURVE SMOOTH",
"140 -95 OFFCURVE",
"90 -42 OFFCURVE",
"17 -27 CURVE",
"17 -40 LINE",
"89 -34 OFFCURVE",
"129 -8 OFFCURVE",
"129 47 CURVE SMOOTH",
"129 78 OFFCURVE",
"117 106 OFFCURVE",
"101 130 CURVE",
"81 120 LINE",
"98 97 OFFCURVE",
"107 74 OFFCURVE",
"107 51 CURVE SMOOTH",
"107 10 OFFCURVE",
"79 -21 OFFCURVE",
"18 -21 CURVE SMOOTH",
"1 -21 LINE"
);
}
);
width = 170;
}
);
unicode = 0CD6;
},
{
glyphname = knGHA;
lastChange = "2015-10-19 16:34:04 +0000";
layers = (
{
background = {
paths = (
{
closed = 1;
nodes = (
"361 -21 OFFCURVE",
"435 23 OFFCURVE",
"478 113 CURVE",
"521 22 OFFCURVE",
"599 -21 OFFCURVE",
"709 -21 CURVE SMOOTH",
"831 -21 OFFCURVE",
"911 31 OFFCURVE",
"911 151 CURVE SMOOTH",
"911 170 OFFCURVE",
"909 191 OFFCURVE",
"903 211 CURVE",
"901 211 LINE",
"947 155 OFFCURVE",
"998 132 OFFCURVE",
"1056 132 CURVE SMOOTH",
"1132 132 OFFCURVE",
"1177 171 OFFCURVE",
"1177 244 CURVE SMOOTH",
"1177 316 OFFCURVE",
"1133 371 OFFCURVE",
"1049 403 CURVE",
"1040 384 LINE",
"1115 357 OFFCURVE",
"1155 307 OFFCURVE",
"1155 245 CURVE SMOOTH",
"1155 187 OFFCURVE",
"1118 156 OFFCURVE",
"1056 156 CURVE SMOOTH",
"979 156 OFFCURVE",
"917 207 OFFCURVE",
"864 291 CURVE",
"846 279 LINE",
"879 239 OFFCURVE",
"889 193 OFFCURVE",
"889 153 CURVE SMOOTH",
"889 48 OFFCURVE",
"821 4 OFFCURVE",
"710 4 CURVE SMOOTH",
"597 4 OFFCURVE",
"530 50 OFFCURVE",
"490 140 CURVE",
"466 140 LINE",
"428 52 OFFCURVE",
"362 4 OFFCURVE",
"249 4 CURVE SMOOTH",
"157 4 OFFCURVE",
"91 36 OFFCURVE",
"91 108 CURVE SMOOTH",
"91 175 OFFCURVE",
"149 206 OFFCURVE",
"234 206 CURVE SMOOTH",
"268 206 OFFCURVE",
"300 201 OFFCURVE",
"327 191 CURVE",
"332 212 LINE",
"313 221 OFFCURVE",
"274 228 OFFCURVE",
"234 228 CURVE SMOOTH",
"138 228 OFFCURVE",
"69 189 OFFCURVE",
"69 105 CURVE SMOOTH",
"69 19 OFFCURVE",
"142 -21 OFFCURVE",
"249 -21 CURVE SMOOTH"
);
},
{
closed = 1;
nodes = (
"678 381 LINE",
"678 405 LINE",
"57 405 LINE",
"57 381 LINE"
);
}
);
};
components = (
{
name = knGHA.base;
},
{
disableAlignment = 1;
name = _part.headline;
transform = "{1, 0, 0, 1, 497, 0}";
piece = {
Width = 280.312;
};
}
);
guideLines = (
{
angle = 90;
position = "{69, 105}";
},
{
angle = 90;
position = "{917, 151}";
}
);
layerId = "034236B8-3FA8-43DA-9EDA-EFF269A687EC";
name = Light;
width = 1218;
}
);
leftMetricsKey = knPA.base;
widthMetricsKey = knGHA.base;
unicode = 0C98;
},
{
glyphname = knNGA;
lastChange = "2015-10-15 22:03:08 +0000";
layers = (
{
background = {
guideLines = (
{
angle = 119.006;
position = "{385, 311}";
showMeasurement = 1;
}
);
paths = (
{
closed = 1;
nodes = (
"494 282 OFFCURVE",
"476 269 OFFCURVE",
"476 251 CURVE SMOOTH",
"476 233 OFFCURVE",
"494 220 OFFCURVE",
"523 220 CURVE SMOOTH",
"552 220 OFFCURVE",
"570 233 OFFCURVE",
"570 251 CURVE SMOOTH",
"570 269 OFFCURVE",
"552 282 OFFCURVE",
"523 282 CURVE SMOOTH"
);
}
);
};
components = (
{
name = knO;
},
{
name = _part.dot;
transform = "{1, 0, 0, 1, 398, -13}";
}
);
guideLines = (
{
angle = 90;
position = "{523, 112}";
}
);
layerId = "034236B8-3FA8-43DA-9EDA-EFF269A687EC";
name = Light;
paths = (
{
closed = 1;
nodes = (
"352 251 LINE",
"474 363 OFFCURVE",
"589 425 OFFCURVE",
"710 425 CURVE SMOOTH",
"803 425 OFFCURVE",
"846 396 OFFCURVE",
"846 335 CURVE SMOOTH",
"846 307 OFFCURVE",
"837 289 OFFCURVE",
"826 273 CURVE",
"845 265 LINE",
"858 283 OFFCURVE",
"868 304 OFFCURVE",
"868 336 CURVE SMOOTH",
"868 413 OFFCURVE",
"813 448 OFFCURVE",
"710 448 CURVE SMOOTH",
"594 448 OFFCURVE",
"477 395 OFFCURVE",
"353 275 CURVE"
);
}
);
width = 1068;
},
{
associatedMasterId = "034236B8-3FA8-43DA-9EDA-EFF269A687EC";
background = {
guideLines = (
{
position = "{408, 318}";
}
);
paths = (
{
closed = 1;
nodes = (
"370 307 LINE",
"471 363 OFFCURVE",
"586 417 OFFCURVE",
"719 417 CURVE SMOOTH",
"816 417 OFFCURVE",
"859 388 OFFCURVE",
"859 327 CURVE SMOOTH",
"859 299 OFFCURVE",
"850 281 OFFCURVE",
"839 265 CURVE",
"858 257 LINE",
"871 275 OFFCURVE",
"881 296 OFFCURVE",
"881 328 CURVE SMOOTH",
"881 405 OFFCURVE",
"826 441 OFFCURVE",
"719 441 CURVE SMOOTH",
"592 441 OFFCURVE",
"478 390 OFFCURVE",
"370 326 CURVE"
);
}
);
};
components = (
{
name = knO;
},
{
name = _part.dot;
transform = "{1, 0, 0, 1, 406, 0}";
}
);
layerId = "2E5E692D-3C84-44DD-BD75-AC7CE1C297FB";
name = "Light Oct 6 15, 11:54";
paths = (
{
closed = 1;
nodes = (
"370 307 LINE",
"471 363 OFFCURVE",
"586 417 OFFCURVE",
"719 417 CURVE SMOOTH",
"816 417 OFFCURVE",
"859 388 OFFCURVE",
"859 327 CURVE SMOOTH",
"859 299 OFFCURVE",
"850 281 OFFCURVE",
"839 265 CURVE",
"858 257 LINE",
"871 275 OFFCURVE",
"881 296 OFFCURVE",
"881 328 CURVE SMOOTH",
"881 405 OFFCURVE",
"826 441 OFFCURVE",
"719 441 CURVE SMOOTH",
"592 441 OFFCURVE",
"478 390 OFFCURVE",
"370 326 CURVE"
);
}
);
width = 1096;
},
{
associatedMasterId = "034236B8-3FA8-43DA-9EDA-EFF269A687EC";
background = {
guideLines = (
{
angle = 119.006;
position = "{385, 311}";
showMeasurement = 1;
}
);
paths = (
{
closed = 1;
nodes = (
"344 245 LINE",
"471 363 OFFCURVE",
"590 425 OFFCURVE",
"723 425 CURVE SMOOTH",
"816 425 OFFCURVE",
"859 396 OFFCURVE",
"859 335 CURVE SMOOTH",
"859 307 OFFCURVE",
"850 289 OFFCURVE",
"839 273 CURVE",
"858 265 LINE",
"871 283 OFFCURVE",
"881 304 OFFCURVE",
"881 336 CURVE SMOOTH",
"881 413 OFFCURVE",
"826 449 OFFCURVE",
"723 449 CURVE SMOOTH",
"596 449 OFFCURVE",
"476 395 OFFCURVE",
"345 269 CURVE"
);
}
);
};
components = (
{
name = knO;
},
{
name = _part.dot;
transform = "{1, 0, 0, 1, 406, 0}";
}
);
guideLines = (
{
angle = 90;
position = "{519, 112}";
}
);
layerId = "B2172C24-6044-4DAC-9306-BA52E0CED158";
name = "Light Oct 14 15, 13:24";
paths = (
{
closed = 1;
nodes = (
"344 245 LINE",
"471 363 OFFCURVE",
"590 425 OFFCURVE",
"723 425 CURVE SMOOTH",
"816 425 OFFCURVE",
"859 396 OFFCURVE",
"859 335 CURVE SMOOTH",
"859 307 OFFCURVE",
"850 289 OFFCURVE",
"839 273 CURVE",
"858 265 LINE",
"871 283 OFFCURVE",
"881 304 OFFCURVE",
"881 336 CURVE SMOOTH",
"881 413 OFFCURVE",
"826 449 OFFCURVE",
"723 449 CURVE SMOOTH",
"596 449 OFFCURVE",
"476 395 OFFCURVE",
"345 269 CURVE"
);
}
);
width = 1096;
}
);
leftMetricsKey = knBA.base;
widthMetricsKey = knBA.base;
unicode = 0C99;
},
{
glyphname = knJA;
lastChange = "2015-10-15 22:03:08 +0000";
layers = (
{
background = {
paths = (
{
closed = 1;
nodes = (
"588 255 OFFCURVE",
"466 317 OFFCURVE",
"379 385 CURVE",
"365 372 LINE",
"465 288 OFFCURVE",
"597 231 OFFCURVE",
"758 231 CURVE SMOOTH",
"885 231 OFFCURVE",
"951 266 OFFCURVE",
"951 346 CURVE SMOOTH",
"951 371 OFFCURVE",
"944 396 OFFCURVE",
"929 417 CURVE",
"912 403 LINE",
"922 389 OFFCURVE",
"929 368 OFFCURVE",
"929 347 CURVE SMOOTH",
"929 283 OFFCURVE",
"868 255 OFFCURVE",
"755 255 CURVE SMOOTH"
);
}
);
};
components = (
{
name = knJA.base;
}
);
layerId = "034236B8-3FA8-43DA-9EDA-EFF269A687EC";
name = Light;
width = 1068;
}
);
unicode = 0C9C;
},
{
glyphname = knJHA;
lastChange = "2015-10-19 16:34:03 +0000";
layers = (
{
background = {
paths = (
{
closed = 1;
nodes = (
"707 191 LINE",
"754 53 OFFCURVE",
"869 -21 OFFCURVE",
"1039 -21 CURVE SMOOTH",
"1190 -21 OFFCURVE",
"1285 61 OFFCURVE",
"1285 190 CURVE SMOOTH",
"1285 296 OFFCURVE",
"1229 373 OFFCURVE",
"1107 403 CURVE",
"1101 384 LINE",
"1195 360 OFFCURVE",
"1263 303 OFFCURVE",
"1263 193 CURVE SMOOTH",
"1263 77 OFFCURVE",
"1181 4 OFFCURVE",
"1040 4 CURVE SMOOTH",
"876 4 OFFCURVE",
"773 73 OFFCURVE",
"727 194 CURVE"
);
}
);
};
components = (
{
name = knJHA.base;
piece = {
Group = 1;
"Terminal Height" = 0.309187;
Width = -0.104903;
};
},
{
disableAlignment = 1;
name = _part.headline;
transform = "{1, 0, 0, 1, 308, 0}";
}
);
guideLines = (
{
angle = 90;
position = "{728, 200}";
}
);
layerId = "034236B8-3FA8-43DA-9EDA-EFF269A687EC";
name = Light;
width = 1592;
}
);
leftMetricsKey = knRA.base;
rightMetricsKey = _part.knmU;
unicode = 0C9D;
},
{
glyphname = knNYA;
lastChange = "2015-10-15 22:03:08 +0000";
layers = (
{
anchors = (
{
name = headline;
position = "{1364, 381}";
}
);
background = {
paths = (
{
closed = 1;
nodes = (
"1004 342 OFFCURVE",
"1059 392 OFFCURVE",
"1157 392 CURVE SMOOTH",
"1251 392 OFFCURVE",
"1315 348 OFFCURVE",
"1315 242 CURVE SMOOTH",
"1315 212 OFFCURVE",
"1308 182 OFFCURVE",
"1295 151 CURVE",
"1313 144 LINE",
"1327 175 OFFCURVE",
"1334 209 OFFCURVE",
"1334 246 CURVE SMOOTH",
"1334 370 OFFCURVE",
"1251 417 OFFCURVE",
"1159 417 CURVE SMOOTH",
"1067 417 OFFCURVE",
"1001 375 OFFCURVE",
"958 283 CURVE",
"968 256 LINE"
);
},
{
closed = 1;
nodes = (
"1273 364 OFFCURVE",
"1278 369 OFFCURVE",
"1278 375 CURVE SMOOTH",
"1278 381 OFFCURVE",
"1273 386 OFFCURVE",
"1267 386 CURVE SMOOTH",
"1261 386 OFFCURVE",
"1256 381 OFFCURVE",
"1256 375 CURVE SMOOTH",
"1256 369 OFFCURVE",
"1261 364 OFFCURVE",
"1267 364 CURVE SMOOTH"
);
},
{
closed = 1;
nodes = (
"1274 363 OFFCURVE",
"1279 368 OFFCURVE",
"1279 375 CURVE SMOOTH",
"1279 382 OFFCURVE",
"1274 387 OFFCURVE",
"1267 387 CURVE SMOOTH",
"1260 387 OFFCURVE",
"1255 382 OFFCURVE",
"1255 375 CURVE SMOOTH",
"1255 368 OFFCURVE",
"1260 363 OFFCURVE",
"1267 363 CURVE SMOOTH"
);
}
);
};
components = (
{
name = knI;
transform = "{1, 0, 0, 1, 15, 0}";
}
);
layerId = "034236B8-3FA8-43DA-9EDA-EFF269A687EC";
name = Light;
paths = (
{
closed = 1;
nodes = (
"968 256 LINE",
"1008 341 OFFCURVE",
"1066 392 OFFCURVE",
"1161 392 CURVE SMOOTH",
"1254 392 OFFCURVE",
"1312 344 OFFCURVE",
"1312 246 CURVE SMOOTH",
"1312 210 OFFCURVE",
"1304 182 OFFCURVE",
"1289 151 CURVE",
"1310 144 LINE",
"1326 175 OFFCURVE",
"1334 208 OFFCURVE",
"1334 247 CURVE SMOOTH",
"1334 361 OFFCURVE",
"1261 417 OFFCURVE",
"1163 417 CURVE SMOOTH",
"1074 417 OFFCURVE",
"997 374 OFFCURVE",
"954 269 CURVE"
);
}
);
width = 1424;
}
);
unicode = 0C9E;
},
{
color = 4;
glyphname = knTTA;
lastChange = "2015-10-19 16:34:03 +0000";
layers = (
{
anchors = (
{
name = knmU;
position = "{1043, -21}";
}
);
background = {
anchors = (
{
name = knmU;
position = "{90, -21}";
}
);
guideLines = (
{
angle = 90;
position = "{303, 417}";
}
);
paths = (
{
closed = 1;
nodes = (
"906 382 OFFCURVE",
"956 412 OFFCURVE",
"956 468 CURVE SMOOTH",
"956 524 OFFCURVE",
"905 555 OFFCURVE",
"803 555 CURVE SMOOTH",
"767 555 OFFCURVE",
"734 551 OFFCURVE",
"708 545 CURVE",
"711 521 LINE",
"735 527 OFFCURVE",
"769 531 OFFCURVE",
"808 531 CURVE SMOOTH",
"881 531 OFFCURVE",
"934 516 OFFCURVE",
"934 468 CURVE SMOOTH",
"934 410 OFFCURVE",
"857 397 OFFCURVE",
"819 396 CURVE",
"819 381 LINE"
);
},
{
closed = 1;
nodes = (
"294 393 LINE",
"160 382 OFFCURVE",
"75 304 OFFCURVE",
"75 178 CURVE SMOOTH",
"75 53 OFFCURVE",
"161 -21 OFFCURVE",
"316 -21 CURVE SMOOTH",
"417 -21 OFFCURVE",
"513 10 OFFCURVE",
"564 113 CURVE",
"603 17 OFFCURVE",
"697 -21 OFFCURVE",
"803 -21 CURVE SMOOTH",
"954 -21 OFFCURVE",
"1058 56 OFFCURVE",
"1058 189 CURVE SMOOTH",
"1058 309 OFFCURVE",
"972 397 OFFCURVE",
"838 397 CURVE SMOOTH",
"758 397 OFFCURVE",
"696 366 OFFCURVE",
"696 303 CURVE SMOOTH",
"696 241 OFFCURVE",
"758 207 OFFCURVE",
"844 207 CURVE SMOOTH",
"902 207 OFFCURVE",
"974 222 OFFCURVE",
"1034 266 CURVE",
"1022 282 LINE",
"974 246 OFFCURVE",
"902 232 OFFCURVE",
"842 232 CURVE SMOOTH",
"779 232 OFFCURVE",
"720 248 OFFCURVE",
"720 302 CURVE SMOOTH",
"720 351 OFFCURVE",
"765 374 OFFCURVE",
"835 374 CURVE SMOOTH",
"976 374 OFFCURVE",
"1036 281 OFFCURVE",
"1036 190 CURVE SMOOTH",
"1036 81 OFFCURVE",
"950 4 OFFCURVE",
"801 4 CURVE SMOOTH",
"666 4 OFFCURVE",
"605 67 OFFCURVE",
"576 140 CURVE",
"552 140 LINE",
"514 48 OFFCURVE",
"438 4 OFFCURVE",
"318 4 CURVE SMOOTH",
"164 4 OFFCURVE",
"97 77 OFFCURVE",
"97 182 CURVE SMOOTH",
"97 305 OFFCURVE",
"192 375 OFFCURVE",
"321 375 CURVE SMOOTH",
"361 375 LINE",
"361 397 LINE",
"305 397 LINE SMOOTH",
"267 397 OFFCURVE",
"190 410 OFFCURVE",
"190 468 CURVE SMOOTH",
"190 516 OFFCURVE",
"243 531 OFFCURVE",
"314 531 CURVE SMOOTH",
"353 531 OFFCURVE",
"389 527 OFFCURVE",
"413 521 CURVE",
"416 545 LINE",
"388 551 OFFCURVE",
"353 555 OFFCURVE",
"319 555 CURVE SMOOTH",
"219 555 OFFCURVE",
"168 524 OFFCURVE",
"168 468 CURVE SMOOTH",
"168 414 OFFCURVE",
"214 385 OFFCURVE",
"294 382 CURVE"
);
}
);
};
layerId = "034236B8-3FA8-43DA-9EDA-EFF269A687EC";
name = Light;
paths = (
{
closed = 1;
nodes = (
"314 396 LINE",
"276 397 OFFCURVE",
"199 410 OFFCURVE",
"199 468 CURVE SMOOTH",
"199 516 OFFCURVE",
"252 531 OFFCURVE",
"325 531 CURVE SMOOTH",
"364 531 OFFCURVE",
"398 527 OFFCURVE",
"422 521 CURVE",
"425 545 LINE",
"399 551 OFFCURVE",
"366 555 OFFCURVE",
"330 555 CURVE SMOOTH",
"228 555 OFFCURVE",
"177 524 OFFCURVE",
"177 468 CURVE SMOOTH",
"177 412 OFFCURVE",
"227 382 OFFCURVE",
"314 381 CURVE"
);
},
{
closed = 1;
nodes = (
"919 385 OFFCURVE",
"965 414 OFFCURVE",
"965 468 CURVE SMOOTH",
"965 524 OFFCURVE",
"914 555 OFFCURVE",
"814 555 CURVE SMOOTH",
"780 555 OFFCURVE",
"745 551 OFFCURVE",
"717 545 CURVE",
"720 521 LINE",
"744 527 OFFCURVE",
"780 531 OFFCURVE",
"819 531 CURVE SMOOTH",
"890 531 OFFCURVE",
"943 516 OFFCURVE",
"943 468 CURVE SMOOTH",
"943 410 OFFCURVE",
"866 397 OFFCURVE",
"828 397 CURVE SMOOTH",
"772 397 LINE",
"772 375 LINE",
"812 375 LINE SMOOTH",
"941 375 OFFCURVE",
"1036 305 OFFCURVE",
"1036 182 CURVE SMOOTH",
"1036 77 OFFCURVE",
"969 4 OFFCURVE",
"818 4 CURVE SMOOTH",
"698 4 OFFCURVE",
"622 48 OFFCURVE",
"584 140 CURVE",
"560 140 LINE",
"531 67 OFFCURVE",
"470 4 OFFCURVE",
"330 4 CURVE SMOOTH",
"181 4 OFFCURVE",
"97 81 OFFCURVE",
"97 190 CURVE SMOOTH",
"97 281 OFFCURVE",
"157 374 OFFCURVE",
"298 374 CURVE SMOOTH",
"368 374 OFFCURVE",
"413 351 OFFCURVE",
"413 302 CURVE SMOOTH",
"413 248 OFFCURVE",
"354 232 OFFCURVE",
"291 232 CURVE SMOOTH",
"231 232 OFFCURVE",
"159 246 OFFCURVE",
"111 282 CURVE",
"99 266 LINE",
"159 222 OFFCURVE",
"231 207 OFFCURVE",
"289 207 CURVE SMOOTH",
"375 207 OFFCURVE",
"437 241 OFFCURVE",
"437 303 CURVE SMOOTH",
"437 366 OFFCURVE",
"375 397 OFFCURVE",
"295 397 CURVE SMOOTH",
"161 397 OFFCURVE",
"75 309 OFFCURVE",
"75 189 CURVE SMOOTH",
"75 56 OFFCURVE",
"177 -21 OFFCURVE",
"328 -21 CURVE SMOOTH",
"439 -21 OFFCURVE",
"533 17 OFFCURVE",
"572 113 CURVE",
"623 10 OFFCURVE",
"719 -21 OFFCURVE",
"820 -21 CURVE SMOOTH",
"972 -21 OFFCURVE",
"1058 53 OFFCURVE",
"1058 178 CURVE SMOOTH",
"1058 304 OFFCURVE",
"973 382 OFFCURVE",
"839 393 CURVE",
"839 382 LINE"
);
}
);
width = 1138;
},
{
associatedMasterId = "034236B8-3FA8-43DA-9EDA-EFF269A687EC";
background = {
guideLines = (
{
angle = 90;
position = "{318, 417}";
}
);
paths = (
{
closed = 1;
nodes = (
"458 -21 OFFCURVE",
"554 17 OFFCURVE",
"593 113 CURVE",
"635 15 OFFCURVE",
"725 -21 OFFCURVE",
"844 -21 CURVE SMOOTH",
"993 -21 OFFCURVE",
"1089 38 OFFCURVE",
"1089 180 CURVE SMOOTH",
"1089 311 OFFCURVE",
"984 385 OFFCURVE",
"777 403 CURVE",
"773 381 LINE",
"936 370 OFFCURVE",
"1067 311 OFFCURVE",
"1067 181 CURVE SMOOTH",
"1067 58 OFFCURVE",
"985 4 OFFCURVE",
"844 4 CURVE SMOOTH",
"712 4 OFFCURVE",
"644 48 OFFCURVE",
"605 140 CURVE",
"581 140 LINE",
"551 64 OFFCURVE",
"485 4 OFFCURVE",
"355 4 CURVE SMOOTH",
"204 4 OFFCURVE",
"119 84 OFFCURVE",
"119 202 CURVE SMOOTH",
"119 301 OFFCURVE",
"179 395 OFFCURVE",
"319 395 CURVE SMOOTH",
"390 395 OFFCURVE",
"435 371 OFFCURVE",
"435 323 CURVE SMOOTH",
"435 268 OFFCURVE",
"377 252 OFFCURVE",
"313 252 CURVE SMOOTH",
"253 252 OFFCURVE",
"181 266 OFFCURVE",
"133 302 CURVE",
"121 286 LINE",
"181 242 OFFCURVE",
"253 227 OFFCURVE",
"311 227 CURVE SMOOTH",
"397 227 OFFCURVE",
"459 261 OFFCURVE",
"459 323 CURVE SMOOTH",
"459 386 OFFCURVE",
"397 417 OFFCURVE",
"318 417 CURVE SMOOTH",
"183 417 OFFCURVE",
"97 328 OFFCURVE",
"97 200 CURVE SMOOTH",
"97 59 OFFCURVE",
"201 -21 OFFCURVE",
"353 -21 CURVE SMOOTH"
);
},
{
closed = 1;
nodes = (
"336 416 LINE",
"309 417 OFFCURVE",
"253 429 OFFCURVE",
"253 479 CURVE SMOOTH",
"253 524 OFFCURVE",
"297 540 OFFCURVE",
"357 540 CURVE SMOOTH",
"372 540 OFFCURVE",
"403 539 OFFCURVE",
"432 531 CURVE",
"435 554 LINE",
"409 560 OFFCURVE",
"378 563 OFFCURVE",
"353 563 CURVE SMOOTH",
"276 563 OFFCURVE",
"231 533 OFFCURVE",
"231 480 CURVE SMOOTH",
"231 431 OFFCURVE",
"269 402 OFFCURVE",
"336 401 CURVE"
);
},
{
closed = 1;
nodes = (
"336 416 LINE",
"309 417 OFFCURVE",
"253 429 OFFCURVE",
"253 479 CURVE SMOOTH",
"253 524 OFFCURVE",
"297 540 OFFCURVE",
"357 540 CURVE SMOOTH",
"372 540 OFFCURVE",
"403 539 OFFCURVE",
"432 531 CURVE",
"435 554 LINE",
"409 560 OFFCURVE",
"378 563 OFFCURVE",
"353 563 CURVE SMOOTH",
"276 563 OFFCURVE",
"231 533 OFFCURVE",
"231 480 CURVE SMOOTH",
"231 431 OFFCURVE",
"269 402 OFFCURVE",
"336 401 CURVE"
);
}
);
};
components = (
{
name = _part.headline;
transform = "{1, 0, 0, 1, 668, 0}";
piece = {
Width = 339;
};
},
{
name = knCHA.base;
}
);
guideLines = (
{
angle = 90;
position = "{318, 457}";
}
);
layerId = "E462B619-0C8C-4894-980B-31F764BFE6C7";
name = "Light Sep 18 15, 15:53";
paths = (
{
closed = 1;
nodes = (
"318 417 LINE",
"291 418 OFFCURVE",
"235 430 OFFCURVE",
"235 480 CURVE SMOOTH",
"235 525 OFFCURVE",
"279 541 OFFCURVE",
"339 541 CURVE SMOOTH",
"354 541 OFFCURVE",
"385 540 OFFCURVE",
"414 532 CURVE",
"417 555 LINE",
"391 561 OFFCURVE",
"360 564 OFFCURVE",
"335 564 CURVE SMOOTH",
"258 564 OFFCURVE",
"213 534 OFFCURVE",
"213 481 CURVE SMOOTH",
"213 432 OFFCURVE",
"251 403 OFFCURVE",
"318 402 CURVE"
);
}
);
width = 1180;
},
{
associatedMasterId = "034236B8-3FA8-43DA-9EDA-EFF269A687EC";
background = {
guideLines = (
{
angle = 90;
position = "{308, 417}";
}
);
paths = (
{
closed = 1;
nodes = (
"842 377 LINE",
"981 365 OFFCURVE",
"1072 288 OFFCURVE",
"1072 172 CURVE SMOOTH",
"1072 35 OFFCURVE",
"976 -21 OFFCURVE",
"827 -21 CURVE SMOOTH",
"708 -21 OFFCURVE",
"618 15 OFFCURVE",
"576 113 CURVE",
"537 17 OFFCURVE",
"441 -21 OFFCURVE",
"336 -21 CURVE SMOOTH",
"184 -21 OFFCURVE",
"80 55 OFFCURVE",
"80 190 CURVE SMOOTH",
"80 308 OFFCURVE",
"166 397 OFFCURVE",
"301 397 CURVE SMOOTH",
"380 397 OFFCURVE",
"442 366 OFFCURVE",
"442 303 CURVE SMOOTH",
"442 241 OFFCURVE",
"380 207 OFFCURVE",
"294 207 CURVE SMOOTH",
"236 207 OFFCURVE",
"164 222 OFFCURVE",
"104 266 CURVE",
"116 282 LINE",
"164 246 OFFCURVE",
"236 232 OFFCURVE",
"296 232 CURVE SMOOTH",
"360 232 OFFCURVE",
"418 248 OFFCURVE",
"418 303 CURVE SMOOTH",
"418 351 OFFCURVE",
"373 375 OFFCURVE",
"302 375 CURVE SMOOTH",
"162 375 OFFCURVE",
"102 281 OFFCURVE",
"102 192 CURVE SMOOTH",
"102 80 OFFCURVE",
"187 4 OFFCURVE",
"338 4 CURVE SMOOTH",
"468 4 OFFCURVE",
"534 64 OFFCURVE",
"564 140 CURVE",
"588 140 LINE",
"627 48 OFFCURVE",
"695 4 OFFCURVE",
"827 4 CURVE SMOOTH",
"968 4 OFFCURVE",
"1050 55 OFFCURVE",
"1050 173 CURVE SMOOTH",
"1050 295 OFFCURVE",
"941 358 OFFCURVE",
"807 361 CURVE",
"810 385 LINE",
"841 385 LINE SMOOTH",
"874 385 OFFCURVE",
"944 398 OFFCURVE",
"944 458 CURVE SMOOTH",
"944 508 OFFCURVE",
"896 529 OFFCURVE",
"830 529 CURVE SMOOTH",
"813 529 OFFCURVE",
"778 528 OFFCURVE",
"745 519 CURVE",
"742 542 LINE",
"771 549 OFFCURVE",
"806 552 OFFCURVE",
"834 552 CURVE SMOOTH",
"917 552 OFFCURVE",
"966 518 OFFCURVE",
"966 459 CURVE SMOOTH",
"966 400 OFFCURVE",
"920 371 OFFCURVE",
"842 370 CURVE"
);
},
{
closed = 1;
nodes = (
"319 396 LINE",
"286 397 OFFCURVE",
"216 409 OFFCURVE",
"216 469 CURVE SMOOTH",
"216 521 OFFCURVE",
"264 540 OFFCURVE",
"330 540 CURVE SMOOTH",
"347 540 OFFCURVE",
"382 539 OFFCURVE",
"415 530 CURVE",
"418 553 LINE",
"395 559 OFFCURVE",
"368 563 OFFCURVE",
"328 563 CURVE SMOOTH",
"243 563 OFFCURVE",
"194 529 OFFCURVE",
"194 470 CURVE SMOOTH",
"194 411 OFFCURVE",
"240 382 OFFCURVE",
"319 381 CURVE"
);
}
);
};
guideLines = (
{
angle = 90;
position = "{308, 457}";
}
);
layerId = "8A36C71D-DE89-444D-88D6-54C491D711A0";
name = "Light Sep 18 15, 15:59";
paths = (
{
closed = 1;
nodes = (
"842 397 LINE",
"981 385 OFFCURVE",
"1072 308 OFFCURVE",
"1072 182 CURVE SMOOTH",
"1072 38 OFFCURVE",
"976 -21 OFFCURVE",
"827 -21 CURVE SMOOTH",
"708 -21 OFFCURVE",
"618 15 OFFCURVE",
"576 113 CURVE",
"537 17 OFFCURVE",
"441 -21 OFFCURVE",
"336 -21 CURVE SMOOTH",
"184 -21 OFFCURVE",
"80 59 OFFCURVE",
"80 200 CURVE SMOOTH",
"80 328 OFFCURVE",
"166 417 OFFCURVE",
"301 417 CURVE SMOOTH",
"380 417 OFFCURVE",
"442 386 OFFCURVE",
"442 323 CURVE SMOOTH",
"442 261 OFFCURVE",
"380 227 OFFCURVE",
"294 227 CURVE SMOOTH",
"236 227 OFFCURVE",
"164 242 OFFCURVE",
"104 286 CURVE",
"116 302 LINE",
"164 266 OFFCURVE",
"236 252 OFFCURVE",
"296 252 CURVE SMOOTH",
"360 252 OFFCURVE",
"418 268 OFFCURVE",
"418 323 CURVE SMOOTH",
"418 371 OFFCURVE",
"373 395 OFFCURVE",
"302 395 CURVE SMOOTH",
"162 395 OFFCURVE",
"102 301 OFFCURVE",
"102 202 CURVE SMOOTH",
"102 84 OFFCURVE",
"187 4 OFFCURVE",
"338 4 CURVE SMOOTH",
"468 4 OFFCURVE",
"534 64 OFFCURVE",
"564 140 CURVE",
"588 140 LINE",
"627 48 OFFCURVE",
"695 4 OFFCURVE",
"827 4 CURVE SMOOTH",
"968 4 OFFCURVE",
"1050 58 OFFCURVE",
"1050 183 CURVE SMOOTH",
"1050 315 OFFCURVE",
"941 378 OFFCURVE",
"807 381 CURVE",
"810 405 LINE",
"841 405 LINE SMOOTH",
"868 405 OFFCURVE",
"924 418 OFFCURVE",
"924 468 CURVE SMOOTH",
"924 513 OFFCURVE",
"880 529 OFFCURVE",
"820 529 CURVE SMOOTH",
"805 529 OFFCURVE",
"774 528 OFFCURVE",
"745 520 CURVE",
"742 543 LINE",
"768 549 OFFCURVE",
"799 552 OFFCURVE",
"824 552 CURVE SMOOTH",
"901 552 OFFCURVE",
"946 522 OFFCURVE",
"946 469 CURVE SMOOTH",
"946 420 OFFCURVE",
"908 391 OFFCURVE",
"842 390 CURVE"
);
},
{
closed = 1;
nodes = (
"319 416 LINE",
"292 417 OFFCURVE",
"236 429 OFFCURVE",
"236 479 CURVE SMOOTH",
"236 524 OFFCURVE",
"280 540 OFFCURVE",
"340 540 CURVE SMOOTH",
"355 540 OFFCURVE",
"386 539 OFFCURVE",
"415 531 CURVE",
"418 554 LINE",
"392 560 OFFCURVE",
"361 563 OFFCURVE",
"336 563 CURVE SMOOTH",
"259 563 OFFCURVE",
"214 533 OFFCURVE",
"214 480 CURVE SMOOTH",
"214 431 OFFCURVE",
"252 402 OFFCURVE",
"319 401 CURVE"
);
},
{
closed = 1;
nodes = (
"319 416 LINE",
"292 417 OFFCURVE",
"236 429 OFFCURVE",
"236 479 CURVE SMOOTH",
"236 524 OFFCURVE",
"280 540 OFFCURVE",
"340 540 CURVE SMOOTH",
"355 540 OFFCURVE",
"386 539 OFFCURVE",
"415 531 CURVE",
"418 554 LINE",
"392 560 OFFCURVE",
"361 563 OFFCURVE",
"336 563 CURVE SMOOTH",
"259 563 OFFCURVE",
"214 533 OFFCURVE",
"214 480 CURVE SMOOTH",
"214 431 OFFCURVE",
"252 402 OFFCURVE",
"319 401 CURVE"
);
}
);
width = 1152;
}
);
leftMetricsKey = knLLLA.base;
rightMetricsKey = knCHA.base;
unicode = 0C9F;
},
{
glyphname = knDDHA;
lastChange = "2015-10-15 22:03:08 +0000";
layers = (
{
background = {
paths = (
{
closed = 1;
nodes = (
"233 -9 CURVE SMOOTH",
"307 -9 OFFCURVE",
"365 37 OFFCURVE",
"374 104 CURVE",
"382 40 OFFCURVE",
"444 -9 OFFCURVE",
"534 -9 CURVE SMOOTH",
"644 -9 OFFCURVE",
"719 81 OFFCURVE",
"719 210 CURVE SMOOTH",
"719 395 OFFCURVE",
"594 536 OFFCURVE",
"368 536 CURVE SMOOTH",
"180 536 OFFCURVE",
"38 394 OFFCURVE",
"38 209 CURVE SMOOTH",
"38 81 OFFCURVE",
"110 -9 OFFCURVE"
);
},
{
closed = 1;
nodes = (
"330 -186 LINE",
"417 -186 LINE",
"417 -172 LINE",
"387 4 LINE",
"360 4 LINE",
"330 -172 LINE"
);
},
{
closed = 1;
nodes = (
"233 43 CURVE SMOOTH",
"149 43 OFFCURVE",
"100 114 OFFCURVE",
"100 210 CURVE SMOOTH",
"100 365 OFFCURVE",
"223 492 OFFCURVE",
"378 492 CURVE SMOOTH",
"459 492 OFFCURVE",
"505 474 OFFCURVE",
"552 444 CURVE",
"540 464 LINE",
"454 463 OFFCURVE",
"404 403 OFFCURVE",
"404 338 CURVE SMOOTH",
"404 269 OFFCURVE",
"456 216 OFFCURVE",
"532 216 CURVE SMOOTH",
"612 216 OFFCURVE",
"661 275 OFFCURVE",
"662 344 CURVE",
"616 363 LINE",
"649 316 OFFCURVE",
"662 270 OFFCURVE",
"662 211 CURVE SMOOTH",
"662 110 OFFCURVE",
"610 43 OFFCURVE",
"534 43 CURVE SMOOTH",
"457 43 OFFCURVE",
"405 95 OFFCURVE",
"405 168 CURVE SMOOTH",
"405 199 LINE",
"343 199 LINE",
"343 168 LINE SMOOTH",
"343 95 OFFCURVE",
"296 43 OFFCURVE"
);
},
{
closed = 1;
nodes = (
"539 267 CURVE SMOOTH",
"492 267 OFFCURVE",
"462 298 OFFCURVE",
"462 341 CURVE SMOOTH",
"462 384 OFFCURVE",
"494 418 OFFCURVE",
"539 418 CURVE SMOOTH",
"583 418 OFFCURVE",
"614 384 OFFCURVE",
"614 341 CURVE SMOOTH",
"614 300 OFFCURVE",
"583 267 OFFCURVE"
);
},
{
closed = 1;
nodes = (
"44 492 LINE",
"612 492 LINE SMOOTH",
"685 492 OFFCURVE",
"719 523 OFFCURVE",
"719 577 CURVE SMOOTH",
"719 590 OFFCURVE",
"717 602 OFFCURVE",
"713 615 CURVE",
"654 615 LINE",
"656 606 OFFCURVE",
"658 598 OFFCURVE",
"658 591 CURVE SMOOTH",
"658 560 OFFCURVE",
"636 546 OFFCURVE",
"595 546 CURVE SMOOTH",
"44 546 LINE"
);
}
);
};
components = (
{
name = knDDA.base;
},
{
name = _part.headline;
transform = "{1, 0, 0, 1, 585, 0}";
},
{
name = _part.teardrop;
transform = "{1, 0, 0, 1, 425, -21}";
}
);
layerId = "034236B8-3FA8-43DA-9EDA-EFF269A687EC";
name = Light;
width = 1095;
}
);
leftMetricsKey = knDA.base;
unicode = 0CA2;
},
{
glyphname = knTHA;
lastChange = "2015-10-15 22:03:08 +0000";
layers = (
{
background = {
paths = (
{
closed = 1;
nodes = (
"218 -9 CURVE SMOOTH",
"302 -9 OFFCURVE",
"345 34 OFFCURVE",
"355 104 CURVE",
"364 34 OFFCURVE",
"408 -9 OFFCURVE",
"490 -9 CURVE SMOOTH",
"599 -9 OFFCURVE",
"671 82 OFFCURVE",
"671 216 CURVE SMOOTH",
"671 411 OFFCURVE",
"542 540 OFFCURVE",
"355 540 CURVE SMOOTH",
"168 540 OFFCURVE",
"38 411 OFFCURVE",
"38 216 CURVE SMOOTH",
"38 82 OFFCURVE",
"111 -9 OFFCURVE"
);
},
{
closed = 1;
nodes = (
"312 -186 LINE",
"398 -186 LINE",
"398 -172 LINE",
"369 4 LINE",
"342 4 LINE",
"312 -172 LINE"
);
},
{
closed = 1;
nodes = (
"222 43 CURVE SMOOTH",
"149 43 OFFCURVE",
"100 114 OFFCURVE",
"100 217 CURVE SMOOTH",
"100 380 OFFCURVE",
"204 492 OFFCURVE",
"354 492 CURVE SMOOTH",
"504 492 OFFCURVE",
"609 380 OFFCURVE",
"609 217 CURVE SMOOTH",
"609 114 OFFCURVE",
"561 43 OFFCURVE",
"489 43 CURVE SMOOTH",
"419 43 OFFCURVE",
"385 100 OFFCURVE",
"385 174 CURVE SMOOTH",
"385 209 LINE",
"323 209 LINE",
"323 174 LINE SMOOTH",
"323 100 OFFCURVE",
"289 43 OFFCURVE"
);
},
{
closed = 1;
nodes = (
"355 301 CURVE SMOOTH",
"381 301 OFFCURVE",
"402 322 OFFCURVE",
"402 349 CURVE SMOOTH",
"402 376 OFFCURVE",
"381 397 OFFCURVE",
"355 397 CURVE SMOOTH",
"327 397 OFFCURVE",
"306 376 OFFCURVE",
"306 349 CURVE SMOOTH",
"306 322 OFFCURVE",
"327 301 OFFCURVE"
);
},
{
closed = 1;
nodes = (
"44 492 LINE",
"564 492 LINE SMOOTH",
"637 492 OFFCURVE",
"671 523 OFFCURVE",
"671 577 CURVE SMOOTH",
"671 590 OFFCURVE",
"669 602 OFFCURVE",
"665 615 CURVE",
"607 615 LINE",
"609 606 OFFCURVE",
"610 598 OFFCURVE",
"610 591 CURVE SMOOTH",
"610 560 OFFCURVE",
"589 546 OFFCURVE",
"548 546 CURVE SMOOTH",
"44 546 LINE"
);
}
);
};
components = (
{
name = knTHA.base;
},
{
name = _part.headline;
transform = "{1, 0, 0, 1, 585, 0}";
piece = {
Width = 288;
};
}
);
layerId = "034236B8-3FA8-43DA-9EDA-EFF269A687EC";
name = Light;
width = 1098;
}
);
unicode = 0CA5;
},
{
glyphname = knDHA;
lastChange = "2015-10-15 22:03:08 +0000";
layers = (
{
background = {
paths = (
{
closed = 1;
nodes = (
"218 -9 CURVE SMOOTH",
"302 -9 OFFCURVE",
"345 34 OFFCURVE",
"355 104 CURVE",
"364 34 OFFCURVE",
"408 -9 OFFCURVE",
"490 -9 CURVE SMOOTH",
"599 -9 OFFCURVE",
"671 82 OFFCURVE",
"671 216 CURVE SMOOTH",
"671 411 OFFCURVE",
"542 540 OFFCURVE",
"355 540 CURVE SMOOTH",
"168 540 OFFCURVE",
"38 411 OFFCURVE",
"38 216 CURVE SMOOTH",
"38 82 OFFCURVE",
"111 -9 OFFCURVE"
);
},
{
closed = 1;
nodes = (
"312 -186 LINE",
"398 -186 LINE",
"398 -172 LINE",
"369 4 LINE",
"342 4 LINE",
"312 -172 LINE"
);
},
{
closed = 1;
nodes = (
"222 43 CURVE SMOOTH",
"149 43 OFFCURVE",
"100 114 OFFCURVE",
"100 217 CURVE SMOOTH",
"100 380 OFFCURVE",
"204 492 OFFCURVE",
"354 492 CURVE SMOOTH",
"504 492 OFFCURVE",
"609 380 OFFCURVE",
"609 217 CURVE SMOOTH",
"609 114 OFFCURVE",
"561 43 OFFCURVE",
"489 43 CURVE SMOOTH",
"419 43 OFFCURVE",
"385 100 OFFCURVE",
"385 174 CURVE SMOOTH",
"385 209 LINE",
"323 209 LINE",
"323 174 LINE SMOOTH",
"323 100 OFFCURVE",
"289 43 OFFCURVE"
);
},
{
closed = 1;
nodes = (
"44 492 LINE",
"564 492 LINE SMOOTH",
"637 492 OFFCURVE",
"671 523 OFFCURVE",
"671 577 CURVE SMOOTH",
"671 590 OFFCURVE",
"669 602 OFFCURVE",
"665 615 CURVE",
"607 615 LINE",
"609 606 OFFCURVE",
"610 598 OFFCURVE",
"610 591 CURVE SMOOTH",
"610 560 OFFCURVE",
"589 546 OFFCURVE",
"548 546 CURVE SMOOTH",
"44 546 LINE"
);
}
);
};
components = (
{
name = knDHA.base;
},
{
name = _part.headline;
transform = "{1, 0, 0, 1, 585, 0}";
piece = {
Width = 288;
};
}
);
layerId = "034236B8-3FA8-43DA-9EDA-EFF269A687EC";
name = Light;
width = 1098;
}
);
unicode = 0CA7;
},
{
glyphname = knNA;
lastChange = "2015-10-15 22:03:08 +0000";
layers = (
{
background = {
anchors = (
{
name = headline;
position = "{833, 381}";
},
{
name = knmU;
position = "{825, -21}";
},
{
name = knmUU;
position = "{833, -31}";
},
{
name = virama;
position = "{833, 381}";
}
);
paths = (
{
closed = 1;
nodes = (
"184 415 LINE",
"182 415 LINE",
"182 1 LINE",
"184 1 LINE"
);
},
{
closed = 1;
nodes = (
"322 415 LINE",
"320 415 LINE",
"320 1 LINE",
"322 1 LINE"
);
},
{
closed = 1;
nodes = (
"460 415 LINE",
"458 415 LINE",
"458 1 LINE",
"460 1 LINE"
);
},
{
closed = 1;
nodes = (
"598 415 LINE",
"596 415 LINE",
"596 1 LINE",
"598 1 LINE"
);
},
{
closed = 1;
nodes = (
"736 415 LINE",
"734 415 LINE",
"734 1 LINE",
"736 1 LINE"
);
},
{
closed = 1;
nodes = (
"874 415 LINE",
"872 415 LINE",
"872 1 LINE",
"874 1 LINE"
);
},
{
closed = 1;
nodes = (
"874 414 LINE",
"874 416 LINE",
"44 416 LINE",
"44 414 LINE"
);
},
{
closed = 1;
nodes = (
"874 276 LINE",
"874 278 LINE",
"44 278 LINE",
"44 276 LINE"
);
},
{
closed = 1;
nodes = (
"874 138 LINE",
"874 140 LINE",
"44 140 LINE",
"44 138 LINE"
);
},
{
closed = 1;
nodes = (
"874 0 LINE",
"874 2 LINE",
"44 2 LINE",
"44 0 LINE"
);
},
{
closed = 1;
nodes = (
"46 415 LINE",
"44 415 LINE",
"44 1 LINE",
"46 1 LINE"
);
},
{
closed = 1;
nodes = (
"226 3 LINE",
"148 3 OFFCURVE",
"108 46 OFFCURVE",
"108 103 CURVE SMOOTH",
"108 167 OFFCURVE",
"155 210 OFFCURVE",
"238 210 CURVE SMOOTH",
"434 210 OFFCURVE",
"401 -19 OFFCURVE",
"643 -19 CURVE SMOOTH",
"763 -19 OFFCURVE",
"833 40 OFFCURVE",
"833 148 CURVE SMOOTH",
"833 309 OFFCURVE",
"692 399 OFFCURVE",
"438 399 CURVE",
"438 381 LINE",
"677 380 OFFCURVE",
"810 297 OFFCURVE",
"810 148 CURVE SMOOTH",
"810 56 OFFCURVE",
"752 5 OFFCURVE",
"644 5 CURVE SMOOTH",
"409 5 OFFCURVE",
"455 234 OFFCURVE",
"240 234 CURVE SMOOTH",
"144 234 OFFCURVE",
"85 186 OFFCURVE",
"85 103 CURVE SMOOTH",
"85 22 OFFCURVE",
"144 -21 OFFCURVE",
"224 -21 CURVE"
);
}
);
};
components = (
{
name = knNA.base;
},
{
name = _part.headline;
transform = "{1, 0, 0, 1, 410, 0}";
piece = {
Width = 250;
};
}
);
layerId = "034236B8-3FA8-43DA-9EDA-EFF269A687EC";
name = Light;
width = 927;
}
);
unicode = 0CA8;
},
{
glyphname = knPHA;
lastChange = "2015-10-15 22:03:08 +0000";
layers = (
{
background = {
paths = (
{
closed = 1;
nodes = (
"410 353 LINE SMOOTH",
"475 353 OFFCURVE",
"511 377 OFFCURVE",
"511 423 CURVE SMOOTH",
"511 445 OFFCURVE",
"503 463 OFFCURVE",
"494 474 CURVE",
"477 465 LINE",
"484 453 OFFCURVE",
"487 439 OFFCURVE",
"487 427 CURVE SMOOTH",
"487 392 OFFCURVE",
"462 377 OFFCURVE",
"408 377 CURVE SMOOTH",
"2 377 LINE",
"2 353 LINE"
);
},
{
closed = 1;
nodes = (
"174 148 LINE",
"159 158 OFFCURVE",
"138 163 OFFCURVE",
"117 163 CURVE SMOOTH",
"68 163 OFFCURVE",
"36 134 OFFCURVE",
"36 84 CURVE SMOOTH",
"36 31 OFFCURVE",
"72 4 OFFCURVE",
"129 4 CURVE SMOOTH",
"194 4 OFFCURVE",
"231 38 OFFCURVE",
"238 101 CURVE",
"262 101 LINE",
"272 36 OFFCURVE",
"306 4 OFFCURVE",
"365 4 CURVE SMOOTH",
"426 4 OFFCURVE",
"476 39 OFFCURVE",
"476 122 CURVE SMOOTH",
"476 197 OFFCURVE",
"436 233 OFFCURVE",
"389 260 CURVE",
"399 277 LINE",
"464 243 OFFCURVE",
"500 201 OFFCURVE",
"500 124 CURVE SMOOTH",
"500 23 OFFCURVE",
"439 -21 OFFCURVE",
"367 -21 CURVE SMOOTH",
"315 -21 OFFCURVE",
"262 1 OFFCURVE",
"250 76 CURVE",
"242 14 OFFCURVE",
"202 -21 OFFCURVE",
"130 -21 CURVE SMOOTH",
"57 -21 OFFCURVE",
"12 15 OFFCURVE",
"12 82 CURVE SMOOTH",
"12 148 OFFCURVE",
"56 185 OFFCURVE",
"116 185 CURVE SMOOTH",
"142 185 OFFCURVE",
"166 178 OFFCURVE",
"184 163 CURVE"
);
},
{
closed = 1;
nodes = (
"218 219 OFFCURVE",
"232 204 OFFCURVE",
"253 204 CURVE SMOOTH",
"274 204 OFFCURVE",
"288 219 OFFCURVE",
"288 238 CURVE SMOOTH",
"288 257 OFFCURVE",
"274 272 OFFCURVE",
"253 272 CURVE SMOOTH",
"232 272 OFFCURVE",
"218 257 OFFCURVE",
"218 238 CURVE SMOOTH"
);
}
);
};
components = (
{
name = knPHA.base;
},
{
name = _part.headline;
transform = "{1, 0, 0, 1, 499, 0}";
piece = {
Width = 280.312;
};
}
);
guideLines = (
{
angle = 90;
position = "{896, 124}";
}
);
layerId = "034236B8-3FA8-43DA-9EDA-EFF269A687EC";
name = Light;
width = 1009;
}
);
unicode = 0CAB;
},
{
glyphname = knBHA;
lastChange = "2015-10-15 22:03:08 +0000";
layers = (
{
background = {
paths = (
{
closed = 1;
nodes = (
"205 -9 CURVE SMOOTH",
"286 -9 OFFCURVE",
"343 30 OFFCURVE",
"359 99 CURVE",
"370 30 OFFCURVE",
"420 -9 OFFCURVE",
"494 -9 CURVE SMOOTH",
"605 -9 OFFCURVE",
"678 86 OFFCURVE",
"678 245 CURVE SMOOTH",
"678 402 OFFCURVE",
"565 522 OFFCURVE",
"435 523 CURVE",
"403 492 LINE",
"537 491 OFFCURVE",
"615 354 OFFCURVE",
"615 244 CURVE SMOOTH",
"615 134 OFFCURVE",
"582 43 OFFCURVE",
"495 43 CURVE SMOOTH",
"432 43 OFFCURVE",
"391 94 OFFCURVE",
"391 165 CURVE",
"391 209 LINE",
"329 209 LINE",
"329 165 LINE",
"329 96 OFFCURVE",
"281 43 OFFCURVE",
"209 43 CURVE SMOOTH",
"145 43 OFFCURVE",
"110 79 OFFCURVE",
"110 132 CURVE SMOOTH",
"110 265 OFFCURVE",
"334 276 OFFCURVE",
"334 423 CURVE SMOOTH",
"334 492 OFFCURVE",
"280 557 OFFCURVE",
"201 557 CURVE SMOOTH",
"115 557 OFFCURVE",
"64 500 OFFCURVE",
"64 423 CURVE SMOOTH",
"64 409 OFFCURVE",
"66 394 OFFCURVE",
"70 379 CURVE",
"129 379 LINE",
"126 394 OFFCURVE",
"124 407 OFFCURVE",
"124 420 CURVE SMOOTH",
"124 476 OFFCURVE",
"158 504 OFFCURVE",
"201 504 CURVE SMOOTH",
"248 504 OFFCURVE",
"274 471 OFFCURVE",
"274 422 CURVE SMOOTH",
"274 303 OFFCURVE",
"47 293 OFFCURVE",
"47 132 CURVE SMOOTH",
"47 47 OFFCURVE",
"112 -9 OFFCURVE"
);
},
{
closed = 1;
nodes = (
"315 -186 LINE",
"402 -186 LINE",
"402 -172 LINE",
"372 4 LINE",
"345 4 LINE",
"315 -172 LINE"
);
},
{
closed = 1;
nodes = (
"404 492 LINE",
"546 492 LINE SMOOTH",
"619 492 OFFCURVE",
"653 523 OFFCURVE",
"653 577 CURVE SMOOTH",
"653 590 OFFCURVE",
"652 602 OFFCURVE",
"647 615 CURVE",
"589 615 LINE",
"591 606 OFFCURVE",
"592 598 OFFCURVE",
"592 591 CURVE SMOOTH",
"592 560 OFFCURVE",
"571 546 OFFCURVE",
"530 546 CURVE SMOOTH",
"404 546 LINE"
);
}
);
};
components = (
{
name = knBHA.base;
},
{
name = _part.headline;
transform = "{1, 0, 0, 1, 566, 0}";
piece = {
Width = 361;
};
}
);
layerId = "034236B8-3FA8-43DA-9EDA-EFF269A687EC";
name = Light;
width = 1068;
}
);
unicode = 0CAD;
},
{
glyphname = knMA;
lastChange = "2015-10-19 16:34:03 +0000";
layers = (
{
anchors = (
{
name = headline;
position = "{1352, 383}";
},
{
name = knmU;
position = "{1315, -21}";
}
);
background = {
paths = (
{
closed = 1;
nodes = (
"212 -9 CURVE SMOOTH",
"287 -9 OFFCURVE",
"340 30 OFFCURVE",
"352 99 CURVE",
"362 30 OFFCURVE",
"418 -9 OFFCURVE",
"493 -9 CURVE SMOOTH",
"599 -9 OFFCURVE",
"668 75 OFFCURVE",
"668 217 CURVE SMOOTH",
"668 373 OFFCURVE",
"560 520 OFFCURVE",
"357 520 CURVE SMOOTH",
"345 520 OFFCURVE",
"337 519 OFFCURVE",
"324 516 CURVE",
"314 492 LINE",
"507 492 OFFCURVE",
"605 353 OFFCURVE",
"605 218 CURVE SMOOTH",
"605 107 OFFCURVE",
"563 43 OFFCURVE",
"493 43 CURVE SMOOTH",
"424 43 OFFCURVE",
"382 96 OFFCURVE",
"382 165 CURVE",
"382 209 LINE",
"320 209 LINE",
"320 165 LINE SMOOTH",
"320 94 OFFCURVE",
"275 43 OFFCURVE",
"212 43 CURVE SMOOTH",
"139 43 OFFCURVE",
"99 93 OFFCURVE",
"99 157 CURVE SMOOTH",
"99 230 OFFCURVE",
"149 272 OFFCURVE",
"213 272 CURVE SMOOTH",
"222 272 OFFCURVE",
"232 271 OFFCURVE",
"242 269 CURVE",
"242 326 LINE",
"232 328 OFFCURVE",
"219 329 OFFCURVE",
"210 329 CURVE SMOOTH",
"112 329 OFFCURVE",
"38 260 OFFCURVE",
"38 156 CURVE SMOOTH",
"38 60 OFFCURVE",
"104 -9 OFFCURVE"
);
},
{
closed = 1;
nodes = (
"56 492 LINE",
"531 492 LINE SMOOTH",
"605 492 OFFCURVE",
"638 523 OFFCURVE",
"638 577 CURVE SMOOTH",
"638 590 OFFCURVE",
"636 602 OFFCURVE",
"633 615 CURVE",
"574 615 LINE",
"576 606 OFFCURVE",
"577 598 OFFCURVE",
"577 591 CURVE SMOOTH",
"577 560 OFFCURVE",
"556 546 OFFCURVE",
"515 546 CURVE SMOOTH",
"56 546 LINE"
);
},
{
closed = 1;
nodes = (
"623 217 LINE",
"623 83 OFFCURVE",
"686 -10 OFFCURVE",
"806 -10 CURVE SMOOTH",
"951 -10 OFFCURVE",
"1009 102 OFFCURVE",
"1009 257 CURVE SMOOTH",
"1009 409 OFFCURVE",
"911 546 OFFCURVE",
"744 546 CURVE",
"744 491 LINE",
"863 491 OFFCURVE",
"947 389 OFFCURVE",
"947 255 CURVE SMOOTH",
"947 130 OFFCURVE",
"907 42 OFFCURVE",
"802 42 CURVE SMOOTH",
"722 42 OFFCURVE",
"668 109 OFFCURVE",
"667 218 CURVE"
);
}
);
};
components = (
{
disableAlignment = 1;
name = knVA;
},
{
name = _part.knmU;
transform = "{1, 0, 0, 1, 1036, 0}";
piece = {
"Terminal Height" = 170;
};
}
);
guideLines = (
{
angle = 90;
position = "{1352, 189}";
}
);
layerId = "034236B8-3FA8-43DA-9EDA-EFF269A687EC";
name = Light;
width = 1432;
}
);
leftMetricsKey = knPA.base;
rightMetricsKey = _part.knmU;
unicode = 0CAE;
},
{
glyphname = knLA;
lastChange = "2015-10-15 22:03:08 +0000";
layers = (
{
background = {
paths = (
{
closed = 1;
nodes = (
"385 393 OFFCURVE",
"434 371 OFFCURVE",
"434 323 CURVE SMOOTH",
"434 268 OFFCURVE",
"373 252 OFFCURVE",
"304 252 CURVE SMOOTH",
"240 252 OFFCURVE",
"165 266 OFFCURVE",
"114 302 CURVE",
"102 286 LINE",
"165 242 OFFCURVE",
"241 227 OFFCURVE",
"302 227 CURVE SMOOTH",
"394 227 OFFCURVE",
"458 261 OFFCURVE",
"458 323 CURVE SMOOTH",
"458 386 OFFCURVE",
"394 417 OFFCURVE",
"310 417 CURVE SMOOTH",
"168 417 OFFCURVE",
"78 328 OFFCURVE",
"78 220 CURVE SMOOTH",
"78 60 OFFCURVE",
"274 -21 OFFCURVE",
"529 -21 CURVE SMOOTH",
"791 -21 OFFCURVE",
"954 64 OFFCURVE",
"954 202 CURVE SMOOTH",
"954 314 OFFCURVE",
"847 387 OFFCURVE",
"706 405 CURVE",
"698 384 LINE",
"830 367 OFFCURVE",
"931 306 OFFCURVE",
"931 205 CURVE SMOOTH",
"931 80 OFFCURVE",
"777 4 OFFCURVE",
"529 4 CURVE SMOOTH",
"279 4 OFFCURVE",
"100 81 OFFCURVE",
"100 222 CURVE SMOOTH",
"100 304 OFFCURVE",
"163 393 OFFCURVE",
"312 393 CURVE SMOOTH"
);
}
);
};
components = (
{
name = knLA.base;
}
);
layerId = "034236B8-3FA8-43DA-9EDA-EFF269A687EC";
name = Light;
width = 1036;
}
);
unicode = 0CB2;
},
{
glyphname = knVA;
lastChange = "2015-10-19 16:34:03 +0000";
layers = (
{
background = {
paths = (
{
closed = 1;
nodes = (
"379 -21 OFFCURVE",
"455 23 OFFCURVE",
"499 113 CURVE",
"545 15 OFFCURVE",
"638 -21 OFFCURVE",
"735 -21 CURVE SMOOTH",
"861 -21 OFFCURVE",
"942 39 OFFCURVE",
"942 168 CURVE SMOOTH",
"942 308 OFFCURVE",
"830 379 OFFCURVE",
"638 402 CURVE",
"635 383 LINE",
"815 361 OFFCURVE",
"920 296 OFFCURVE",
"920 170 CURVE SMOOTH",
"920 50 OFFCURVE",
"840 4 OFFCURVE",
"733 4 CURVE SMOOTH",
"622 4 OFFCURVE",
"549 54 OFFCURVE",
"511 140 CURVE",
"487 140 LINE",
"448 52 OFFCURVE",
"380 4 OFFCURVE",
"263 4 CURVE SMOOTH",
"167 4 OFFCURVE",
"99 36 OFFCURVE",
"99 108 CURVE SMOOTH",
"99 175 OFFCURVE",
"159 206 OFFCURVE",
"246 206 CURVE SMOOTH",
"281 206 OFFCURVE",
"314 201 OFFCURVE",
"342 191 CURVE",
"347 212 LINE",
"328 221 OFFCURVE",
"288 228 OFFCURVE",
"246 228 CURVE SMOOTH",
"148 228 OFFCURVE",
"77 189 OFFCURVE",
"77 105 CURVE SMOOTH",
"77 19 OFFCURVE",
"152 -21 OFFCURVE",
"263 -21 CURVE SMOOTH"
);
},
{
closed = 1;
nodes = (
"696 383 LINE",
"696 405 LINE",
"65 405 LINE",
"65 383 LINE"
);
}
);
};
components = (
{
name = _part.headline;
transform = "{1, 0, 0, 1, 522, 0}";
piece = {
Width = 280.312;
};
},
{
name = knVA.base;
}
);
layerId = "034236B8-3FA8-43DA-9EDA-EFF269A687EC";
name = Light;
width = 1022;
}
);
leftMetricsKey = knPA.base;
unicode = 0CB5;
},
{
glyphname = knSSA;
lastChange = "2015-10-15 22:03:08 +0000";
layers = (
{
background = {
paths = (
{
closed = 1;
nodes = (
"903 -28 LINE",
"918 -9 LINE",
"597.755 236.681 LINE",
"584.245 219.319 LINE"
);
},
{
closed = 1;
nodes = (
"917 -30 OFFCURVE",
"922 -25 OFFCURVE",
"922 -18 CURVE SMOOTH",
"922 -11 OFFCURVE",
"917 -6 OFFCURVE",
"910 -6 CURVE SMOOTH",
"903 -6 OFFCURVE",
"898 -11 OFFCURVE",
"898 -18 CURVE SMOOTH",
"898 -25 OFFCURVE",
"903 -30 OFFCURVE",
"910 -30 CURVE SMOOTH"
);
}
);
};
components = (
{
name = knSSA.base;
},
{
name = _part.headline;
transform = "{1, 0, 0, 1, 499, 0}";
piece = {
Width = 280.312;
};
}
);
layerId = "034236B8-3FA8-43DA-9EDA-EFF269A687EC";
name = Light;
width = 1009;
}
);
unicode = 0CB7;
},
{
glyphname = knRRA;
lastChange = "2015-10-19 16:34:08 +0000";
layers = (
{
background = {
paths = (
{
closed = 1;
nodes = (
"253 -9 CURVE SMOOTH",
"331 -9 OFFCURVE",
"387 30 OFFCURVE",
"399 99 CURVE",
"410 30 OFFCURVE",
"466 -9 OFFCURVE",
"544 -9 CURVE SMOOTH",
"693 -9 OFFCURVE",
"750 114 OFFCURVE",
"750 280 CURVE SMOOTH",
"750 418 OFFCURVE",
"690 556 OFFCURVE",
"563 556 CURVE SMOOTH",
"481 556 OFFCURVE",
"424 492 OFFCURVE",
"424 418 CURVE SMOOTH",
"424 341 OFFCURVE",
"482 277 OFFCURVE",
"562 277 CURVE SMOOTH",
"640 277 OFFCURVE",
"693 333 OFFCURVE",
"693 415 CURVE",
"673 414 LINE",
"682 372 OFFCURVE",
"691 314 OFFCURVE",
"691 277 CURVE SMOOTH",
"691 148 OFFCURVE",
"649 43 OFFCURVE",
"544 43 CURVE SMOOTH",
"475 43 OFFCURVE",
"429 92 OFFCURVE",
"429 165 CURVE",
"429 201 LINE",
"367 201 LINE",
"367 165 LINE",
"367 92 OFFCURVE",
"322 43 OFFCURVE",
"253 43 CURVE SMOOTH",
"148 43 OFFCURVE",
"106 148 OFFCURVE",
"106 277 CURVE SMOOTH",
"106 314 OFFCURVE",
"115 372 OFFCURVE",
"124 414 CURVE",
"104 415 LINE",
"104 333 OFFCURVE",
"157 277 OFFCURVE",
"234 277 CURVE SMOOTH",
"315 277 OFFCURVE",
"372 341 OFFCURVE",
"372 418 CURVE SMOOTH",
"372 492 OFFCURVE",
"316 556 OFFCURVE",
"234 556 CURVE SMOOTH",
"107 556 OFFCURVE",
"47 418 OFFCURVE",
"47 280 CURVE SMOOTH",
"47 114 OFFCURVE",
"104 -9 OFFCURVE"
);
},
{
closed = 1;
nodes = (
"232 329 CURVE SMOOTH",
"177 329 OFFCURVE",
"145 368 OFFCURVE",
"145 413 CURVE SMOOTH",
"145 462 OFFCURVE",
"182 503 OFFCURVE",
"229 503 CURVE SMOOTH",
"279 503 OFFCURVE",
"311 465 OFFCURVE",
"311 417 CURVE SMOOTH",
"311 370 OFFCURVE",
"281 329 OFFCURVE"
);
},
{
closed = 1;
nodes = (
"565 329 CURVE SMOOTH",
"516 329 OFFCURVE",
"487 370 OFFCURVE",
"487 417 CURVE SMOOTH",
"487 465 OFFCURVE",
"518 503 OFFCURVE",
"568 503 CURVE SMOOTH",
"615 503 OFFCURVE",
"653 462 OFFCURVE",
"653 413 CURVE SMOOTH",
"653 368 OFFCURVE",
"620 329 OFFCURVE"
);
}
);
};
components = (
{
name = knRRA.base;
}
);
layerId = "034236B8-3FA8-43DA-9EDA-EFF269A687EC";
name = Light;
width = 1142;
}
);
unicode = 0CB1;
},
{
glyphname = knLLLA;
lastChange = "2015-10-15 22:03:08 +0000";
layers = (
{
background = {
paths = (
{
closed = 1;
nodes = (
"626 19 OFFCURVE",
"710 -21 OFFCURVE",
"836 -21 CURVE SMOOTH",
"974 -21 OFFCURVE",
"1082 59 OFFCURVE",
"1082 202 CURVE SMOOTH",
"1082 327 OFFCURVE",
"996 417 OFFCURVE",
"860 417 CURVE SMOOTH",
"782 417 OFFCURVE",
"722 386 OFFCURVE",
"722 323 CURVE SMOOTH",
"722 261 OFFCURVE",
"782 227 OFFCURVE",
"868 227 CURVE SMOOTH",
"926 227 OFFCURVE",
"998 242 OFFCURVE",
"1058 286 CURVE",
"1046 302 LINE",
"998 266 OFFCURVE",
"927 252 OFFCURVE",
"865 252 CURVE SMOOTH",
"802 252 OFFCURVE",
"746 268 OFFCURVE",
"746 323 CURVE SMOOTH",
"746 371 OFFCURVE",
"791 393 OFFCURVE",
"858 393 CURVE SMOOTH",
"1000 393 OFFCURVE",
"1058 301 OFFCURVE",
"1058 204 CURVE SMOOTH",
"1058 78 OFFCURVE",
"964 4 OFFCURVE",
"835 4 CURVE SMOOTH",
"699 4 OFFCURVE",
"634 53 OFFCURVE",
"598 140 CURVE",
"574 140 LINE",
"538 53 OFFCURVE",
"473 4 OFFCURVE",
"337 4 CURVE SMOOTH",
"208 4 OFFCURVE",
"114 78 OFFCURVE",
"114 204 CURVE SMOOTH",
"114 301 OFFCURVE",
"172 393 OFFCURVE",
"314 393 CURVE SMOOTH",
"381 393 OFFCURVE",
"426 371 OFFCURVE",
"426 323 CURVE SMOOTH",
"426 268 OFFCURVE",
"370 252 OFFCURVE",
"307 252 CURVE SMOOTH",
"245 252 OFFCURVE",
"174 266 OFFCURVE",
"126 302 CURVE",
"114 286 LINE",
"174 242 OFFCURVE",
"246 227 OFFCURVE",
"304 227 CURVE SMOOTH",
"390 227 OFFCURVE",
"450 261 OFFCURVE",
"450 323 CURVE SMOOTH",
"450 386 OFFCURVE",
"390 417 OFFCURVE",
"312 417 CURVE SMOOTH",
"176 417 OFFCURVE",
"90 327 OFFCURVE",
"90 202 CURVE SMOOTH",
"90 59 OFFCURVE",
"198 -21 OFFCURVE",
"336 -21 CURVE SMOOTH",
"462 -21 OFFCURVE",
"546 19 OFFCURVE",
"586 113 CURVE"
);
}
);
};
components = (
{
name = knLLLA.base;
}
);
layerId = "034236B8-3FA8-43DA-9EDA-EFF269A687EC";
name = Light;
width = 1142;
}
);
unicode = 0CDE;
},
{
glyphname = knCandrabindu;
lastChange = "2015-10-15 22:03:08 +0000";
layers = (
{
background = {
paths = (
{
closed = 1;
nodes = (
"148 603 LINE",
"135 527 OFFCURVE",
"85 480 OFFCURVE",
"0 480 CURVE SMOOTH",
"-85 480 OFFCURVE",
"-135 527 OFFCURVE",
"-148 603 CURVE",
"-170 601 LINE",
"-157 520 OFFCURVE",
"-104 455 OFFCURVE",
"0 455 CURVE SMOOTH",
"104 455 OFFCURVE",
"157 520 OFFCURVE",
"170 601 CURVE"
);
}
);
};
components = (
{
name = _part.dot;
transform = "{1, 0, 0, 1, -125, 498}";
}
);
guideLines = (
{
position = "{148, 728}";
}
);
layerId = "034236B8-3FA8-43DA-9EDA-EFF269A687EC";
name = Light;
paths = (
{
closed = 1;
nodes = (
"148 728 LINE",
"133 657 OFFCURVE",
"88 615 OFFCURVE",
"0 615 CURVE SMOOTH",
"-88 615 OFFCURVE",
"-133 657 OFFCURVE",
"-148 728 CURVE",
"-169 722 LINE",
"-155 649 OFFCURVE",
"-108 590 OFFCURVE",
"0 590 CURVE SMOOTH",
"108 590 OFFCURVE",
"155 649 OFFCURVE",
"169 722 CURVE"
);
}
);
width = 0;
}
);
unicode = 0C81;
},
{
glyphname = knVisarga;
lastChange = "2015-10-15 22:03:08 +0000";
layers = (
{
background = {
paths = (
{
closed = 0;
nodes = (
"204 157 LINE",
"125 157 OFFCURVE",
"60 128 OFFCURVE",
"60 69 CURVE SMOOTH",
"60 9 OFFCURVE",
"121 -21 OFFCURVE",
"204 -21 CURVE"
);
},
{
closed = 1;
nodes = (
"287 239 OFFCURVE",
"348 269 OFFCURVE",
"348 329 CURVE SMOOTH",
"348 388 OFFCURVE",
"283 417 OFFCURVE",
"204 417 CURVE SMOOTH",
"125 417 OFFCURVE",
"60 388 OFFCURVE",
"60 329 CURVE SMOOTH",
"60 269 OFFCURVE",
"121 239 OFFCURVE",
"204 239 CURVE SMOOTH"
);
},
{
closed = 1;
nodes = (
"132 263 OFFCURVE",
"85 289 OFFCURVE",
"85 328 CURVE SMOOTH",
"85 368 OFFCURVE",
"129 395 OFFCURVE",
"204 395 CURVE SMOOTH",
"279 395 OFFCURVE",
"323 368 OFFCURVE",
"323 328 CURVE SMOOTH",
"323 289 OFFCURVE",
"276 263 OFFCURVE",
"204 263 CURVE SMOOTH"
);
},
{
closed = 0;
nodes = (
"204 3 LINE",
"131 3 OFFCURVE",
"83 29 OFFCURVE",
"83 68 CURVE SMOOTH",
"83 109 OFFCURVE",
"128 136 OFFCURVE",
"204 136 CURVE"
);
}
);
};
layerId = "034236B8-3FA8-43DA-9EDA-EFF269A687EC";
name = Light;
paths = (
{
closed = 1;
nodes = (
"288 -21 OFFCURVE",
"348 10 OFFCURVE",
"348 68 CURVE SMOOTH",
"348 129 OFFCURVE",
"282 157 OFFCURVE",
"204 157 CURVE SMOOTH",
"126 157 OFFCURVE",
"60 129 OFFCURVE",
"60 68 CURVE SMOOTH",
"60 10 OFFCURVE",
"120 -21 OFFCURVE",
"204 -21 CURVE SMOOTH"
);
},
{
closed = 1;
nodes = (
"132 3 OFFCURVE",
"83 27 OFFCURVE",
"83 69 CURVE SMOOTH",
"83 109 OFFCURVE",
"127 136 OFFCURVE",
"204 136 CURVE SMOOTH",
"281 136 OFFCURVE",
"325 109 OFFCURVE",
"325 69 CURVE SMOOTH",
"325 27 OFFCURVE",
"276 3 OFFCURVE",
"204 3 CURVE SMOOTH"
);
},
{
closed = 1;
nodes = (
"288 239 OFFCURVE",
"348 270 OFFCURVE",
"348 328 CURVE SMOOTH",
"348 389 OFFCURVE",
"282 417 OFFCURVE",
"204 417 CURVE SMOOTH",
"126 417 OFFCURVE",
"60 389 OFFCURVE",
"60 328 CURVE SMOOTH",
"60 270 OFFCURVE",
"120 239 OFFCURVE",
"204 239 CURVE SMOOTH"
);
},
{
closed = 1;
nodes = (
"132 263 OFFCURVE",
"83 287 OFFCURVE",
"83 329 CURVE SMOOTH",
"83 369 OFFCURVE",
"127 396 OFFCURVE",
"204 396 CURVE SMOOTH",
"281 396 OFFCURVE",
"325 369 OFFCURVE",
"325 329 CURVE SMOOTH",
"325 287 OFFCURVE",
"276 263 OFFCURVE",
"204 263 CURVE SMOOTH"
);
}
);
width = 408;
}
);
unicode = 0C83;
},
{
glyphname = knVirama;
lastChange = "2015-10-15 22:03:08 +0000";
layers = (
{
background = {
paths = (
{
closed = 1;
nodes = (
"62 439 OFFCURVE",
"120 521 OFFCURVE",
"229 521 CURVE SMOOTH",
"284 521 OFFCURVE",
"326 500 OFFCURVE",
"353 470 CURVE",
"369 485 LINE",
"332 524 OFFCURVE",
"280 541 OFFCURVE",
"228 541 CURVE SMOOTH",
"107 541 OFFCURVE",
"38 450 OFFCURVE",
"38 328 CURVE SMOOTH",
"38 214 OFFCURVE",
"99 133 OFFCURVE",
"215 133 CURVE SMOOTH",
"305 133 OFFCURVE",
"354 182 OFFCURVE",
"354 257 CURVE SMOOTH",
"354 335 OFFCURVE",
"305 377 OFFCURVE",
"157 377 CURVE SMOOTH",
"-114 377 LINE",
"-114 353 LINE",
"159 353 LINE SMOOTH",
"294 353 OFFCURVE",
"330 319 OFFCURVE",
"330 257 CURVE SMOOTH",
"330 198 OFFCURVE",
"294 158 OFFCURVE",
"216 158 CURVE SMOOTH",
"115 158 OFFCURVE",
"62 225 OFFCURVE",
"62 330 CURVE SMOOTH"
);
}
);
};
components = (
{
name = _part.knVirama;
}
);
layerId = "034236B8-3FA8-43DA-9EDA-EFF269A687EC";
name = Light;
width = 540;
}
);
unicode = 0CCD;
},
{
glyphname = knZero;
lastChange = "2015-10-15 22:03:08 +0000";
layers = (
{
background = {
paths = (
{
closed = 1;
nodes = (
"566 -21 OFFCURVE",
"703 43 OFFCURVE",
"703 184 CURVE SMOOTH",
"703 334 OFFCURVE",
"559 396 OFFCURVE",
"384 396 CURVE SMOOTH",
"209 396 OFFCURVE",
"65 334 OFFCURVE",
"65 184 CURVE SMOOTH",
"65 43 OFFCURVE",
"202 -21 OFFCURVE",
"384 -21 CURVE SMOOTH"
);
},
{
closed = 1;
nodes = (
"217 4 OFFCURVE",
"88 66 OFFCURVE",
"88 189 CURVE SMOOTH",
"88 317 OFFCURVE",
"220 381 OFFCURVE",
"384 381 CURVE SMOOTH",
"548 381 OFFCURVE",
"680 317 OFFCURVE",
"680 189 CURVE SMOOTH",
"680 66 OFFCURVE",
"551 4 OFFCURVE",
"384 4 CURVE SMOOTH"
);
}
);
};
guideLines = (
{
position = "{632, 198}";
}
);
layerId = "034236B8-3FA8-43DA-9EDA-EFF269A687EC";
name = Light;
paths = (
{
closed = 1;
nodes = (
"560 -21 OFFCURVE",
"693 47 OFFCURVE",
"693 198 CURVE SMOOTH",
"693 349 OFFCURVE",
"560 417 OFFCURVE",
"384 417 CURVE SMOOTH",
"208 417 OFFCURVE",
"75 349 OFFCURVE",
"75 198 CURVE SMOOTH",
"75 47 OFFCURVE",
"208 -21 OFFCURVE",
"384 -21 CURVE SMOOTH"
);
},
{
closed = 1;
nodes = (
"223 6 OFFCURVE",
"97 71 OFFCURVE",
"97 199 CURVE SMOOTH",
"97 327 OFFCURVE",
"223 392 OFFCURVE",
"384 392 CURVE SMOOTH",
"545 392 OFFCURVE",
"671 327 OFFCURVE",
"671 199 CURVE SMOOTH",
"671 71 OFFCURVE",
"545 6 OFFCURVE",
"384 6 CURVE SMOOTH"
);
}
);
width = 768;
}
);
unicode = 0CE6;
},
{
glyphname = knOne;
lastChange = "2015-10-15 22:03:08 +0000";
layers = (
{
background = {
paths = (
{
closed = 1;
nodes = (
"568 -21 OFFCURVE",
"701 47 OFFCURVE",
"701 198 CURVE SMOOTH",
"701 349 OFFCURVE",
"568 417 OFFCURVE",
"392 417 CURVE SMOOTH",
"216 417 OFFCURVE",
"83 349 OFFCURVE",
"83 198 CURVE SMOOTH",
"83 47 OFFCURVE",
"216 -21 OFFCURVE",
"392 -21 CURVE SMOOTH"
);
},
{
closed = 1;
nodes = (
"231 6 OFFCURVE",
"105 71 OFFCURVE",
"105 199 CURVE SMOOTH",
"105 327 OFFCURVE",
"231 392 OFFCURVE",
"392 392 CURVE SMOOTH",
"553 392 OFFCURVE",
"679 327 OFFCURVE",
"679 199 CURVE SMOOTH",
"679 71 OFFCURVE",
"553 6 OFFCURVE",
"392 6 CURVE SMOOTH"
);
}
);
};
guideLines = (
{
angle = 90;
position = "{392, 392}";
},
{
angle = 90;
position = "{302, 392}";
},
{
angle = 90;
position = "{482, 392}";
}
);
layerId = "034236B8-3FA8-43DA-9EDA-EFF269A687EC";
name = Light;
paths = (
{
closed = 1;
nodes = (
"215 417 OFFCURVE",
"75 347 OFFCURVE",
"75 194 CURVE SMOOTH",
"75 71 OFFCURVE",
"170 0 OFFCURVE",
"294 -29 CURVE",
"301 -5 LINE",
"180 24 OFFCURVE",
"97 86 OFFCURVE",
"97 195 CURVE SMOOTH",
"97 327 OFFCURVE",
"226 392 OFFCURVE",
"392 392 CURVE SMOOTH",
"558 392 OFFCURVE",
"687 327 OFFCURVE",
"687 195 CURVE SMOOTH",
"687 86 OFFCURVE",
"604 24 OFFCURVE",
"483 -5 CURVE",
"490 -29 LINE",
"614 0 OFFCURVE",
"709 71 OFFCURVE",
"709 194 CURVE SMOOTH",
"709 347 OFFCURVE",
"569 417 OFFCURVE",
"392 417 CURVE SMOOTH"
);
}
);
width = 784;
}
);
unicode = 0CE7;
},
{
glyphname = knTwo;
lastChange = "2015-10-15 22:03:08 +0000";
layers = (
{
background = {
paths = (
{
closed = 1;
nodes = (
"332 0 LINE SMOOTH",
"526 0 OFFCURVE",
"614 95 OFFCURVE",
"614 224 CURVE SMOOTH",
"614 349 OFFCURVE",
"529 417 OFFCURVE",
"403 417 CURVE SMOOTH",
"317 417 OFFCURVE",
"257 385 OFFCURVE",
"257 322 CURVE SMOOTH",
"257 261 OFFCURVE",
"311 230 OFFCURVE",
"381 230 CURVE SMOOTH",
"407 230 OFFCURVE",
"437 234 OFFCURVE",
"461 242 CURVE",
"456 266 LINE",
"434 258 OFFCURVE",
"409 254 OFFCURVE",
"382 254 CURVE SMOOTH",
"320 254 OFFCURVE",
"279 275 OFFCURVE",
"279 321 CURVE SMOOTH",
"279 371 OFFCURVE",
"327 393 OFFCURVE",
"402 393 CURVE SMOOTH",
"515 393 OFFCURVE",
"592 342 OFFCURVE",
"592 223 CURVE SMOOTH",
"592 104 OFFCURVE",
"515 24 OFFCURVE",
"328 24 CURVE SMOOTH",
"10 24 LINE",
"10 0 LINE"
);
}
);
};
layerId = "034236B8-3FA8-43DA-9EDA-EFF269A687EC";
name = Light;
paths = (
{
closed = 1;
nodes = (
"332 0 LINE SMOOTH",
"526 0 OFFCURVE",
"614 95 OFFCURVE",
"614 224 CURVE SMOOTH",
"614 349 OFFCURVE",
"531 417 OFFCURVE",
"403 417 CURVE SMOOTH",
"313 417 OFFCURVE",
"253 384 OFFCURVE",
"253 318 CURVE SMOOTH",
"253 256 OFFCURVE",
"307 222 OFFCURVE",
"378 222 CURVE SMOOTH",
"405 222 OFFCURVE",
"435 226 OFFCURVE",
"459 234 CURVE",
"454 258 LINE",
"432 250 OFFCURVE",
"407 246 OFFCURVE",
"379 246 CURVE SMOOTH",
"316 246 OFFCURVE",
"275 270 OFFCURVE",
"275 317 CURVE SMOOTH",
"275 370 OFFCURVE",
"323 393 OFFCURVE",
"402 393 CURVE SMOOTH",
"517 393 OFFCURVE",
"592 342 OFFCURVE",
"592 223 CURVE SMOOTH",
"592 104 OFFCURVE",
"515 24 OFFCURVE",
"328 24 CURVE SMOOTH",
"15 24 LINE",
"15 0 LINE"
);
}
);
width = 699;
},
{
associatedMasterId = "034236B8-3FA8-43DA-9EDA-EFF269A687EC";
background = {
paths = (
{
closed = 1;
nodes = (
"245 0 LINE SMOOTH",
"439 0 OFFCURVE",
"527 95 OFFCURVE",
"527 224 CURVE SMOOTH",
"527 349 OFFCURVE",
"442 417 OFFCURVE",
"316 417 CURVE SMOOTH",
"230 417 OFFCURVE",
"170 385 OFFCURVE",
"170 322 CURVE SMOOTH",
"170 261 OFFCURVE",
"224 230 OFFCURVE",
"294 230 CURVE SMOOTH",
"320 230 OFFCURVE",
"350 234 OFFCURVE",
"374 242 CURVE",
"369 266 LINE",
"347 258 OFFCURVE",
"322 254 OFFCURVE",
"295 254 CURVE SMOOTH",
"233 254 OFFCURVE",
"192 275 OFFCURVE",
"192 321 CURVE SMOOTH",
"192 371 OFFCURVE",
"240 393 OFFCURVE",
"315 393 CURVE SMOOTH",
"428 393 OFFCURVE",
"505 342 OFFCURVE",
"505 223 CURVE SMOOTH",
"505 104 OFFCURVE",
"428 24 OFFCURVE",
"241 24 CURVE SMOOTH",
"0 24 LINE",
"0 0 LINE"
);
}
);
};
layerId = "C7A45968-2B1A-4373-B10A-D375DB5168A9";
name = "Light Oct 13 15, 15:17";
paths = (
{
closed = 1;
nodes = (
"245 0 LINE SMOOTH",
"439 0 OFFCURVE",
"527 95 OFFCURVE",
"527 224 CURVE SMOOTH",
"527 349 OFFCURVE",
"442 417 OFFCURVE",
"316 417 CURVE SMOOTH",
"230 417 OFFCURVE",
"170 385 OFFCURVE",
"170 322 CURVE SMOOTH",
"170 261 OFFCURVE",
"224 230 OFFCURVE",
"294 230 CURVE SMOOTH",
"320 230 OFFCURVE",
"350 234 OFFCURVE",
"374 242 CURVE",
"369 266 LINE",
"347 258 OFFCURVE",
"322 254 OFFCURVE",
"295 254 CURVE SMOOTH",
"233 254 OFFCURVE",
"192 275 OFFCURVE",
"192 321 CURVE SMOOTH",
"192 371 OFFCURVE",
"240 393 OFFCURVE",
"315 393 CURVE SMOOTH",
"428 393 OFFCURVE",
"505 342 OFFCURVE",
"505 223 CURVE SMOOTH",
"505 104 OFFCURVE",
"428 24 OFFCURVE",
"241 24 CURVE SMOOTH",
"0 24 LINE",
"0 0 LINE"
);
}
);
width = 602;
}
);
unicode = 0CE8;
},
{
glyphname = knThree;
lastChange = "2015-10-15 22:03:08 +0000";
layers = (
{
background = {
guideLines = (
{
position = "{333, 230}";
},
{
angle = 90;
position = "{394, 242}";
},
{
angle = 90;
position = "{190, 291}";
}
);
paths = (
{
closed = 1;
nodes = (
"145 262 OFFCURVE",
"195 230 OFFCURVE",
"259 230 CURVE SMOOTH",
"278 230 OFFCURVE",
"302 233 OFFCURVE",
"321 240 CURVE",
"318 264 LINE",
"299 257 OFFCURVE",
"279 254 OFFCURVE",
"258 254 CURVE SMOOTH",
"204 254 OFFCURVE",
"167 276 OFFCURVE",
"167 321 CURVE SMOOTH",
"167 370 OFFCURVE",
"210 393 OFFCURVE",
"270 393 CURVE SMOOTH",
"355 393 OFFCURVE",
"414 347 OFFCURVE",
"414 240 CURVE SMOOTH",
"414 108 OFFCURVE",
"325 8 OFFCURVE",
"177 8 CURVE SMOOTH",
"111 8 OFFCURVE",
"57 28 OFFCURVE",
"57 83 CURVE SMOOTH",
"57 133 OFFCURVE",
"100 155 OFFCURVE",
"154 155 CURVE SMOOTH",
"247 155 OFFCURVE",
"308 93 OFFCURVE",
"350 56 CURVE SMOOTH",
"395 17 OFFCURVE",
"446 -21 OFFCURVE",
"529 -21 CURVE SMOOTH",
"575 -21 OFFCURVE",
"615 -9 OFFCURVE",
"644 9 CURVE",
"640 30 LINE",
"615 15 OFFCURVE",
"574 4 OFFCURVE",
"527 4 CURVE SMOOTH",
"448 4 OFFCURVE",
"408 36 OFFCURVE",
"369 69 CURVE SMOOTH",
"315 114 OFFCURVE",
"254 177 OFFCURVE",
"154 177 CURVE SMOOTH",
"77 177 OFFCURVE",
"35 138 OFFCURVE",
"35 82 CURVE SMOOTH",
"35 7 OFFCURVE",
"108 -17 OFFCURVE",
"178 -17 CURVE SMOOTH",
"333 -17 OFFCURVE",
"436 99 OFFCURVE",
"436 240 CURVE SMOOTH",
"436 355 OFFCURVE",
"368 417 OFFCURVE",
"270 417 CURVE SMOOTH",
"200 417 OFFCURVE",
"145 384 OFFCURVE",
"145 321 CURVE SMOOTH"
);
}
);
};
guideLines = (
{
angle = 90;
position = "{644, 233}";
}
);
layerId = "034236B8-3FA8-43DA-9EDA-EFF269A687EC";
name = Light;
paths = (
{
closed = 1;
nodes = (
"145 264 OFFCURVE",
"195 234 OFFCURVE",
"259 234 CURVE SMOOTH",
"278 234 OFFCURVE",
"302 237 OFFCURVE",
"321 244 CURVE",
"318 268 LINE",
"299 261 OFFCURVE",
"279 258 OFFCURVE",
"258 258 CURVE SMOOTH",
"204 258 OFFCURVE",
"167 278 OFFCURVE",
"167 323 CURVE SMOOTH",
"167 370 OFFCURVE",
"210 393 OFFCURVE",
"270 393 CURVE SMOOTH",
"355 393 OFFCURVE",
"414 347 OFFCURVE",
"414 240 CURVE SMOOTH",
"414 108 OFFCURVE",
"325 8 OFFCURVE",
"177 8 CURVE SMOOTH",
"111 8 OFFCURVE",
"57 28 OFFCURVE",
"57 82 CURVE SMOOTH",
"57 132 OFFCURVE",
"100 153 OFFCURVE",
"154 153 CURVE SMOOTH",
"247 153 OFFCURVE",
"310 94 OFFCURVE",
"349 58 CURVE SMOOTH",
"395 15 OFFCURVE",
"446 -21 OFFCURVE",
"529 -21 CURVE SMOOTH",
"575 -21 OFFCURVE",
"615 -9 OFFCURVE",
"644 9 CURVE",
"640 30 LINE",
"615 15 OFFCURVE",
"574 4 OFFCURVE",
"527 4 CURVE SMOOTH",
"448 4 OFFCURVE",
"408 34 OFFCURVE",
"366 72 CURVE SMOOTH",
"318 116 OFFCURVE",
"254 175 OFFCURVE",
"154 175 CURVE SMOOTH",
"77 175 OFFCURVE",
"35 137 OFFCURVE",
"35 81 CURVE SMOOTH",
"35 7 OFFCURVE",
"108 -17 OFFCURVE",
"178 -17 CURVE SMOOTH",
"333 -17 OFFCURVE",
"436 99 OFFCURVE",
"436 240 CURVE SMOOTH",
"436 355 OFFCURVE",
"368 417 OFFCURVE",
"270 417 CURVE SMOOTH",
"200 417 OFFCURVE",
"145 384 OFFCURVE",
"145 323 CURVE SMOOTH"
);
}
);
width = 644;
}
);
unicode = 0CE9;
},
{
glyphname = knFour;
lastChange = "2015-10-15 22:03:08 +0000";
layers = (
{
background = {
guideLines = (
{
position = "{199, 264}";
},
{
angle = 90;
position = "{37, 301}";
},
{
angle = 90;
position = "{334, 342}";
}
);
paths = (
{
closed = 1;
nodes = (
"647 398 LINE",
"686 378 OFFCURVE",
"710 353 OFFCURVE",
"710 312 CURVE SMOOTH",
"710 271 OFFCURVE",
"697 240 OFFCURVE",
"647 216 CURVE SMOOTH",
"612 199 OFFCURVE",
"559 184 OFFCURVE",
"504 174 CURVE SMOOTH",
"426 160 OFFCURVE",
"346 143 OFFCURVE",
"306 122 CURVE SMOOTH",
"274 105 OFFCURVE",
"255 82 OFFCURVE",
"255 49 CURVE SMOOTH",
"255 -7 OFFCURVE",
"307 -34 OFFCURVE",
"404 -34 CURVE SMOOTH",
"507 -34 OFFCURVE",
"557 -4 OFFCURVE",
"557 51 CURVE SMOOTH",
"557 143 OFFCURVE",
"425 150 OFFCURVE",
"289 177 CURVE SMOOTH",
"159 202 OFFCURVE",
"80 229 OFFCURVE",
"80 305 CURVE SMOOTH",
"80 366 OFFCURVE",
"135 392 OFFCURVE",
"208 392 CURVE SMOOTH",
"272 392 OFFCURVE",
"308 375 OFFCURVE",
"308 342 CURVE SMOOTH",
"308 307 OFFCURVE",
"265 288 OFFCURVE",
"212 288 CURVE SMOOTH",
"189 288 OFFCURVE",
"173 290 OFFCURVE",
"149 297 CURVE",
"146 273 LINE",
"166 267 OFFCURVE",
"186 264 OFFCURVE",
"212 264 CURVE SMOOTH",
"276 264 OFFCURVE",
"330 292 OFFCURVE",
"330 342 CURVE SMOOTH",
"330 389 OFFCURVE",
"284 417 OFFCURVE",
"207 417 CURVE SMOOTH",
"128 417 OFFCURVE",
"58 382 OFFCURVE",
"58 302 CURVE SMOOTH",
"58 214 OFFCURVE",
"142 183 OFFCURVE",
"267 157 CURVE SMOOTH",
"434 122 OFFCURVE",
"534 119 OFFCURVE",
"534 51 CURVE SMOOTH",
"534 9 OFFCURVE",
"491 -9 OFFCURVE",
"403 -9 CURVE SMOOTH",
"322 -9 OFFCURVE",
"277 7 OFFCURVE",
"277 50 CURVE SMOOTH",
"277 72 OFFCURVE",
"285 87 OFFCURVE",
"313 102 CURVE SMOOTH",
"362 128 OFFCURVE",
"434 138 OFFCURVE",
"506 152 CURVE SMOOTH",
"561 163 OFFCURVE",
"616 176 OFFCURVE",
"659 198 CURVE SMOOTH",
"718 227 OFFCURVE",
"732 265 OFFCURVE",
"732 313 CURVE SMOOTH",
"732 363 OFFCURVE",
"705 392 OFFCURVE",
"659 417 CURVE"
);
}
);
};
layerId = "034236B8-3FA8-43DA-9EDA-EFF269A687EC";
name = Light;
paths = (
{
closed = 1;
nodes = (
"649 398 LINE",
"695 374 OFFCURVE",
"712 350 OFFCURVE",
"712 309 CURVE SMOOTH",
"712 265 OFFCURVE",
"693 238 OFFCURVE",
"649 216 CURVE SMOOTH",
"616 200 OFFCURVE",
"570 186 OFFCURVE",
"506 174 CURVE SMOOTH",
"431 160 OFFCURVE",
"352 145 OFFCURVE",
"308 122 CURVE SMOOTH",
"276 105 OFFCURVE",
"257 82 OFFCURVE",
"257 48 CURVE SMOOTH",
"257 -7 OFFCURVE",
"309 -34 OFFCURVE",
"406 -34 CURVE SMOOTH",
"509 -34 OFFCURVE",
"559 -4 OFFCURVE",
"559 52 CURVE SMOOTH",
"559 139 OFFCURVE",
"439 149 OFFCURVE",
"291 177 CURVE SMOOTH",
"160 202 OFFCURVE",
"82 230 OFFCURVE",
"82 304 CURVE SMOOTH",
"82 366 OFFCURVE",
"136 392 OFFCURVE",
"212 392 CURVE SMOOTH",
"273 392 OFFCURVE",
"310 375 OFFCURVE",
"310 342 CURVE SMOOTH",
"310 307 OFFCURVE",
"268 288 OFFCURVE",
"211 288 CURVE SMOOTH",
"192 288 OFFCURVE",
"175 290 OFFCURVE",
"151 297 CURVE",
"148 273 LINE",
"168 267 OFFCURVE",
"189 264 OFFCURVE",
"211 264 CURVE SMOOTH",
"279 264 OFFCURVE",
"332 292 OFFCURVE",
"332 342 CURVE SMOOTH",
"332 389 OFFCURVE",
"285 417 OFFCURVE",
"211 417 CURVE SMOOTH",
"129 417 OFFCURVE",
"60 382 OFFCURVE",
"60 302 CURVE SMOOTH",
"60 212 OFFCURVE",
"147 183 OFFCURVE",
"269 157 CURVE SMOOTH",
"429 123 OFFCURVE",
"536 120 OFFCURVE",
"536 52 CURVE SMOOTH",
"536 9 OFFCURVE",
"494 -9 OFFCURVE",
"405 -9 CURVE SMOOTH",
"322 -9 OFFCURVE",
"279 7 OFFCURVE",
"279 52 CURVE SMOOTH",
"279 71 OFFCURVE",
"287 87 OFFCURVE",
"315 102 CURVE SMOOTH",
"362 128 OFFCURVE",
"456 142 OFFCURVE",
"508 152 CURVE SMOOTH",
"563 163 OFFCURVE",
"618 176 OFFCURVE",
"661 198 CURVE SMOOTH",
"718 227 OFFCURVE",
"734 263 OFFCURVE",
"734 308 CURVE SMOOTH",
"734 365 OFFCURVE",
"709 390 OFFCURVE",
"662 417 CURVE"
);
}
);
width = 794;
}
);
unicode = 0CEA;
},
{
glyphname = knFive;
lastChange = "2015-10-15 22:03:08 +0000";
layers = (
{
background = {
guideLines = (
{
angle = 90;
position = "{45, 71}";
},
{
position = "{348, 195}";
}
);
paths = (
{
closed = 1;
nodes = (
"317 393 OFFCURVE",
"371 334 OFFCURVE",
"371 213 CURVE SMOOTH",
"371 56 OFFCURVE",
"281 3 OFFCURVE",
"190 3 CURVE SMOOTH",
"122 3 OFFCURVE",
"88 33 OFFCURVE",
"88 82 CURVE SMOOTH",
"88 160 OFFCURVE",
"176 169 OFFCURVE",
"277 174 CURVE SMOOTH",
"357 178 OFFCURVE",
"410 179 OFFCURVE",
"469 182 CURVE SMOOTH",
"607 189 OFFCURVE",
"711 210 OFFCURVE",
"711 316 CURVE SMOOTH",
"711 375 OFFCURVE",
"677 417 OFFCURVE",
"614 417 CURVE SMOOTH",
"547 417 OFFCURVE",
"509 374 OFFCURVE",
"509 308 CURVE SMOOTH",
"509 203 OFFCURVE",
"604 169 OFFCURVE",
"604 55 CURVE SMOOTH",
"604 43 OFFCURVE",
"603 27 OFFCURVE",
"596 0 CURVE",
"623 0 LINE",
"627 22 OFFCURVE",
"628 42 OFFCURVE",
"628 54 CURVE SMOOTH",
"628 179 OFFCURVE",
"531 206 OFFCURVE",
"531 307 CURVE SMOOTH",
"531 362 OFFCURVE",
"560 393 OFFCURVE",
"612 393 CURVE SMOOTH",
"662 393 OFFCURVE",
"688 365 OFFCURVE",
"688 315 CURVE SMOOTH",
"688 226 OFFCURVE",
"598 212 OFFCURVE",
"481 205 CURVE SMOOTH",
"421 202 OFFCURVE",
"359 201 OFFCURVE",
"292 198 CURVE SMOOTH",
"171 193 OFFCURVE",
"65 181 OFFCURVE",
"65 81 CURVE SMOOTH",
"65 19 OFFCURVE",
"106 -21 OFFCURVE",
"187 -21 CURVE SMOOTH",
"300 -21 OFFCURVE",
"391 58 OFFCURVE",
"393 212 CURVE SMOOTH",
"395 332 OFFCURVE",
"340 417 OFFCURVE",
"214 417 CURVE SMOOTH",
"144 417 OFFCURVE",
"98 391 OFFCURVE",
"98 340 CURVE SMOOTH",
"98 290 OFFCURVE",
"142 265 OFFCURVE",
"199 265 CURVE SMOOTH",
"219 265 OFFCURVE",
"243 268 OFFCURVE",
"263 274 CURVE",
"259 298 LINE",
"242 292 OFFCURVE",
"221 289 OFFCURVE",
"199 289 CURVE SMOOTH",
"152 289 OFFCURVE",
"120 303 OFFCURVE",
"120 340 CURVE SMOOTH",
"120 377 OFFCURVE",
"153 393 OFFCURVE",
"209 393 CURVE SMOOTH"
);
},
{
closed = 0;
nodes = (
"623 0 LINE"
);
}
);
};
layerId = "034236B8-3FA8-43DA-9EDA-EFF269A687EC";
name = Light;
paths = (
{
closed = 1;
nodes = (
"312 393 OFFCURVE",
"366 334 OFFCURVE",
"366 213 CURVE SMOOTH",
"366 56 OFFCURVE",
"276 3 OFFCURVE",
"185 3 CURVE SMOOTH",
"117 3 OFFCURVE",
"83 33 OFFCURVE",
"83 82 CURVE SMOOTH",
"83 160 OFFCURVE",
"171 169 OFFCURVE",
"272 174 CURVE SMOOTH",
"352 178 OFFCURVE",
"405 180 OFFCURVE",
"464 182 CURVE SMOOTH",
"602 187 OFFCURVE",
"706 210 OFFCURVE",
"706 316 CURVE SMOOTH",
"706 375 OFFCURVE",
"672 417 OFFCURVE",
"609 417 CURVE SMOOTH",
"542 417 OFFCURVE",
"504 374 OFFCURVE",
"504 308 CURVE SMOOTH",
"504 203 OFFCURVE",
"599 169 OFFCURVE",
"599 55 CURVE SMOOTH",
"599 43 OFFCURVE",
"598 27 OFFCURVE",
"591 0 CURVE",
"618 0 LINE",
"622 22 OFFCURVE",
"623 42 OFFCURVE",
"623 54 CURVE SMOOTH",
"623 179 OFFCURVE",
"526 206 OFFCURVE",
"526 307 CURVE SMOOTH",
"526 362 OFFCURVE",
"555 393 OFFCURVE",
"607 393 CURVE SMOOTH",
"657 393 OFFCURVE",
"683 365 OFFCURVE",
"683 315 CURVE SMOOTH",
"683 226 OFFCURVE",
"593 212 OFFCURVE",
"476 205 CURVE SMOOTH",
"416 202 OFFCURVE",
"354 201 OFFCURVE",
"287 198 CURVE SMOOTH",
"166 193 OFFCURVE",
"60 181 OFFCURVE",
"60 81 CURVE SMOOTH",
"60 19 OFFCURVE",
"101 -21 OFFCURVE",
"182 -21 CURVE SMOOTH",
"295 -21 OFFCURVE",
"386 58 OFFCURVE",
"388 212 CURVE SMOOTH",
"390 332 OFFCURVE",
"335 417 OFFCURVE",
"209 417 CURVE SMOOTH",
"139 417 OFFCURVE",
"93 391 OFFCURVE",
"93 340 CURVE SMOOTH",
"93 290 OFFCURVE",
"137 265 OFFCURVE",
"194 265 CURVE SMOOTH",
"214 265 OFFCURVE",
"238 268 OFFCURVE",
"258 274 CURVE",
"254 298 LINE",
"237 292 OFFCURVE",
"216 289 OFFCURVE",
"194 289 CURVE SMOOTH",
"147 289 OFFCURVE",
"115 303 OFFCURVE",
"115 340 CURVE SMOOTH",
"115 377 OFFCURVE",
"148 393 OFFCURVE",
"204 393 CURVE SMOOTH"
);
},
{
closed = 0;
nodes = (
"618 0 LINE"
);
}
);
width = 756;
},
{
associatedMasterId = "034236B8-3FA8-43DA-9EDA-EFF269A687EC";
background = {
guideLines = (
{
angle = 90;
position = "{45, 71}";
},
{
position = "{348, 195}";
}
);
paths = (
{
closed = 1;
nodes = (
"317 393 OFFCURVE",
"371 334 OFFCURVE",
"371 213 CURVE SMOOTH",
"371 56 OFFCURVE",
"280 3 OFFCURVE",
"192 3 CURVE SMOOTH",
"122 3 OFFCURVE",
"88 33 OFFCURVE",
"88 80 CURVE SMOOTH",
"88 161 OFFCURVE",
"176 169 OFFCURVE",
"277 174 CURVE SMOOTH",
"330 177 OFFCURVE",
"419 179 OFFCURVE",
"469 182 CURVE SMOOTH",
"607 190 OFFCURVE",
"711 210 OFFCURVE",
"711 316 CURVE SMOOTH",
"711 377 OFFCURVE",
"677 417 OFFCURVE",
"613 417 CURVE SMOOTH",
"544 417 OFFCURVE",
"505 372 OFFCURVE",
"505 312 CURVE SMOOTH",
"505 200 OFFCURVE",
"604 168 OFFCURVE",
"604 58 CURVE SMOOTH",
"604 42 OFFCURVE",
"603 27 OFFCURVE",
"596 0 CURVE",
"623 0 LINE",
"627 22 OFFCURVE",
"628 41 OFFCURVE",
"628 56 CURVE SMOOTH",
"628 179 OFFCURVE",
"527 203 OFFCURVE",
"527 310 CURVE SMOOTH",
"527 361 OFFCURVE",
"557 393 OFFCURVE",
"611 393 CURVE SMOOTH",
"660 393 OFFCURVE",
"688 365 OFFCURVE",
"688 314 CURVE SMOOTH",
"688 228 OFFCURVE",
"598 211 OFFCURVE",
"481 205 CURVE SMOOTH",
"431 202 OFFCURVE",
"453 204 OFFCURVE",
"292 198 CURVE SMOOTH",
"171 193 OFFCURVE",
"65 183 OFFCURVE",
"65 77 CURVE SMOOTH",
"65 20 OFFCURVE",
"106 -21 OFFCURVE",
"188 -21 CURVE SMOOTH",
"299 -21 OFFCURVE",
"391 58 OFFCURVE",
"393 212 CURVE SMOOTH",
"395 334 OFFCURVE",
"338 417 OFFCURVE",
"215 417 CURVE SMOOTH",
"144 417 OFFCURVE",
"98 391 OFFCURVE",
"98 340 CURVE SMOOTH",
"98 290 OFFCURVE",
"142 265 OFFCURVE",
"199 265 CURVE SMOOTH",
"219 265 OFFCURVE",
"243 268 OFFCURVE",
"263 274 CURVE",
"259 298 LINE",
"242 292 OFFCURVE",
"221 289 OFFCURVE",
"199 289 CURVE SMOOTH",
"152 289 OFFCURVE",
"120 303 OFFCURVE",
"120 340 CURVE SMOOTH",
"120 377 OFFCURVE",
"153 393 OFFCURVE",
"210 393 CURVE SMOOTH"
);
},
{
closed = 0;
nodes = (
"623 0 LINE"
);
}
);
};
layerId = "762530C4-437B-4BA7-95D2-99D02BFE74DE";
name = "Light Oct 13 15, 15:51";
paths = (
{
closed = 1;
nodes = (
"311 396 OFFCURVE",
"366 334 OFFCURVE",
"366 209 CURVE SMOOTH",
"366 58 OFFCURVE",
"272 3 OFFCURVE",
"180 3 CURVE SMOOTH",
"112 3 OFFCURVE",
"78 33 OFFCURVE",
"78 82 CURVE SMOOTH",
"78 161 OFFCURVE",
"166 169 OFFCURVE",
"267 174 CURVE SMOOTH",
"332 177 OFFCURVE",
"417 180 OFFCURVE",
"449 182 CURVE SMOOTH",
"593 189 OFFCURVE",
"691 212 OFFCURVE",
"691 316 CURVE SMOOTH",
"691 377 OFFCURVE",
"657 417 OFFCURVE",
"593 417 CURVE SMOOTH",
"529 417 OFFCURVE",
"489 378 OFFCURVE",
"489 302 CURVE SMOOTH",
"489 204 OFFCURVE",
"556 176 OFFCURVE",
"556 60 CURVE SMOOTH",
"556 36 OFFCURVE",
"553 22 OFFCURVE",
"545 0 CURVE",
"570 -4 LINE",
"577 18 OFFCURVE",
"580 36 OFFCURVE",
"580 62 CURVE SMOOTH",
"580 187 OFFCURVE",
"511 207 OFFCURVE",
"511 302 CURVE SMOOTH",
"511 366 OFFCURVE",
"542 393 OFFCURVE",
"591 393 CURVE SMOOTH",
"640 393 OFFCURVE",
"668 365 OFFCURVE",
"668 316 CURVE SMOOTH",
"668 228 OFFCURVE",
"578 211 OFFCURVE",
"461 205 CURVE SMOOTH",
"421 203 OFFCURVE",
"420 203 OFFCURVE",
"282 198 CURVE SMOOTH",
"161 193 OFFCURVE",
"55 183 OFFCURVE",
"55 83 CURVE SMOOTH",
"55 20 OFFCURVE",
"96 -21 OFFCURVE",
"178 -21 CURVE SMOOTH",
"292 -21 OFFCURVE",
"386 58 OFFCURVE",
"388 212 CURVE SMOOTH",
"389 339 OFFCURVE",
"328 417 OFFCURVE",
"201 417 CURVE SMOOTH",
"134 417 OFFCURVE",
"88 391 OFFCURVE",
"88 341 CURVE SMOOTH",
"88 290 OFFCURVE",
"132 265 OFFCURVE",
"188 265 CURVE SMOOTH",
"209 265 OFFCURVE",
"233 268 OFFCURVE",
"253 274 CURVE",
"249 296 LINE",
"232 289 OFFCURVE",
"211 285 OFFCURVE",
"188 285 CURVE SMOOTH",
"141 285 OFFCURVE",
"108 301 OFFCURVE",
"108 341 CURVE SMOOTH",
"108 379 OFFCURVE",
"143 396 OFFCURVE",
"199 396 CURVE SMOOTH"
);
},
{
closed = 0;
nodes = (
"570 -4 LINE"
);
}
);
width = 756;
}
);
unicode = 0CEB;
},
{
glyphname = knSix;
lastChange = "2015-10-15 22:03:08 +0000";
layers = (
{
background = {
paths = (
{
closed = 1;
nodes = (
"204 190 OFFCURVE",
"249 167 OFFCURVE",
"330 167 CURVE SMOOTH",
"411 167 OFFCURVE",
"455 189 OFFCURVE",
"455 236 CURVE SMOOTH",
"455 289 OFFCURVE",
"401 308 OFFCURVE",
"311 308 CURVE SMOOTH",
"190 308 OFFCURVE",
"104 274 OFFCURVE",
"104 166 CURVE SMOOTH",
"104 74 OFFCURVE",
"168 24 OFFCURVE",
"300 24 CURVE SMOOTH",
"620 24 LINE",
"620 0 LINE",
"304 0 LINE SMOOTH",
"152 0 OFFCURVE",
"82 65 OFFCURVE",
"82 166 CURVE SMOOTH",
"82 280 OFFCURVE",
"173 332 OFFCURVE",
"310 332 CURVE SMOOTH",
"416 332 OFFCURVE",
"477 301 OFFCURVE",
"477 237 CURVE SMOOTH",
"477 175 OFFCURVE",
"419 142 OFFCURVE",
"330 142 CURVE SMOOTH",
"243 142 OFFCURVE",
"182 175 OFFCURVE",
"182 246 CURVE SMOOTH",
"182 296 OFFCURVE",
"212 323 OFFCURVE",
"212 364 CURVE SMOOTH",
"212 401 OFFCURVE",
"191 417 OFFCURVE",
"151 417 CURVE SMOOTH",
"127 417 OFFCURVE",
"104 411 OFFCURVE",
"88 404 CURVE",
"82 426 LINE",
"102 434 OFFCURVE",
"127 440 OFFCURVE",
"151 440 CURVE SMOOTH",
"203 440 OFFCURVE",
"234 413 OFFCURVE",
"234 365 CURVE SMOOTH",
"234 321 OFFCURVE",
"204 296 OFFCURVE",
"204 248 CURVE SMOOTH"
);
}
);
};
layerId = "034236B8-3FA8-43DA-9EDA-EFF269A687EC";
name = Light;
paths = (
{
closed = 1;
nodes = (
"190 190 OFFCURVE",
"234 167 OFFCURVE",
"316 167 CURVE SMOOTH",
"397 167 OFFCURVE",
"441 189 OFFCURVE",
"441 236 CURVE SMOOTH",
"441 289 OFFCURVE",
"387 308 OFFCURVE",
"297 308 CURVE SMOOTH",
"178 308 OFFCURVE",
"90 274 OFFCURVE",
"90 166 CURVE SMOOTH",
"90 74 OFFCURVE",
"154 24 OFFCURVE",
"286 24 CURVE SMOOTH",
"606 24 LINE",
"606 0 LINE",
"290 0 LINE SMOOTH",
"138 0 OFFCURVE",
"68 65 OFFCURVE",
"68 165 CURVE SMOOTH",
"68 281 OFFCURVE",
"162 332 OFFCURVE",
"297 332 CURVE SMOOTH",
"402 332 OFFCURVE",
"463 301 OFFCURVE",
"463 237 CURVE SMOOTH",
"463 175 OFFCURVE",
"405 142 OFFCURVE",
"317 142 CURVE SMOOTH",
"229 142 OFFCURVE",
"168 175 OFFCURVE",
"168 246 CURVE SMOOTH",
"168 296 OFFCURVE",
"198 322 OFFCURVE",
"198 365 CURVE SMOOTH",
"198 401 OFFCURVE",
"176 417 OFFCURVE",
"137 417 CURVE SMOOTH",
"113 417 OFFCURVE",
"90 411 OFFCURVE",
"74 404 CURVE",
"68 426 LINE",
"88 434 OFFCURVE",
"113 440 OFFCURVE",
"137 440 CURVE SMOOTH",
"190 440 OFFCURVE",
"220 412 OFFCURVE",
"220 366 CURVE SMOOTH",
"220 320 OFFCURVE",
"190 296 OFFCURVE",
"190 248 CURVE SMOOTH"
);
}
);
width = 596;
}
);
unicode = 0CEC;
},
{
glyphname = knSeven;
lastChange = "2015-10-15 22:03:08 +0000";
layers = (
{
background = {
guideLines = (
{
angle = 104.444;
position = "{224, 216}";
showMeasurement = 1;
}
);
paths = (
{
closed = 1;
nodes = (
"294 235 OFFCURVE",
"343 258 OFFCURVE",
"343 324 CURVE SMOOTH",
"343 379 OFFCURVE",
"308 417 OFFCURVE",
"233 417 CURVE SMOOTH",
"165 417 OFFCURVE",
"112 386 OFFCURVE",
"112 320 CURVE SMOOTH",
"112 305 OFFCURVE",
"115 289 OFFCURVE",
"119 278 CURVE",
"142 276 LINE",
"137 290 OFFCURVE",
"134 306 OFFCURVE",
"134 320 CURVE SMOOTH",
"134 372 OFFCURVE",
"170 393 OFFCURVE",
"231 393 CURVE SMOOTH",
"297 393 OFFCURVE",
"321 366 OFFCURVE",
"321 325 CURVE SMOOTH",
"321 265 OFFCURVE",
"273 253 OFFCURVE",
"208 236 CURVE SMOOTH",
"135 217 OFFCURVE",
"65 197 OFFCURVE",
"65 114 CURVE SMOOTH",
"65 26 OFFCURVE",
"150 0 OFFCURVE",
"256 0 CURVE SMOOTH",
"673 0 LINE",
"673 23 LINE",
"259 23 LINE SMOOTH",
"158 23 OFFCURVE",
"87 46 OFFCURVE",
"87 115 CURVE SMOOTH",
"87 182 OFFCURVE",
"152 199 OFFCURVE",
"227 218 CURVE SMOOTH"
);
}
);
};
guideLines = (
{
angle = 90;
position = "{671, 103}";
},
{
angle = 90;
position = "{372, 317}";
}
);
layerId = "034236B8-3FA8-43DA-9EDA-EFF269A687EC";
name = Light;
paths = (
{
closed = 1;
nodes = (
"87 170 OFFCURVE",
"152 186 OFFCURVE",
"244 206 CURVE SMOOTH",
"327 224 OFFCURVE",
"372 250 OFFCURVE",
"372 317 CURVE SMOOTH",
"372 375 OFFCURVE",
"337 417 OFFCURVE",
"251 417 CURVE SMOOTH",
"169 417 OFFCURVE",
"112 384 OFFCURVE",
"112 315 CURVE SMOOTH",
"112 299 OFFCURVE",
"115 283 OFFCURVE",
"120 271 CURVE",
"143 269 LINE",
"137 284 OFFCURVE",
"134 300 OFFCURVE",
"134 315 CURVE SMOOTH",
"134 370 OFFCURVE",
"175 393 OFFCURVE",
"249 393 CURVE SMOOTH",
"325 393 OFFCURVE",
"350 364 OFFCURVE",
"350 320 CURVE SMOOTH",
"350 257 OFFCURVE",
"299 241 OFFCURVE",
"224 224 CURVE SMOOTH",
"136 204 OFFCURVE",
"65 186 OFFCURVE",
"65 109 CURVE SMOOTH",
"65 26 OFFCURVE",
"150 0 OFFCURVE",
"256 0 CURVE SMOOTH",
"668 0 LINE",
"668 23 LINE",
"259 23 LINE SMOOTH",
"158 23 OFFCURVE",
"87 46 OFFCURVE",
"87 110 CURVE SMOOTH"
);
}
);
width = 683;
}
);
unicode = 0CED;
},
{
glyphname = knEight;
lastChange = "2015-10-15 22:03:08 +0000";
layers = (
{
background = {
paths = (
{
closed = 1;
nodes = (
"684 285 OFFCURVE",
"800 300 OFFCURVE",
"800 160 CURVE SMOOTH",
"800 57 OFFCURVE",
"702 -21 OFFCURVE",
"475 -21 CURVE SMOOTH",
"268 -21 OFFCURVE",
"76 47 OFFCURVE",
"76 220 CURVE SMOOTH",
"76 328 OFFCURVE",
"156 417 OFFCURVE",
"282 417 CURVE SMOOTH",
"359 417 OFFCURVE",
"418 386 OFFCURVE",
"418 323 CURVE SMOOTH",
"418 261 OFFCURVE",
"359 227 OFFCURVE",
"276 227 CURVE SMOOTH",
"221 227 OFFCURVE",
"152 242 OFFCURVE",
"96 286 CURVE",
"106 302 LINE",
"152 266 OFFCURVE",
"220 252 OFFCURVE",
"277 252 CURVE SMOOTH",
"341 252 OFFCURVE",
"397 268 OFFCURVE",
"397 323 CURVE SMOOTH",
"397 371 OFFCURVE",
"352 393 OFFCURVE",
"284 393 CURVE SMOOTH",
"150 393 OFFCURVE",
"98 304 OFFCURVE",
"98 222 CURVE SMOOTH",
"98 68 OFFCURVE",
"270 4 OFFCURVE",
"475 4 CURVE SMOOTH",
"693 4 OFFCURVE",
"780 76 OFFCURVE",
"780 160 CURVE SMOOTH",
"780 293 OFFCURVE",
"663 261 OFFCURVE",
"663 352 CURVE SMOOTH",
"663 383 OFFCURVE",
"682 405 OFFCURVE",
"730 405 CURVE SMOOTH",
"864 405 LINE",
"864 381 LINE",
"728 381 LINE SMOOTH",
"694 381 OFFCURVE",
"684 371 OFFCURVE",
"684 350 CURVE SMOOTH"
);
}
);
};
layerId = "034236B8-3FA8-43DA-9EDA-EFF269A687EC";
name = Light;
paths = (
{
closed = 1;
nodes = (
"666 288 OFFCURVE",
"800 310 OFFCURVE",
"800 164 CURVE SMOOTH",
"800 57 OFFCURVE",
"702 -21 OFFCURVE",
"475 -21 CURVE SMOOTH",
"268 -21 OFFCURVE",
"76 47 OFFCURVE",
"76 220 CURVE SMOOTH",
"76 328 OFFCURVE",
"156 417 OFFCURVE",
"282 417 CURVE SMOOTH",
"359 417 OFFCURVE",
"418 386 OFFCURVE",
"418 323 CURVE SMOOTH",
"418 261 OFFCURVE",
"359 227 OFFCURVE",
"276 227 CURVE SMOOTH",
"221 227 OFFCURVE",
"152 242 OFFCURVE",
"96 286 CURVE",
"106 302 LINE",
"152 266 OFFCURVE",
"220 252 OFFCURVE",
"277 252 CURVE SMOOTH",
"341 252 OFFCURVE",
"397 268 OFFCURVE",
"397 323 CURVE SMOOTH",
"397 371 OFFCURVE",
"352 393 OFFCURVE",
"284 393 CURVE SMOOTH",
"150 393 OFFCURVE",
"98 304 OFFCURVE",
"98 222 CURVE SMOOTH",
"98 68 OFFCURVE",
"270 4 OFFCURVE",
"475 4 CURVE",
"693 4 OFFCURVE",
"780 76 OFFCURVE",
"780 164 CURVE SMOOTH",
"780 302 OFFCURVE",
"645 266 OFFCURVE",
"645 352 CURVE SMOOTH",
"645 385 OFFCURVE",
"672 405 OFFCURVE",
"720 405 CURVE SMOOTH",
"864 405 LINE",
"864 383 LINE",
"718 383 LINE SMOOTH",
"684 383 OFFCURVE",
"666 373 OFFCURVE",
"666 350 CURVE SMOOTH"
);
}
);
width = 905;
}
);
unicode = 0CEE;
},
{
glyphname = knNine;
lastChange = "2015-10-15 22:03:08 +0000";
layers = (
{
background = {
paths = (
{
closed = 1;
nodes = (
"151 17 OFFCURVE",
"239 -34 OFFCURVE",
"367 -34 CURVE",
"370 -9 LINE",
"244 -9 OFFCURVE",
"171 35 OFFCURVE",
"171 129 CURVE SMOOTH",
"171 240 OFFCURVE",
"273 258 OFFCURVE",
"348 258 CURVE SMOOTH",
"424 258 OFFCURVE",
"484 240 OFFCURVE",
"484 188 CURVE SMOOTH",
"484 135 OFFCURVE",
"421 117 OFFCURVE",
"324 117 CURVE SMOOTH",
"183 117 OFFCURVE",
"82 155 OFFCURVE",
"82 263 CURVE SMOOTH",
"82 329 OFFCURVE",
"119 381 OFFCURVE",
"235 381 CURVE SMOOTH",
"642 381 LINE",
"642 405 LINE",
"236 405 LINE SMOOTH",
"117 405 OFFCURVE",
"60 351 OFFCURVE",
"60 265 CURVE SMOOTH",
"60 134 OFFCURVE",
"192 92 OFFCURVE",
"326 92 CURVE SMOOTH",
"441 92 OFFCURVE",
"506 123 OFFCURVE",
"506 186 CURVE SMOOTH",
"506 248 OFFCURVE",
"445 282 OFFCURVE",
"351 282 CURVE SMOOTH",
"286 282 OFFCURVE",
"151 266 OFFCURVE",
"151 131 CURVE SMOOTH"
);
}
);
};
layerId = "034236B8-3FA8-43DA-9EDA-EFF269A687EC";
name = Light;
paths = (
{
closed = 1;
nodes = (
"151 18 OFFCURVE",
"239 -34 OFFCURVE",
"367 -34 CURVE",
"370 -9 LINE",
"244 -9 OFFCURVE",
"171 35 OFFCURVE",
"171 129 CURVE SMOOTH",
"171 240 OFFCURVE",
"273 258 OFFCURVE",
"348 258 CURVE SMOOTH",
"424 258 OFFCURVE",
"484 240 OFFCURVE",
"484 188 CURVE SMOOTH",
"484 135 OFFCURVE",
"421 117 OFFCURVE",
"324 117 CURVE SMOOTH",
"183 117 OFFCURVE",
"82 155 OFFCURVE",
"82 263 CURVE SMOOTH",
"82 331 OFFCURVE",
"119 383 OFFCURVE",
"235 383 CURVE SMOOTH",
"642 383 LINE",
"642 405 LINE",
"236 405 LINE SMOOTH",
"117 405 OFFCURVE",
"60 353 OFFCURVE",
"60 265 CURVE SMOOTH",
"60 134 OFFCURVE",
"192 92 OFFCURVE",
"326 92 CURVE SMOOTH",
"441 92 OFFCURVE",
"506 123 OFFCURVE",
"506 186 CURVE SMOOTH",
"506 248 OFFCURVE",
"445 282 OFFCURVE",
"350 282 CURVE SMOOTH",
"284 282 OFFCURVE",
"151 266 OFFCURVE",
"151 129 CURVE SMOOTH"
);
}
);
width = 632;
}
);
unicode = 0CEF;
},
{
glyphname = .notdef;
lastChange = "2015-10-15 22:03:08 +0000";
layers = (
{
guideLines = (
{
position = "{160, 473}";
}
);
hints = (
{
horizontal = 1;
origin = "{0, 2}";
type = Anchor;
},
{
horizontal = 1;
origin = "{0, 3}";
type = Anchor;
},
{
horizontal = 1;
origin = "{0, 2}";
target = "{0, 3}";
other1 = "{2, 6}";
type = Interpolate;
},
{
horizontal = 1;
origin = "{2, 6}";
target = "{3, 6}";
type = Align;
}
);
layerId = "034236B8-3FA8-43DA-9EDA-EFF269A687EC";
name = Light;
paths = (
{
closed = 1;
nodes = (
"378 0 LINE",
"378 490 LINE",
"122 490 LINE",
"122 0 LINE"
);
},
{
closed = 1;
nodes = (
"150 463 LINE",
"350 463 LINE",
"350 27 LINE",
"150 27 LINE"
);
},
{
closed = 1;
nodes = (
"132 35 LINE",
"152 17 LINE",
"257 230 LINE",
"257 260 LINE",
"152 473 LINE",
"132 455 LINE",
"235 245 LINE"
);
},
{
closed = 1;
nodes = (
"372 455 LINE",
"352 473 LINE",
"247 260 LINE",
"247 230 LINE",
"352 17 LINE",
"372 35 LINE",
"269 245 LINE"
);
}
);
width = 500;
}
);
},
{
glyphname = indianrupee;
lastChange = "2015-10-15 22:03:08 +0000";
layers = (
{
background = {
guideLines = (
{
angle = -50.7106;
position = "{405, 99}";
},
{
angle = -49.1276;
position = "{422, 109}";
}
);
paths = (
{
closed = 1;
nodes = (
"477 176 LINE SMOOTH",
"578 176 OFFCURVE",
"628 227 OFFCURVE",
"628 290 CURVE SMOOTH",
"628 353 OFFCURVE",
"578 405 OFFCURVE",
"477 405 CURVE SMOOTH",
"80 405 LINE",
"80 382 LINE",
"477 382 LINE SMOOTH",
"567 382 OFFCURVE",
"606 340 OFFCURVE",
"606 290 CURVE SMOOTH",
"606 240 OFFCURVE",
"567 199 OFFCURVE",
"477 199 CURVE SMOOTH",
"80 199 LINE",
"80 176 LINE"
);
},
{
closed = 1;
nodes = (
"778 279 LINE",
"778 302 LINE",
"80 302 LINE",
"80 279 LINE"
);
},
{
closed = 1;
nodes = (
"778 382 LINE",
"778 405 LINE",
"497 405 LINE",
"497 382 LINE"
);
},
{
closed = 1;
nodes = (
"254 176 LINE SMOOTH",
"324 176 OFFCURVE",
"366 143 OFFCURVE",
"402 100 CURVE SMOOTH",
"444 45 OFFCURVE",
"483 0 OFFCURVE",
"613 0 CURVE SMOOTH",
"638 0 LINE",
"638 23 LINE",
"613 23 LINE SMOOTH",
"493 23 OFFCURVE",
"463 58 OFFCURVE",
"422 110 CURVE SMOOTH",
"378 165 OFFCURVE",
"341 192 OFFCURVE",
"248 192 CURVE SMOOTH",
"238 192 LINE",
"238 176 LINE"
);
}
);
};
guideLines = (
{
position = "{-96, 290}";
},
{
angle = 39.9869;
position = "{403, 90}";
showMeasurement = 1;
},
{
angle = -52.6333;
position = "{422, 110}";
},
{
angle = 90;
position = "{628, 290}";
}
);
layerId = "034236B8-3FA8-43DA-9EDA-EFF269A687EC";
name = Light;
paths = (
{
closed = 1;
nodes = (
"477 176 LINE SMOOTH",
"578 176 OFFCURVE",
"628 227 OFFCURVE",
"628 290 CURVE SMOOTH",
"628 353 OFFCURVE",
"578 405 OFFCURVE",
"477 405 CURVE SMOOTH",
"80 405 LINE",
"80 382 LINE",
"477 382 LINE SMOOTH",
"567 382 OFFCURVE",
"606 340 OFFCURVE",
"606 290 CURVE SMOOTH",
"606 240 OFFCURVE",
"567 199 OFFCURVE",
"477 199 CURVE SMOOTH",
"80 199 LINE",
"80 176 LINE"
);
},
{
closed = 1;
nodes = (
"778 279 LINE",
"778 302 LINE",
"80 302 LINE",
"80 279 LINE"
);
},
{
closed = 1;
nodes = (
"778 382 LINE",
"778 405 LINE",
"447 405 LINE",
"447 382 LINE"
);
},
{
closed = 1;
nodes = (
"254 176 LINE SMOOTH",
"324 176 OFFCURVE",
"368 143 OFFCURVE",
"406 95 CURVE SMOOTH",
"446 45 OFFCURVE",
"483 0 OFFCURVE",
"613 0 CURVE SMOOTH",
"653 0 LINE",
"653 23 LINE",
"613 23 LINE SMOOTH",
"493 23 OFFCURVE",
"463 58 OFFCURVE",
"426 105 CURVE SMOOTH",
"378 165 OFFCURVE",
"341 192 OFFCURVE",
"248 192 CURVE SMOOTH",
"238 192 LINE",
"238 176 LINE"
);
}
);
width = 838;
},
{
associatedMasterId = "034236B8-3FA8-43DA-9EDA-EFF269A687EC";
background = {
anchors = (
{
name = bottom;
position = "{564, 0}";
},
{
name = top;
position = "{524, 490}";
}
);
guideLines = (
{
angle = -50.7106;
position = "{531, 99}";
},
{
angle = -49.1276;
position = "{548, 109}";
}
);
paths = (
{
closed = 1;
nodes = (
"383 175 LINE SMOOTH",
"453 175 OFFCURVE",
"495 142 OFFCURVE",
"531 99 CURVE SMOOTH",
"573 44 OFFCURVE",
"612 0 OFFCURVE",
"694 0 CURVE",
"694 19 LINE",
"619 19 OFFCURVE",
"590 57 OFFCURVE",
"548 109 CURVE SMOOTH",
"501 163 OFFCURVE",
"463 190 OFFCURVE",
"374 190 CURVE SMOOTH",
"364 190 LINE",
"364 175 LINE"
);
}
);
};
guideLines = (
{
position = "{30, 290}";
},
{
angle = 39.9869;
position = "{589, 0}";
showMeasurement = 1;
},
{
angle = 39.9869;
position = "{537, 64}";
showMeasurement = 1;
},
{
angle = 131.231;
position = "{629, 0}";
}
);
layerId = "060F3EC4-1D72-4907-95B2-DE11CDC5748E";
name = "Light Oct 13 15, 16:15";
paths = (
{
closed = 1;
nodes = (
"603 175 LINE SMOOTH",
"704 175 OFFCURVE",
"754 227 OFFCURVE",
"754 290 CURVE SMOOTH",
"754 353 OFFCURVE",
"704 405 OFFCURVE",
"603 405 CURVE SMOOTH",
"56 405 LINE",
"56 381 LINE",
"603 381 LINE SMOOTH",
"693 381 OFFCURVE",
"732 340 OFFCURVE",
"732 290 CURVE SMOOTH",
"732 240 OFFCURVE",
"693 199 OFFCURVE",
"603 199 CURVE SMOOTH",
"56 199 LINE",
"56 175 LINE"
);
},
{
closed = 1;
nodes = (
"629 0 LINE",
"551 89 LINE SMOOTH",
"485 164 OFFCURVE",
"460 190 OFFCURVE",
"384 190 CURVE SMOOTH",
"223 190 LINE",
"223 175 LINE",
"373 175 LINE SMOOTH",
"453 175 OFFCURVE",
"490 127 OFFCURVE",
"531 79 CURVE SMOOTH",
"599 0 LINE"
);
},
{
closed = 1;
nodes = (
"854 278 LINE",
"854 302 LINE",
"56 302 LINE",
"56 278 LINE"
);
},
{
closed = 1;
nodes = (
"854 381 LINE",
"854 405 LINE",
"573 405 LINE",
"573 381 LINE"
);
}
);
width = 1047;
}
);
},
{
glyphname = zerowidthnonjoiner;
lastChange = "2015-10-15 22:03:08 +0000";
layers = (
{
layerId = "034236B8-3FA8-43DA-9EDA-EFF269A687EC";
name = Light;
paths = (
{
closed = 1;
nodes = (
"10 -230 LINE",
"10 590 LINE",
"-10 590 LINE",
"-10 -230 LINE"
);
}
);
width = 0;
}
);
unicode = 200C;
},
{
glyphname = zerowidthjoiner;
lastChange = "2015-10-15 22:03:08 +0000";
layers = (
{
background = {
paths = (
{
closed = 1;
nodes = (
"24 -230 LINE",
"24 635 LINE",
"96 560 LINE",
"129 593 LINE",
"33 688 LINE",
"129 784 LINE",
"97 816 LINE",
"1 721 LINE",
"-94 816 LINE",
"-127 783 LINE",
"-32 688 LINE",
"-125 595 LINE",
"-92 562 LINE",
"-23 635 LINE",
"-23 -230 LINE"
);
}
);
};
layerId = "034236B8-3FA8-43DA-9EDA-EFF269A687EC";
name = Light;
paths = (
{
closed = 1;
nodes = (
"10 -230 LINE",
"10 590 LINE",
"-10 590 LINE",
"-10 -230 LINE"
);
},
{
closed = 1;
nodes = (
"78 526 LINE",
"-64 668 LINE",
"-78 654 LINE",
"64 512 LINE"
);
},
{
closed = 1;
nodes = (
"78 654 LINE",
"64 668 LINE",
"-78 526 LINE",
"-64 512 LINE"
);
}
);
width = 0;
}
);
unicode = FEFF;
},
{
glyphname = dottedcircle;
lastChange = "2015-10-15 22:03:08 +0000";
layers = (
{
background = {
paths = (
{
closed = 1;
nodes = (
"351 491 OFFCURVE",
"365 505 OFFCURVE",
"365 523 CURVE SMOOTH",
"365 541 OFFCURVE",
"351 555 OFFCURVE",
"333 555 CURVE SMOOTH",
"315 555 OFFCURVE",
"301 541 OFFCURVE",
"301 523 CURVE SMOOTH",
"301 505 OFFCURVE",
"315 491 OFFCURVE",
"333 491 CURVE SMOOTH"
);
},
{
closed = 1;
nodes = (
"351 -21 OFFCURVE",
"365 -7 OFFCURVE",
"365 11 CURVE SMOOTH",
"365 29 OFFCURVE",
"351 43 OFFCURVE",
"333 43 CURVE SMOOTH",
"315 43 OFFCURVE",
"301 29 OFFCURVE",
"301 11 CURVE SMOOTH",
"301 -7 OFFCURVE",
"315 -21 OFFCURVE",
"333 -21 CURVE SMOOTH"
);
},
{
closed = 1;
nodes = (
"557 249 OFFCURVE",
"571 235 OFFCURVE",
"589 235 CURVE SMOOTH",
"607 235 OFFCURVE",
"621 249 OFFCURVE",
"621 267 CURVE SMOOTH",
"621 285 OFFCURVE",
"607 299 OFFCURVE",
"589 299 CURVE SMOOTH",
"571 299 OFFCURVE",
"557 285 OFFCURVE",
"557 267 CURVE SMOOTH"
);
},
{
closed = 1;
nodes = (
"45 249 OFFCURVE",
"59 235 OFFCURVE",
"77 235 CURVE SMOOTH",
"95 235 OFFCURVE",
"109 249 OFFCURVE",
"109 267 CURVE SMOOTH",
"109 285 OFFCURVE",
"95 299 OFFCURVE",
"77 299 CURVE SMOOTH",
"59 299 OFFCURVE",
"45 285 OFFCURVE",
"45 267 CURVE SMOOTH"
);
},
{
closed = 1;
nodes = (
"165 421 OFFCURVE",
"179 435 OFFCURVE",
"179 453 CURVE SMOOTH",
"179 471 OFFCURVE",
"165 485 OFFCURVE",
"147 485 CURVE SMOOTH",
"129 485 OFFCURVE",
"115 471 OFFCURVE",
"115 453 CURVE SMOOTH",
"115 435 OFFCURVE",
"129 421 OFFCURVE",
"147 421 CURVE SMOOTH"
);
},
{
closed = 1;
nodes = (
"165 49 OFFCURVE",
"179 63 OFFCURVE",
"179 81 CURVE SMOOTH",
"179 99 OFFCURVE",
"165 113 OFFCURVE",
"147 113 CURVE SMOOTH",
"129 113 OFFCURVE",
"115 99 OFFCURVE",
"115 81 CURVE SMOOTH",
"115 63 OFFCURVE",
"129 49 OFFCURVE",
"147 49 CURVE SMOOTH"
);
},
{
closed = 1;
nodes = (
"537 421 OFFCURVE",
"551 435 OFFCURVE",
"551 453 CURVE SMOOTH",
"551 471 OFFCURVE",
"537 485 OFFCURVE",
"519 485 CURVE SMOOTH",
"501 485 OFFCURVE",
"487 471 OFFCURVE",
"487 453 CURVE SMOOTH",
"487 435 OFFCURVE",
"501 421 OFFCURVE",
"519 421 CURVE SMOOTH"
);
},
{
closed = 1;
nodes = (
"537 49 OFFCURVE",
"551 63 OFFCURVE",
"551 81 CURVE SMOOTH",
"551 99 OFFCURVE",
"537 113 OFFCURVE",
"519 113 CURVE SMOOTH",
"501 113 OFFCURVE",
"487 99 OFFCURVE",
"487 81 CURVE SMOOTH",
"487 63 OFFCURVE",
"501 49 OFFCURVE",
"519 49 CURVE SMOOTH"
);
}
);
};
layerId = "034236B8-3FA8-43DA-9EDA-EFF269A687EC";
name = Light;
paths = (
{
closed = 1;
nodes = (
"45 248 OFFCURVE",
"64 235 OFFCURVE",
"87 235 CURVE SMOOTH",
"111 235 OFFCURVE",
"130 248 OFFCURVE",
"130 267 CURVE SMOOTH",
"130 286 OFFCURVE",
"111 299 OFFCURVE",
"87 299 CURVE SMOOTH",
"64 299 OFFCURVE",
"45 286 OFFCURVE",
"45 267 CURVE SMOOTH"
);
},
{
closed = 1;
nodes = (
"536 248 OFFCURVE",
"555 235 OFFCURVE",
"578 235 CURVE SMOOTH",
"602 235 OFFCURVE",
"621 248 OFFCURVE",
"621 267 CURVE SMOOTH",
"621 286 OFFCURVE",
"602 299 OFFCURVE",
"578 299 CURVE SMOOTH",
"555 299 OFFCURVE",
"536 286 OFFCURVE",
"536 267 CURVE SMOOTH"
);
},
{
closed = 1;
nodes = (
"314 64 OFFCURVE",
"301 45 OFFCURVE",
"301 22 CURVE SMOOTH",
"301 -2 OFFCURVE",
"314 -21 OFFCURVE",
"333 -21 CURVE SMOOTH",
"352 -21 OFFCURVE",
"365 -2 OFFCURVE",
"365 22 CURVE SMOOTH",
"365 45 OFFCURVE",
"352 64 OFFCURVE",
"333 64 CURVE SMOOTH"
);
},
{
closed = 1;
nodes = (
"314 555 OFFCURVE",
"301 536 OFFCURVE",
"301 513 CURVE SMOOTH",
"301 489 OFFCURVE",
"314 470 OFFCURVE",
"333 470 CURVE SMOOTH",
"352 470 OFFCURVE",
"365 489 OFFCURVE",
"365 513 CURVE SMOOTH",
"365 536 OFFCURVE",
"352 555 OFFCURVE",
"333 555 CURVE SMOOTH"
);
},
{
closed = 1;
nodes = (
"116 457 OFFCURVE",
"120 435 OFFCURVE",
"136 418 CURVE SMOOTH",
"153 401 OFFCURVE",
"176 397 OFFCURVE",
"189 411 CURVE SMOOTH",
"203 424 OFFCURVE",
"199 447 OFFCURVE",
"182 464 CURVE SMOOTH",
"165 480 OFFCURVE",
"143 484 OFFCURVE",
"129 471 CURVE SMOOTH"
);
},
{
closed = 1;
nodes = (
"463 110 OFFCURVE",
"467 87 OFFCURVE",
"484 71 CURVE SMOOTH",
"501 54 OFFCURVE",
"523 50 OFFCURVE",
"537 63 CURVE SMOOTH",
"550 77 OFFCURVE",
"546 99 OFFCURVE",
"529 116 CURVE SMOOTH",
"513 133 OFFCURVE",
"490 137 OFFCURVE",
"477 123 CURVE SMOOTH"
);
},
{
closed = 1;
nodes = (
"176 137 OFFCURVE",
"153 133 OFFCURVE",
"137 116 CURVE SMOOTH",
"120 99 OFFCURVE",
"116 77 OFFCURVE",
"129 63 CURVE SMOOTH",
"143 50 OFFCURVE",
"165 54 OFFCURVE",
"182 71 CURVE SMOOTH",
"199 87 OFFCURVE",
"203 110 OFFCURVE",
"189 123 CURVE SMOOTH"
);
},
{
closed = 1;
nodes = (
"523 484 OFFCURVE",
"501 480 OFFCURVE",
"484 464 CURVE SMOOTH",
"467 447 OFFCURVE",
"463 424 OFFCURVE",
"477 411 CURVE SMOOTH",
"490 397 OFFCURVE",
"513 401 OFFCURVE",
"530 418 CURVE SMOOTH",
"546 435 OFFCURVE",
"550 457 OFFCURVE",
"537 471 CURVE SMOOTH"
);
}
);
width = 666;
}
);
unicode = 25CC;
},
